{
.appVersion = "1357";
DisplayStrings = (
"/caroncomb.alt/tcaron",
"/approxequal =",
"=/infinity &",
"H²/twoinferior O",
"H/twoinferior O",
"1/one.ss11",
"/infinity/space Metallic/space solids\012Crunchy/space Obligate/space Xenomorphs",
"/plus.alt/equal.alt",
"«»",
".,:;/ellipsis !¡?¿·/bullet *#///backslash/asterisk.ss15/asterisk.ss16 (){}[]-­/endash/emdash _/quotesinglbase/quotedblbase/quotedblleft/quotedblright/quoteleft/quoteright «»/guilsinglleft/guilsinglright \"'",
"/lessergreater",
"/greaterarrow/exclamequal/lessergreater/greatergreaterarrow/equalequalarrow/equalarrow",
"/J.ss07/Jacute.ss07",
"E/ogonekcomb.case/Eogonek",
"/cedillacomb.case T/Tcedilla",
"Ç",
"I/Iogonek/iogonek/idotless.ss02/iogonek.ss02",
"S/Scedilla",
"T/cedillacomb.case/Tcedilla",
"/oneeighth.ss01/seveneighths.ss01"
);
classes = (
{
code = "space nbspace i l j t v y I T one seven period comma colon semicolon ellipsis exclam exclamdown question questiondown periodcentered bullet asterisk numbersign slash backslash parenleft parenright braceleft braceright bracketleft bracketright hyphen softhyphen endash emdash underscore quotesinglbase quotedblbase quotedblleft quotedblright quoteleft quoteright guillemetleft guillemetright guilsinglleft guilsinglright quotedbl quotesingle zeroinferior oneinferior twoinferior threeinferior fourinferior fiveinferior sixinferior seveninferior eightinferior nineinferior zero.dnom one.dnom two.dnom three.dnom four.dnom five.dnom six.dnom seven.dnom eight.dnom nine.dnom zero.numr one.numr two.numr three.numr four.numr five.numr six.numr seven.numr eight.numr nine.numr zerosuperior onesuperior twosuperior threesuperior foursuperior fivesuperior sixsuperior sevensuperior eightsuperior ninesuperior ordfeminine ordmasculine ";
name = Caltopen;
},
{
automatic = 1;

glyphs = (
{
glyphname = A;
lastChange = "2022-02-12 05:29:12 +0000";
layers = (
{
anchors = (
{
name = bottom;
position = "{600, 0}";
},
{
name = ogonek;
position = "{1175, 0}";
},
{
name = top;
position = "{600, 1454}";
}
);
background = {
paths = (
{
closed = 1;
nodes = (
"168 0 LINE",
"547 1141 LINE",
"621 1367 LINE",
"622 1367 LINE",
"698 1141 LINE",
"1077 0 LINE",
"1210 0 LINE",
"725 1454 LINE",
"521 1454 LINE",
"35 0 LINE"
);
},
{
closed = 1;
nodes = (
"1047 392 LINE",
"982 510 LINE",
"281 510 LINE",
"219 392 LINE"
);
}
);
};
layerId = "0D9D1AFE-BAFC-449A-A530-9FCA9CDF2E2E";
paths = (
{
closed = 1;
nodes = (
"152 0 LINE",
"525 1151 LINE",
"598 1377 LINE",
"600 1377 LINE",
"675 1151 LINE",
"895 467 LINE",
"935 508 LINE",
"264 508 LINE",
"202 392 LINE",
"974 392 LINE",
"902 446 LINE",
"1048 0 LINE",
"1180 0 LINE",
"702 1454 LINE",
"499 1454 LINE",
"20 0 LINE"
);
}
);
width = 1200;
},
{
anchors = (
{
name = bottom;
position = "{598, 0}";
},
{
name = ogonek;
position = "{1207, 0}";
},
{
name = top;
position = "{601, 1454}";
}
);
background = {
paths = (
{
closed = 1;
nodes = (
"268 0 LINE",
"564 951 LINE",
"653 1284 LINE",
"660 1284 LINE",
"752 951 LINE",
"1047 0 LINE",
"1285 0 LINE",
"800 1454 LINE",
"516 1454 LINE",
"30 0 LINE"
);
},
{
closed = 1;
nodes = (
"992 343 LINE",
"907 533 LINE",
"406 533 LINE",
"324 343 LINE"
);
}
);
};
layerId = "09AB1441-CF14-483D-884E-606841830E4D";
paths = (
{
closed = 1;
nodes = (
"227 0 LINE",
"511 951 LINE",
"596 1284 LINE",
"604 1284 LINE",
"691 951 LINE",
"844 435 LINE",
"915 533 LINE",
"353 533 LINE",
"278 343 LINE",
"973 343 LINE",
"845 432 LINE",
"974 0 LINE",
"1209 0 LINE",
"745 1454 LINE",
"457 1454 LINE",
"-9 0 LINE"
);
}
);
width = 1200;
},
{
anchors = (
{
name = bottom;
position = "{600, 0}";
},
{
name = ogonek;
position = "{1199, 0}";
},
{
name = top;
position = "{599, 1454}";
}
);
background = {
paths = (
{
closed = 1;
nodes = (
"348 0 LINE",
"610 947 LINE",
"682 1244 LINE",
"698 1244 LINE",
"771 947 LINE",
"1035 0 LINE",
"1372 0 LINE",
"935 1454 LINE",
"448 1454 LINE",
"11 0 LINE"
);
},
{
closed = 1;
nodes = (
"1019 338 LINE",
"1000 590 LINE",
"381 590 LINE",
"363 338 LINE"
);
}
);
};
layerId = "BF6BC6F6-4B2A-4E9B-9E28-8B62B2F12FD9";
paths = (
{
closed = 1;
nodes = (
"323 0 LINE",
"525 947 LINE",
"590 1244 LINE",
"610 1244 LINE",
"675 947 LINE",
"769 474 LINE",
"879 590 LINE",
"310 590 LINE",
"300 338 LINE",
"947 338 LINE",
"770 470 LINE",
"877 0 LINE",
"1211 0 LINE",
"848 1454 LINE",
"352 1454 LINE",
"-11 0 LINE"
);
}
);
width = 1200;
}
);
unicode = 0041;
userData = {
KernOnName = A;
};
},
{
glyphname = AE;
lastChange = "2022-02-12 05:29:43 +0000";
layers = (
{
anchors = (
{
name = top;
position = "{637, 1454}";
}
);
layerId = "0D9D1AFE-BAFC-449A-A530-9FCA9CDF2E2E";
paths = (
{
closed = 1;
nodes = (
"14 0 LINE",
"479 1141 LINE",
"563 1366 LINE",
"574 1366 LINE",
"574 1427 LINE",
"571 1454 LINE",
"476 1454 LINE",
"-120 0 LINE"
);
},
{
closed = 1;
nodes = (
"1194 0 LINE",
"1194 119 LINE",
"640 119 LINE",
"688 58 LINE",
"688 729 LINE",
"648 702 LINE",
"1142 702 LINE",
"1142 818 LINE",
"640 818 LINE",
"688 789 LINE",
"688 1387 LINE",
"640 1336 LINE",
"1180 1336 LINE",
"1180 1454 LINE",
"571 1454 LINE",
"571 0 LINE"
);
},
{
closed = 1;
nodes = (
"612 392 LINE",
"612 510 LINE",
"144 510 LINE",
"95 392 LINE"
);
}
);
width = 1200;
},
{
anchors = (
{
name = top;
position = "{698, 1454}";
}
);
layerId = "09AB1441-CF14-483D-884E-606841830E4D";
paths = (
{
closed = 1;
nodes = (
"104 0 LINE",
"527 1141 LINE",
"575 1287 LINE",
"592 1287 LINE",
"615 1427 LINE",
"584 1454 LINE",
"447 1454 LINE",
"-109 0 LINE"
);
},
{
closed = 1;
nodes = (
"1194 0 LINE",
"1194 212 LINE",
"702 212 LINE",
"775 98 LINE",
"775 729 LINE",
"725 651 LINE",
"1145 651 LINE",
"1145 858 LINE",
"702 858 LINE",
"775 789 LINE",
"775 1357 LINE",
"702 1244 LINE",
"1185 1244 LINE",
"1185 1454 LINE",
"584 1454 LINE",
"584 0 LINE"
);
},
{
closed = 1;
nodes = (
"627 372 LINE",
"627 570 LINE",
"205 570 LINE",
"140 372 LINE"
);
}
);
width = 1200;
},
{
anchors = (
{
name = top;
position = "{727, 1454}";
}
);
layerId = "BF6BC6F6-4B2A-4E9B-9E28-8B62B2F12FD9";
paths = (
{
closed = 1;
nodes = (
"283 0 LINE",
"585 1069 LINE",
"614 1181 LINE",
"618 1181 LINE",
"705 1427 LINE",
"618 1454 LINE",
"459 1454 LINE",
"13 0 LINE"
);
},
{
closed = 1;
nodes = (
"1155 0 LINE",
"1155 289 LINE",
"807 289 LINE",
"868 214 LINE",
"868 663 LINE",
"797 601 LINE",
"1112 601 LINE",
"1112 887 LINE",
"807 887 LINE",
"868 824 LINE",
"868 1241 LINE",
"807 1167 LINE",
"1168 1167 LINE",
"1168 1454 LINE",
"618 1454 LINE",
"618 0 LINE"
);
},
{
closed = 1;
nodes = (
"634 357 LINE",
"634 616 LINE",
"312 616 LINE",
"202 357 LINE"
);
}
);
width = 1200;
}
);
unicode = 00C6;
userData = {
KernOnName = AE;
};
},
{
glyphname = B;
lastChange = "2022-02-12 05:29:12 +0000";
layers = (
{
anchors = (
{
name = bottom;
position = "{596, 0}";
},
{
name = top;
position = "{596, 1454}";
}
);
layerId = "0D9D1AFE-BAFC-449A-A530-9FCA9CDF2E2E";
paths = (
{
closed = 1;
nodes = (
"618 0 LINE SMOOTH",
"911 0 OFFCURVE",
"1132 118 OFFCURVE",
"1132 445 CURVE SMOOTH",
"1132 662 OFFCURVE",
"969 771 OFFCURVE",
"808 773 CURVE",
"964 803 OFFCURVE",
"1068 919 OFFCURVE",
"1068 1091 CURVE SMOOTH",
"1068 1296 OFFCURVE",
"933 1454 OFFCURVE",
"602 1454 CURVE SMOOTH",
"154 1454 LINE",
"154 0 LINE"
);
},
{
closed = 1;
nodes = (
"279 704 LINE",
"653 704 LINE SMOOTH",
"852 704 OFFCURVE",
"1002 642 OFFCURVE",
"1002 431 CURVE SMOOTH",
"1002 222 OFFCURVE",
"882 111 OFFCURVE",
"622 111 CURVE SMOOTH",
"279 111 LINE"
);
},
{
closed = 1;
nodes = (
"279 1343 LINE",
"625 1343 LINE SMOOTH",
"845 1343 OFFCURVE",
"939 1236 OFFCURVE",
"938 1084 CURVE SMOOTH",
"937 881 OFFCURVE",
"779 815 OFFCURVE",
"635 815 CURVE SMOOTH",
"279 815 LINE"
);
}
);
width = 1200;
},
{
anchors = (
{
name = bottom;
position = "{599, 0}";
},
{
name = top;
position = "{599, 1454}";
}
);
background = {
paths = (
{
closed = 1;
nodes = (
"628 0 LINE SMOOTH",
"921 0 OFFCURVE",
"1142 118 OFFCURVE",
"1142 445 CURVE SMOOTH",
"1142 662 OFFCURVE",
"979 771 OFFCURVE",
"818 773 CURVE",
"974 803 OFFCURVE",
"1078 919 OFFCURVE",
"1078 1091 CURVE SMOOTH",
"1078 1296 OFFCURVE",
"943 1454 OFFCURVE",
"612 1454 CURVE SMOOTH",
"144 1454 LINE",
"144 0 LINE"
);
},
{
closed = 1;
nodes = (
"269 704 LINE",
"663 704 LINE SMOOTH",
"862 704 OFFCURVE",
"1012 642 OFFCURVE",
"1012 431 CURVE SMOOTH",
"1012 222 OFFCURVE",
"892 111 OFFCURVE",
"632 111 CURVE SMOOTH",
"269 111 LINE"
);
},
{
closed = 1;
nodes = (
"269 1343 LINE",
"645 1343 LINE SMOOTH",
"865 1343 OFFCURVE",
"949 1236 OFFCURVE",
"948 1084 CURVE SMOOTH",
"947 881 OFFCURVE",
"789 815 OFFCURVE",
"645 815 CURVE SMOOTH",
"269 815 LINE"
);
}
);
};
layerId = "09AB1441-CF14-483D-884E-606841830E4D";
paths = (
{
closed = 1;
nodes = (
"628 0 LINE SMOOTH",
"903 0 OFFCURVE",
"1131 142 OFFCURVE",
"1131 443 CURVE SMOOTH",
"1131 650 OFFCURVE",
"968 755 OFFCURVE",
"817 761 CURVE",
"954 789 OFFCURVE",
"1056 918 OFFCURVE",
"1056 1096 CURVE SMOOTH",
"1056 1295 OFFCURVE",
"944 1454 OFFCURVE",
"577 1454 CURVE SMOOTH",
"153 1454 LINE",
"153 0 LINE"
);
},
{
closed = 1;
nodes = (
"371 655 LINE",
"610 655 LINE SMOOTH",
"760 655 OFFCURVE",
"887 628 OFFCURVE",
"887 429 CURVE SMOOTH",
"887 266 OFFCURVE",
"772 190 OFFCURVE",
"595 190 CURVE SMOOTH",
"371 190 LINE"
);
},
{
closed = 1;
nodes = (
"371 1266 LINE",
"562 1266 LINE SMOOTH",
"770 1266 OFFCURVE",
"825 1203 OFFCURVE",
"824 1074 CURVE SMOOTH",
"823 911 OFFCURVE",
"743 835 OFFCURVE",
"564 835 CURVE SMOOTH",
"371 835 LINE"
);
}
);
width = 1200;
},
{
anchors = (
{
name = bottom;
position = "{610, 0}";
},
{
name = top;
position = "{610, 1454}";
}
);
background = {
paths = (
{
closed = 1;
nodes = (
"638 0 LINE SMOOTH",
"913 0 OFFCURVE",
"1141 142 OFFCURVE",
"1141 443 CURVE SMOOTH",
"1141 650 OFFCURVE",
"978 755 OFFCURVE",
"827 761 CURVE",
"964 789 OFFCURVE",
"1070 918 OFFCURVE",
"1070 1096 CURVE SMOOTH",
"1070 1295 OFFCURVE",
"958 1454 OFFCURVE",
"587 1454 CURVE SMOOTH",
"143 1454 LINE",
"143 0 LINE"
);
},
{
closed = 1;
nodes = (
"361 655 LINE",
"620 655 LINE SMOOTH",
"770 655 OFFCURVE",
"897 628 OFFCURVE",
"897 429 CURVE SMOOTH",
"897 266 OFFCURVE",
"782 190 OFFCURVE",
"605 190 CURVE SMOOTH",
"361 190 LINE"
);
},
{
closed = 1;
nodes = (
"361 1266 LINE",
"572 1266 LINE SMOOTH",
"784 1266 OFFCURVE",
"839 1203 OFFCURVE",
"838 1074 CURVE SMOOTH",
"837 911 OFFCURVE",
"753 835 OFFCURVE",
"574 835 CURVE SMOOTH",
"361 835 LINE"
);
}
);
};
layerId = "BF6BC6F6-4B2A-4E9B-9E28-8B62B2F12FD9";
paths = (
{
closed = 1;
nodes = (
"605 0 LINE SMOOTH",
"942 0 OFFCURVE",
"1134 163 OFFCURVE",
"1134 444 CURVE SMOOTH",
"1134 655 OFFCURVE",
"1019 767 OFFCURVE",
"802 790 CURVE",
"966 804 OFFCURVE",
"1070 919 OFFCURVE",
"1070 1098 CURVE SMOOTH",
"1070 1309 OFFCURVE",
"928 1454 OFFCURVE",
"610 1454 CURVE SMOOTH",
"150 1454 LINE",
"150 0 LINE"
);
},
{
closed = 1;
nodes = (
"461 637 LINE",
"575 637 LINE SMOOTH",
"681 637 OFFCURVE",
"803 612 OFFCURVE",
"803 453 CURVE SMOOTH",
"803 286 OFFCURVE",
"703 234 OFFCURVE",
"588 234 CURVE SMOOTH",
"461 234 LINE"
);
},
{
closed = 1;
nodes = (
"461 1222 LINE",
"558 1222 LINE SMOOTH",
"675 1222 OFFCURVE",
"768 1176 OFFCURVE",
"768 1048 CURVE SMOOTH",
"768 923 OFFCURVE",
"687 853 OFFCURVE",
"566 853 CURVE SMOOTH",
"461 853 LINE"
);
}
);
width = 1200;
}
);
unicode = 0042;
userData = {
KernOnName = B;
};
},
{
glyphname = C;
lastChange = "2022-02-12 05:55:19 +0000";
layers = (
{
anchors = (
{
name = bottom;
position = "{619, 0}";
},
{
name = top;
position = "{630, 1454}";
}
);
background = {
components = (
{
name = O;
}
);
paths = (
{
closed = 1;
nodes = (
"858 -29 OFFCURVE",
"1070 74 OFFCURVE",
"1085 413 CURVE",
"870 413 LINE",
"859 261 OFFCURVE",
"787 175 OFFCURVE",
"623 175 CURVE SMOOTH",
"426 175 OFFCURVE",
"319 394 OFFCURVE",
"319 729 CURVE SMOOTH",
"319 1108 OFFCURVE",
"421 1277 OFFCURVE",
"629 1277 CURVE SMOOTH",
"774 1277 OFFCURVE",
"865 1187 OFFCURVE",
"877 942 CURVE",
"1092 942 LINE",
"1084 1326 OFFCURVE",
"902 1482 OFFCURVE",
"625 1482 CURVE SMOOTH",
"303 1482 OFFCURVE",
"90 1194 OFFCURVE",
"90 729 CURVE SMOOTH",
"90 272 OFFCURVE",
"291 -29 OFFCURVE",
"608 -29 CURVE SMOOTH"
);
}
);
};
layerId = "0D9D1AFE-BAFC-449A-A530-9FCA9CDF2E2E";
paths = (
{
closed = 1;
nodes = (
"884 -26 OFFCURVE",
"1047 210 OFFCURVE",
"1066 413 CURVE",
"935 413 LINE",
"919 282 OFFCURVE",
"811 90 OFFCURVE",
"616 90 CURVE SMOOTH",
"363 90 OFFCURVE",
"220 320 OFFCURVE",
"220 753 CURVE SMOOTH",
"220 1118 OFFCURVE",
"360 1365 OFFCURVE",
"607 1365 CURVE SMOOTH",
"848 1365 OFFCURVE",
"929 1160 OFFCURVE",
"937 939 CURVE",
"1077 939 LINE",
"1067 1247 OFFCURVE",
"913 1481 OFFCURVE",
"606 1481 CURVE SMOOTH",
"281 1481 OFFCURVE",
"90 1176 OFFCURVE",
"90 749 CURVE SMOOTH",
"90 268 OFFCURVE",
"269 -26 OFFCURVE",
"618 -26 CURVE SMOOTH"
);
}
);
width = 1200;
},
{
anchors = (
{
name = bottom;
position = "{608, 0}";
},
{
name = top;
position = "{646, 1454}";
}
);
background = {
paths = (
{
closed = 1;
nodes = (
"921 -30 OFFCURVE",
"1121 247 OFFCURVE",
"1121 735 CURVE SMOOTH",
"1121 1207 OFFCURVE",
"921 1483 OFFCURVE",
"600 1483 CURVE SMOOTH",
"282 1483 OFFCURVE",
"79 1207 OFFCURVE",
"79 735 CURVE SMOOTH",
"79 247 OFFCURVE",
"282 -30 OFFCURVE",
"600 -30 CURVE SMOOTH"
);
},
{
closed = 1;
nodes = (
"415 177 OFFCURVE",
"306 354 OFFCURVE",
"306 735 CURVE SMOOTH",
"306 1107 OFFCURVE",
"415 1276 OFFCURVE",
"600 1276 CURVE SMOOTH",
"788 1276 OFFCURVE",
"894 1107 OFFCURVE",
"894 735 CURVE SMOOTH",
"894 354 OFFCURVE",
"788 177 OFFCURVE",
"600 177 CURVE SMOOTH"
);
},
{
closed = 1;
nodes = (
"921 -30 OFFCURVE",
"1121 247 OFFCURVE",
"1121 735 CURVE SMOOTH",
"1121 1207 OFFCURVE",
"921 1483 OFFCURVE",
"600 1483 CURVE SMOOTH",
"282 1483 OFFCURVE",
"79 1207 OFFCURVE",
"79 735 CURVE SMOOTH",
"79 247 OFFCURVE",
"282 -30 OFFCURVE",
"600 -30 CURVE SMOOTH"
);
},
{
closed = 1;
nodes = (
"415 177 OFFCURVE",
"306 354 OFFCURVE",
"306 735 CURVE SMOOTH",
"306 1107 OFFCURVE",
"415 1276 OFFCURVE",
"600 1276 CURVE SMOOTH",
"788 1276 OFFCURVE",
"894 1107 OFFCURVE",
"894 735 CURVE SMOOTH",
"894 354 OFFCURVE",
"788 177 OFFCURVE",
"600 177 CURVE SMOOTH"
);
}
);
};
layerId = "09AB1441-CF14-483D-884E-606841830E4D";
paths = (
{
closed = 1;
nodes = (
"858 -29 OFFCURVE",
"1070 74 OFFCURVE",
"1085 413 CURVE",
"860 413 LINE",
"849 261 OFFCURVE",
"787 175 OFFCURVE",
"623 175 CURVE SMOOTH",
"426 175 OFFCURVE",
"319 394 OFFCURVE",
"319 729 CURVE SMOOTH",
"319 1108 OFFCURVE",
"421 1277 OFFCURVE",
"629 1277 CURVE SMOOTH",
"774 1277 OFFCURVE",
"845 1187 OFFCURVE",
"857 942 CURVE",
"1092 942 LINE",
"1084 1326 OFFCURVE",
"902 1482 OFFCURVE",
"625 1482 CURVE SMOOTH",
"303 1482 OFFCURVE",
"90 1194 OFFCURVE",
"90 729 CURVE SMOOTH",
"90 272 OFFCURVE",
"291 -29 OFFCURVE",
"608 -29 CURVE SMOOTH"
);
}
);
width = 1200;
},
{
anchors = (
{
name = bottom;
position = "{560, 0}";
},
{
name = top;
position = "{643, 1454}";
}
);
background = {
components = (
{
name = O;
}
);
paths = (
{
closed = 1;
nodes = (
"858 -29 OFFCURVE",
"1070 74 OFFCURVE",
"1085 413 CURVE",
"870 413 LINE",
"859 261 OFFCURVE",
"787 175 OFFCURVE",
"623 175 CURVE SMOOTH",
"426 175 OFFCURVE",
"319 394 OFFCURVE",
"319 729 CURVE SMOOTH",
"319 1108 OFFCURVE",
"421 1277 OFFCURVE",
"629 1277 CURVE SMOOTH",
"774 1277 OFFCURVE",
"865 1187 OFFCURVE",
"877 942 CURVE",
"1092 942 LINE",
"1084 1326 OFFCURVE",
"902 1482 OFFCURVE",
"625 1482 CURVE SMOOTH",
"303 1482 OFFCURVE",
"90 1194 OFFCURVE",
"90 729 CURVE SMOOTH",
"90 272 OFFCURVE",
"291 -29 OFFCURVE",
"608 -29 CURVE SMOOTH"
);
}
);
};
layerId = "BF6BC6F6-4B2A-4E9B-9E28-8B62B2F12FD9";
paths = (
{
closed = 1;
nodes = (
"891 -29 OFFCURVE",
"1090 169 OFFCURVE",
"1086 440 CURVE",
"775 440 LINE",
"776 328 OFFCURVE",
"733 268 OFFCURVE",
"604 268 CURVE SMOOTH",
"467 268 OFFCURVE",
"390 420 OFFCURVE",
"388 727 CURVE SMOOTH",
"386 1050 OFFCURVE",
"466 1185 OFFCURVE",
"611 1185 CURVE SMOOTH",
"749 1185 OFFCURVE",
"787 1073 OFFCURVE",
"798 911 CURVE",
"1088 911 LINE",
"1103 1257 OFFCURVE",
"926 1481 OFFCURVE",
"631 1481 CURVE SMOOTH",
"258 1481 OFFCURVE",
"72 1217 OFFCURVE",
"72 734 CURVE SMOOTH",
"72 253 OFFCURVE",
"255 -29 OFFCURVE",
"610 -29 CURVE SMOOTH"
);
}
);
width = 1200;
}
);
unicode = 0043;
userData = {
KernOnName = C;
};
},
{
glyphname = D;
lastChange = "2022-02-12 05:29:56 +0000";
layers = (
{
anchors = (
{
name = bottom;
position = "{596, 0}";
},
{
name = center;
position = "{196, 727}";
},
{
name = top;
position = "{596, 1454}";
}
);
layerId = "0D9D1AFE-BAFC-449A-A530-9FCA9CDF2E2E";
paths = (
{
closed = 1;
nodes = (
"465 0 LINE SMOOTH",
"864 0 OFFCURVE",
"1108 254 OFFCURVE",
"1108 736 CURVE SMOOTH",
"1108 1230 OFFCURVE",
"865 1454 OFFCURVE",
"464 1454 CURVE SMOOTH",
"276 1454 LINE",
"224 1336 LINE",
"498 1336 LINE SMOOTH",
"826 1336 OFFCURVE",
"979 1116 OFFCURVE",
"979 734 CURVE SMOOTH",
"979 370 OFFCURVE",
"826 118 OFFCURVE",
"499 118 CURVE SMOOTH",
"232 118 LINE",
"276 0 LINE"
);
},
{
closed = 1;
nodes = (
"276 0 LINE",
"276 1454 LINE",
"151 1454 LINE",
"151 0 LINE"
);
}
);
width = 1200;
},
{
anchors = (
{
name = bottom;
position = "{599, 0}";
},
{
name = center;
position = "{218, 727}";
},
{
name = top;
position = "{595, 1454}";
}
);
layerId = "09AB1441-CF14-483D-884E-606841830E4D";
paths = (
{
closed = 1;
nodes = (
"494 0 LINE SMOOTH",
"855 0 OFFCURVE",
"1132 250 OFFCURVE",
"1132 736 CURVE SMOOTH",
"1132 1236 OFFCURVE",
"893 1454 OFFCURVE",
"492 1454 CURVE SMOOTH",
"357 1454 LINE",
"304 1246 LINE",
"508 1246 LINE SMOOTH",
"761 1246 OFFCURVE",
"905 1115 OFFCURVE",
"905 734 CURVE SMOOTH",
"905 371 OFFCURVE",
"741 208 OFFCURVE",
"509 208 CURVE SMOOTH",
"312 208 LINE",
"357 0 LINE"
);
},
{
closed = 1;
nodes = (
"357 0 LINE",
"357 1454 LINE",
"135 1454 LINE",
"135 0 LINE"
);
}
);
width = 1200;
},
{
anchors = (
{
name = bottom;
position = "{612, 0}";
},
{
name = center;
position = "{231, 727}";
},
{
name = top;
position = "{562, 1454}";
}
);
layerId = "BF6BC6F6-4B2A-4E9B-9E28-8B62B2F12FD9";
paths = (
{
closed = 1;
nodes = (
"496 0 LINE SMOOTH",
"915 0 OFFCURVE",
"1152 266 OFFCURVE",
"1152 744 CURVE SMOOTH",
"1152 1217 OFFCURVE",
"929 1454 OFFCURVE",
"497 1454 CURVE SMOOTH",
"416 1454 LINE",
"323 1167 LINE",
"455 1167 LINE SMOOTH",
"733 1167 OFFCURVE",
"827 1070 OFFCURVE",
"827 740 CURVE SMOOTH",
"827 406 OFFCURVE",
"713 285 OFFCURVE",
"476 285 CURVE SMOOTH",
"329 285 LINE",
"416 0 LINE"
);
},
{
closed = 1;
nodes = (
"416 0 LINE",
"416 1454 LINE",
"101 1454 LINE",
"101 0 LINE"
);
}
);
width = 1200;
}
);
unicode = 0044;
userData = {
KernOnName = D;
};
},
{
glyphname = E;
lastChange = "2022-02-16 15:26:18 +0000";
layers = (
{
anchors = (
{
name = bottom;
position = "{669, 0}";
},
{
name = ogonek;
position = "{1070, 0}";
},
{
name = top;
position = "{628, 1454}";
},
{
name = topleft;
position = "{10, 1454}";
}
);
background = {
paths = (
{
closed = 1;
nodes = (
"1049 0 LINE",
"1049 1454 LINE",
"924 1454 LINE",
"924 0 LINE"
);
},
{
closed = 1;
nodes = (
"276 0 LINE",
"276 1454 LINE",
"151 1454 LINE",
"151 0 LINE"
);
},
{
closed = 1;
nodes = (
"954 686 LINE",
"954 804 LINE",
"248 804 LINE",
"248 686 LINE"
);
}
);
};
layerId = "0D9D1AFE-BAFC-449A-A530-9FCA9CDF2E2E";
paths = (
{
closed = 1;
nodes = (
"1070 0 LINE",
"1070 113 LINE",
"296 113 LINE",
"345 52 LINE",
"345 732 LINE",
"296 705 LINE",
"955 705 LINE",
"955 818 LINE",
"296 818 LINE",
"345 789 LINE",
"345 1391 LINE",
"296 1340 LINE",
"1017 1340 LINE",
"1017 1454 LINE",
"220 1454 LINE",
"220 0 LINE"
);
}
);
width = 1200;
},
{
anchors = (
{
name = bottom;
position = "{651, 0}";
},
{
name = ogonek;
position = "{1047, 0}";
},
{
name = top;
position = "{598, 1454}";
},
{
name = topleft;
position = "{36, 1454}";
}
);
layerId = "09AB1441-CF14-483D-884E-606841830E4D";
paths = (
{
closed = 1;
nodes = (
"1047 0 LINE",
"1047 195 LINE",
"275 195 LINE",
"375 78 LINE",
"375 746 LINE",
"320 668 LINE",
"934 668 LINE",
"934 858 LINE",
"275 858 LINE",
"375 789 LINE",
"375 1357 LINE",
"275 1264 LINE",
"1011 1264 LINE",
"1011 1454 LINE",
"153 1454 LINE",
"153 0 LINE"
);
}
);
width = 1200;
},
{
anchors = (
{
name = bottom;
position = "{629, 0}";
},
{
name = ogonek;
position = "{1099, 0}";
},
{
name = top;
position = "{622, 1454}";
},
{
name = topleft;
position = "{58, 1454}";
}
);
layerId = "BF6BC6F6-4B2A-4E9B-9E28-8B62B2F12FD9";
paths = (
{
closed = 1;
nodes = (
"1099 0 LINE",
"1099 286 LINE",
"349 286 LINE",
"448 211 LINE",
"448 679 LINE",
"362 617 LINE",
"999 617 LINE",
"999 881 LINE",
"349 881 LINE",
"448 818 LINE",
"448 1250 LINE",
"349 1176 LINE",
"1067 1176 LINE",
"1067 1454 LINE",
"140 1454 LINE",
"140 0 LINE"
);
}
);
width = 1200;
}
);
unicode = 0045;
userData = {
KernOnName = E;
};
},
{
glyphname = F;
lastChange = "2022-02-12 05:29:56 +0000";
layers = (
{
anchors = (
{
name = bottom;
position = "{610, 0}";
},
{
name = top;
position = "{610, 1454}";
}
);
layerId = "0D9D1AFE-BAFC-449A-A530-9FCA9CDF2E2E";
paths = (
{
closed = 1;
nodes = (
"307 0 LINE",
"307 707 LINE",
"276 685 LINE",
"972 685 LINE",
"972 798 LINE",
"278 798 LINE",
"307 775 LINE",
"307 1394 LINE",
"267 1340 LINE",
"1057 1340 LINE",
"1057 1454 LINE",
"181 1454 LINE",
"181 0 LINE"
);
}
);
width = 1200;
},
{
anchors = (
{
name = bottom;
position = "{605, 0}";
},
{
name = top;
position = "{605, 1454}";
}
);
background = {
paths = (
{
closed = 1;
nodes = (
"1070 0 LINE",
"1070 1454 LINE",
"848 1454 LINE",
"848 0 LINE"
);
},
{
closed = 1;
nodes = (
"352 0 LINE",
"352 1454 LINE",
"130 1454 LINE",
"130 0 LINE"
);
},
{
closed = 1;
nodes = (
"881 651 LINE",
"884 841 LINE",
"285 841 LINE",
"285 651 LINE"
);
}
);
};
layerId = "09AB1441-CF14-483D-884E-606841830E4D";
paths = (
{
closed = 1;
nodes = (
"388 0 LINE",
"388 699 LINE",
"358 641 LINE",
"966 641 LINE",
"966 831 LINE",
"289 831 LINE",
"388 759 LINE",
"388 1357 LINE",
"288 1264 LINE",
"1051 1264 LINE",
"1051 1454 LINE",
"163 1454 LINE",
"163 0 LINE"
);
}
);
width = 1200;
},
{
anchors = (
{
name = bottom;
position = "{610, 0}";
},
{
name = top;
position = "{610, 1454}";
}
);
layerId = "BF6BC6F6-4B2A-4E9B-9E28-8B62B2F12FD9";
paths = (
{
closed = 1;
nodes = (
"465 0 LINE",
"465 667 LINE",
"350 574 LINE",
"1017 574 LINE",
"1018 846 LINE",
"277 846 LINE",
"465 725 LINE",
"465 1360 LINE",
"276 1173 LINE",
"1094 1173 LINE",
"1092 1454 LINE",
"150 1454 LINE",
"150 0 LINE"
);
}
);
width = 1200;
}
);
unicode = 0046;
userData = {
KernOnName = F;
};
},
{
glyphname = G;
lastChange = "2022-02-12 05:33:45 +0000";
layers = (
{
anchors = (
{
name = bottom;
position = "{642, 0}";
},
{
name = top;
position = "{627, 1454}";
}
);
background = {
paths = (
{
closed = 1;
nodes = (
"912 -30 OFFCURVE",
"1108 253 OFFCURVE",
"1108 735 CURVE SMOOTH",
"1108 1219 OFFCURVE",
"912 1483 OFFCURVE",
"600 1483 CURVE SMOOTH",
"286 1483 OFFCURVE",
"92 1219 OFFCURVE",
"92 735 CURVE SMOOTH",
"92 253 OFFCURVE",
"286 -30 OFFCURVE",
"600 -30 CURVE SMOOTH"
);
},
{
closed = 1;
nodes = (
"367 90 OFFCURVE",
"222 326 OFFCURVE",
"222 735 CURVE SMOOTH",
"222 1142 OFFCURVE",
"368 1363 OFFCURVE",
"600 1363 CURVE SMOOTH",
"831 1363 OFFCURVE",
"978 1142 OFFCURVE",
"978 735 CURVE SMOOTH",
"978 326 OFFCURVE",
"831 90 OFFCURVE",
"600 90 CURVE SMOOTH"
);
}
);
};
layerId = "0D9D1AFE-BAFC-449A-A530-9FCA9CDF2E2E";
paths = (
{
closed = 1;
nodes = (
"840 -30 OFFCURVE",
"947 45 OFFCURVE",
"1075 135 CURVE",
"1077 734 LINE",
"652 734 LINE",
"652 611 LINE",
"952 611 LINE",
"950 200 LINE",
"880 147 OFFCURVE",
"792 90 OFFCURVE",
"605 90 CURVE SMOOTH",
"384 90 OFFCURVE",
"221 320 OFFCURVE",
"221 731 CURVE SMOOTH",
"221 1149 OFFCURVE",
"368 1361 OFFCURVE",
"645 1361 CURVE SMOOTH",
"855 1361 OFFCURVE",
"924 1177 OFFCURVE",
"942 1047 CURVE",
"1067 1047 LINE",
"1028 1349 OFFCURVE",
"879 1481 OFFCURVE",
"658 1481 CURVE SMOOTH",
"283 1481 OFFCURVE",
"94 1219 OFFCURVE",
"94 731 CURVE SMOOTH",
"94 253 OFFCURVE",
"285 -30 OFFCURVE",
"606 -30 CURVE SMOOTH"
);
}
);
width = 1200;
},
{
anchors = (
{
name = bottom;
position = "{605, 0}";
},
{
name = top;
position = "{597, 1454}";
}
);
background = {
paths = (
{
closed = 1;
nodes = (
"921 -30 OFFCURVE",
"1121 247 OFFCURVE",
"1121 735 CURVE SMOOTH",
"1121 1207 OFFCURVE",
"921 1483 OFFCURVE",
"600 1483 CURVE SMOOTH",
"282 1483 OFFCURVE",
"79 1207 OFFCURVE",
"79 735 CURVE SMOOTH",
"79 247 OFFCURVE",
"282 -30 OFFCURVE",
"600 -30 CURVE SMOOTH"
);
},
{
closed = 1;
nodes = (
"415 177 OFFCURVE",
"306 354 OFFCURVE",
"306 735 CURVE SMOOTH",
"306 1107 OFFCURVE",
"415 1276 OFFCURVE",
"600 1276 CURVE SMOOTH",
"788 1276 OFFCURVE",
"894 1107 OFFCURVE",
"894 735 CURVE SMOOTH",
"894 354 OFFCURVE",
"788 177 OFFCURVE",
"600 177 CURVE SMOOTH"
);
}
);
};
layerId = "09AB1441-CF14-483D-884E-606841830E4D";
paths = (
{
closed = 1;
nodes = (
"791 -29 OFFCURVE",
"944 35 OFFCURVE",
"1075 155 CURVE",
"1077 770 LINE",
"636 770 LINE",
"636 568 LINE",
"874 568 LINE",
"874 260 LINE",
"812 199 OFFCURVE",
"717 178 OFFCURVE",
"630 178 CURVE SMOOTH",
"424 178 OFFCURVE",
"306 391 OFFCURVE",
"306 731 CURVE SMOOTH",
"306 1040 OFFCURVE",
"391 1274 OFFCURVE",
"628 1274 CURVE SMOOTH",
"762 1274 OFFCURVE",
"855 1208 OFFCURVE",
"872 1027 CURVE",
"1089 1027 LINE",
"1053 1379 OFFCURVE",
"870 1481 OFFCURVE",
"645 1481 CURVE SMOOTH",
"280 1481 OFFCURVE",
"80 1191 OFFCURVE",
"80 731 CURVE SMOOTH",
"80 271 OFFCURVE",
"261 -29 OFFCURVE",
"632 -29 CURVE SMOOTH"
);
}
);
width = 1200;
},
{
anchors = (
{
name = bottom;
position = "{662, 0}";
},
{
name = top;
position = "{609, 1454}";
}
);
background = {
paths = (
{
closed = 1;
nodes = (
"956 -30 OFFCURVE",
"1137 248 OFFCURVE",
"1137 735 CURVE SMOOTH",
"1137 1212 OFFCURVE",
"955 1483 OFFCURVE",
"600 1483 CURVE SMOOTH",
"245 1483 OFFCURVE",
"63 1212 OFFCURVE",
"63 735 CURVE SMOOTH",
"63 248 OFFCURVE",
"244 -30 OFFCURVE",
"600 -30 CURVE SMOOTH"
);
},
{
closed = 1;
nodes = (
"458 267 OFFCURVE",
"385 414 OFFCURVE",
"385 735 CURVE SMOOTH",
"385 1048 OFFCURVE",
"458 1186 OFFCURVE",
"600 1186 CURVE SMOOTH",
"742 1186 OFFCURVE",
"815 1048 OFFCURVE",
"815 735 CURVE SMOOTH",
"815 414 OFFCURVE",
"742 267 OFFCURVE",
"600 267 CURVE SMOOTH"
);
}
);
};
layerId = "BF6BC6F6-4B2A-4E9B-9E28-8B62B2F12FD9";
paths = (
{
closed = 1;
nodes = (
"872 -28 OFFCURVE",
"1029 82 OFFCURVE",
"1100 180 CURVE",
"1100 813 LINE",
"616 813 LINE",
"616 539 LINE",
"814 539 LINE",
"814 330 LINE",
"781 302 OFFCURVE",
"726 267 OFFCURVE",
"630 267 CURVE SMOOTH",
"458 267 OFFCURVE",
"385 447 OFFCURVE",
"385 735 CURVE SMOOTH",
"385 1029 OFFCURVE",
"458 1186 OFFCURVE",
"640 1186 CURVE SMOOTH",
"792 1186 OFFCURVE",
"802 1070 OFFCURVE",
"818 990 CURVE",
"1107 990 LINE",
"1102 1311 OFFCURVE",
"935 1483 OFFCURVE",
"638 1481 CURVE SMOOTH",
"281 1479 OFFCURVE",
"63 1209 OFFCURVE",
"63 735 CURVE SMOOTH",
"63 254 OFFCURVE",
"292 -28 OFFCURVE",
"644 -28 CURVE SMOOTH"
);
}
);
width = 1200;
}
);
unicode = 0047;
userData = {
KernOnName = G;
};
},
{
glyphname = H;
lastChange = "2022-02-12 05:29:12 +0000";
layers = (
{
anchors = (
{
name = bottom;
position = "{600, 0}";
},
{
name = center;
position = "{600, 727}";
},
{
name = top;
position = "{600, 1454}";
},
{
name = topleft;
position = "{-39, 1454}";
}
);
layerId = "0D9D1AFE-BAFC-449A-A530-9FCA9CDF2E2E";
paths = (
{
closed = 1;
nodes = (
"1059 0 LINE",
"1059 1454 LINE",
"934 1454 LINE",
"934 0 LINE"
);
},
{
closed = 1;
nodes = (
"266 0 LINE",
"266 1454 LINE",
"141 1454 LINE",
"141 0 LINE"
);
},
{
closed = 1;
nodes = (
"964 686 LINE",
"964 804 LINE",
"238 804 LINE",
"238 686 LINE"
);
}
);
width = 1200;
},
{
anchors = (
{
name = bottom;
position = "{600, 0}";
},
{
name = center;
position = "{600, 727}";
},
{
name = top;
position = "{600, 1454}";
},
{
name = topleft;
position = "{-29, 1454}";
}
);
layerId = "09AB1441-CF14-483D-884E-606841830E4D";
paths = (
{
closed = 1;
nodes = (
"1070 0 LINE",
"1070 1454 LINE",
"846 1454 LINE",
"846 0 LINE"
);
},
{
closed = 1;
nodes = (
"354 0 LINE",
"354 1454 LINE",
"130 1454 LINE",
"130 0 LINE"
);
},
{
closed = 1;
nodes = (
"879 647 LINE",
"882 847 LINE",
"287 847 LINE",
"287 647 LINE"
);
}
);
width = 1200;
},
{
anchors = (
{
name = bottom;
position = "{580, 0}";
},
{
name = center;
position = "{579, 727}";
},
{
name = top;
position = "{580, 1454}";
},
{
name = topleft;
position = "{-28, 1454}";
}
);
layerId = "BF6BC6F6-4B2A-4E9B-9E28-8B62B2F12FD9";
paths = (
{
closed = 1;
nodes = (
"1112 0 LINE",
"1112 1454 LINE",
"797 1454 LINE",
"797 0 LINE"
);
},
{
closed = 1;
nodes = (
"403 0 LINE",
"403 1454 LINE",
"88 1454 LINE",
"88 0 LINE"
);
},
{
closed = 1;
nodes = (
"849 608 LINE",
"849 889 LINE",
"311 889 LINE",
"311 608 LINE"
);
}
);
width = 1200;
}
);
unicode = 0048;
userData = {
KernOnName = H;
};
},
{
glyphname = Hbar;
lastChange = "2022-02-12 05:33:45 +0000";
layers = (
{
background = {
components = (
{
name = H;
}
);
};
layerId = "0D9D1AFE-BAFC-449A-A530-9FCA9CDF2E2E";
paths = (
{
closed = 1;
nodes = (
"1059 0 LINE",
"1059 1454 LINE",
"935 1454 LINE",
"935 0 LINE"
);
},
{
closed = 1;
nodes = (
"265 0 LINE",
"265 1454 LINE",
"141 1454 LINE",
"141 0 LINE"
);
},
{
closed = 1;
nodes = (
"983 581 LINE",
"986 696 LINE",
"216 696 LINE",
"216 581 LINE"
);
},
{
closed = 1;
nodes = (
"1203 979 LINE",
"1206 1092 LINE",
"-6 1092 LINE",
"-6 979 LINE"
);
}
);
width = 1200;
},
{
background = {
components = (
{
name = H;
}
);
};
layerId = "09AB1441-CF14-483D-884E-606841830E4D";
paths = (
{
closed = 1;
nodes = (
"1069 0 LINE",
"1069 1454 LINE",
"846 1454 LINE",
"846 0 LINE"
);
},
{
closed = 1;
nodes = (
"354 0 LINE",
"354 1454 LINE",
"131 1454 LINE",
"131 0 LINE"
);
},
{
closed = 1;
nodes = (
"915 470 LINE",
"918 666 LINE",
"253 666 LINE",
"253 470 LINE"
);
},
{
closed = 1;
nodes = (
"1218 897 LINE",
"1219 1093 LINE",
"-19 1093 LINE",
"-19 897 LINE"
);
}
);
width = 1200;
},
{
background = {
components = (
{
name = H;
}
);
};
layerId = "BF6BC6F6-4B2A-4E9B-9E28-8B62B2F12FD9";
paths = (
{
closed = 1;
nodes = (
"1113 0 LINE",
"1113 1454 LINE",
"797 1454 LINE",
"797 0 LINE"
);
},
{
closed = 1;
nodes = (
"403 0 LINE",
"403 1454 LINE",
"87 1454 LINE",
"87 0 LINE"
);
},
{
closed = 1;
nodes = (
"893 412 LINE",
"896 670 LINE",
"297 670 LINE",
"297 412 LINE"
);
},
{
closed = 1;
nodes = (
"1227 833 LINE",
"1230 1091 LINE",
"-30 1091 LINE",
"-30 833 LINE"
);
}
);
width = 1200;
}
);
unicode = 0126;
},
{
glyphname = I;
lastChange = "2022-02-16 15:37:12 +0000";
layers = (
{
anchors = (
{
name = bottom;
position = "{600, 0}";
},
{
name = ogonek;
position = "{1038, 0}";
},
{
name = top;
position = "{600, 1454}";
},
{
name = topleft;
position = "{20, 1454}";
}
);
layerId = "0D9D1AFE-BAFC-449A-A530-9FCA9CDF2E2E";
paths = (
{
closed = 1;
nodes = (
"1038 0 LINE",
"1038 116 LINE",
"612 116 LINE",
"640 127 OFFCURVE",
"663 161 OFFCURVE",
"663 215 CURVE SMOOTH",
"663 1338 LINE",
"1038 1338 LINE",
"1038 1454 LINE",
"162 1454 LINE",
"162 1338 LINE",
"587 1338 LINE",
"559 1327 OFFCURVE",
"536 1293 OFFCURVE",
"536 1239 CURVE SMOOTH",
"536 116 LINE",
"162 116 LINE",
"162 0 LINE"
);
}
);
width = 1200;
},
{
anchors = (
{
name = bottom;
position = "{600, 0}";
},
{
name = ogonek;
position = "{1045, 0}";
},
{
name = top;
position = "{600, 1454}";
},
{
name = topleft;
position = "{20, 1454}";
}
);
layerId = "09AB1441-CF14-483D-884E-606841830E4D";
paths = (
{
closed = 1;
nodes = (
"1045 0 LINE",
"1045 206 LINE",
"661 206 LINE",
"695 217 OFFCURVE",
"714 247 OFFCURVE",
"714 289 CURVE SMOOTH",
"714 1248 LINE",
"1045 1248 LINE",
"1045 1454 LINE",
"155 1454 LINE",
"155 1248 LINE",
"538 1248 LINE",
"504 1237 OFFCURVE",
"485 1207 OFFCURVE",
"485 1165 CURVE SMOOTH",
"485 206 LINE",
"155 206 LINE",
"155 0 LINE"
);
}
);
width = 1200;
},
{
anchors = (
{
name = bottom;
position = "{600, 0}";
},
{
name = ogonek;
position = "{1065, 0}";
},
{
name = top;
position = "{600, 1454}";
},
{
name = topleft;
position = "{114, 1454}";
}
);
layerId = "BF6BC6F6-4B2A-4E9B-9E28-8B62B2F12FD9";
paths = (
{
closed = 1;
nodes = (
"1065 0 LINE",
"1065 272 LINE",
"669 272 LINE",
"729 282 OFFCURVE",
"758 313 OFFCURVE",
"758 393 CURVE SMOOTH",
"758 1182 LINE",
"1065 1182 LINE",
"1065 1454 LINE",
"135 1454 LINE",
"135 1182 LINE",
"530 1182 LINE",
"470 1172 OFFCURVE",
"441 1141 OFFCURVE",
"441 1061 CURVE SMOOTH",
"441 272 LINE",
"135 272 LINE",
"135 0 LINE"
);
}
);
width = 1200;
}
);
unicode = 0049;
userData = {
KernOnName = I;
};
},
{
glyphname = IJ;
lastChange = "2022-02-12 05:56:24 +0000";
layers = (
{
anchors = (
{
name = bottom;
position = "{600, 0}";
},
{
name = ogonek;
position = "{1061, 0}";
},
{
name = top;
position = "{600, 1454}";
},
{
name = topleft;
position = "{20, 1454}";
}
);
layerId = "0D9D1AFE-BAFC-449A-A530-9FCA9CDF2E2E";
paths = (
{
closed = 1;
nodes = (
"551 562 LINE",
"551 676 LINE",
"315 676 LINE",
"343 687 OFFCURVE",
"366 721 OFFCURVE",
"366 775 CURVE SMOOTH",
"366 1340 LINE",
"551 1340 LINE",
"551 1454 LINE",
"55 1454 LINE",
"55 1340 LINE",
"290 1340 LINE",
"262 1329 OFFCURVE",
"239 1295 OFFCURVE",
"239 1241 CURVE SMOOTH",
"239 676 LINE",
"55 676 LINE",
"55 562 LINE"
);
},
{
closed = 1;
nodes = (
"918 -30 OFFCURVE",
"1089 113 OFFCURVE",
"1089 461 CURVE SMOOTH",
"1089 1454 LINE",
"962 1454 LINE",
"962 484 LINE SMOOTH",
"962 179 OFFCURVE",
"825 89 OFFCURVE",
"659 89 CURVE SMOOTH",
"462 89 OFFCURVE",
"358 220 OFFCURVE",
"350 395 CURVE",
"223 395 LINE",
"230 138 OFFCURVE",
"384 -30 OFFCURVE",
"647 -30 CURVE SMOOTH"
);
}
);
width = 1200;
},
{
anchors = (
{
name = bottom;
position = "{600, 0}";
},
{
name = ogonek;
position = "{1059, 0}";
},
{
name = top;
position = "{600, 1454}";
},
{
name = topleft;
position = "{20, 1454}";
}
);
layerId = "09AB1441-CF14-483D-884E-606841830E4D";
paths = (
{
closed = 1;
nodes = (
"655 515 LINE",
"655 721 LINE",
"411 721 LINE",
"445 732 OFFCURVE",
"464 762 OFFCURVE",
"464 804 CURVE SMOOTH",
"464 1248 LINE",
"665 1248 LINE",
"665 1454 LINE",
"45 1454 LINE",
"45 1248 LINE",
"288 1248 LINE",
"254 1237 OFFCURVE",
"235 1207 OFFCURVE",
"235 1165 CURVE SMOOTH",
"235 721 LINE",
"45 721 LINE",
"45 515 LINE"
);
},
{
closed = 1;
nodes = (
"962 -30 OFFCURVE",
"1120 113 OFFCURVE",
"1120 461 CURVE SMOOTH",
"1120 1454 LINE",
"886 1454 LINE",
"886 467 LINE SMOOTH",
"886 206 OFFCURVE",
"803 176 OFFCURVE",
"662 176 CURVE SMOOTH",
"532 176 OFFCURVE",
"473 242 OFFCURVE",
"450 395 CURVE",
"234 395 LINE",
"241 96 OFFCURVE",
"408 -30 OFFCURVE",
"666 -30 CURVE SMOOTH"
);
}
);
width = 1200;
},
{
anchors = (
{
name = bottom;
position = "{600, 0}";
},
{
name = ogonek;
position = "{1085, 0}";
},
{
name = top;
position = "{600, 1454}";
},
{
name = topleft;
position = "{114, 1454}";
}
);
layerId = "BF6BC6F6-4B2A-4E9B-9E28-8B62B2F12FD9";
paths = (
{
closed = 1;
nodes = (
"635 580 LINE",
"635 862 LINE",
"399 862 LINE",
"459 872 OFFCURVE",
"488 903 OFFCURVE",
"488 983 CURVE SMOOTH",
"488 1172 LINE",
"635 1172 LINE",
"635 1454 LINE",
"25 1454 LINE",
"25 1172 LINE",
"270 1172 LINE",
"210 1162 OFFCURVE",
"181 1131 OFFCURVE",
"181 1051 CURVE SMOOTH",
"181 862 LINE",
"25 862 LINE",
"25 580 LINE"
);
},
{
closed = 1;
nodes = (
"950 -30 OFFCURVE",
"1109 142 OFFCURVE",
"1109 497 CURVE SMOOTH",
"1109 1454 LINE",
"795 1454 LINE",
"795 477 LINE SMOOTH",
"795 304 OFFCURVE",
"737 256 OFFCURVE",
"613 256 CURVE SMOOTH",
"475 256 OFFCURVE",
"423 312 OFFCURVE",
"424 485 CURVE",
"112 485 LINE",
"119 127 OFFCURVE",
"309 -30 OFFCURVE",
"619 -30 CURVE SMOOTH"
);
}
);
width = 1200;
}
);
unicode = 0132;
},
{
glyphname = J;
lastChange = "2022-02-12 05:29:56 +0000";
layers = (
{
anchors = (
{
name = bottom;
position = "{551, 0}";
},
{
name = top;
position = "{963, 1454}";
}
);
background = {
paths = (
{
closed = 1;
nodes = (
"850 -30 OFFCURVE",
"1050 103 OFFCURVE",
"1050 531 CURVE SMOOTH",
"1050 1454 LINE",
"816 1454 LINE",
"816 501 LINE SMOOTH",
"816 220 OFFCURVE",
"673 176 OFFCURVE",
"552 176 CURVE SMOOTH",
"392 176 OFFCURVE",
"269 245 OFFCURVE",
"270 515 CURVE",
"54 515 LINE",
"11 136 OFFCURVE",
"246 -30 OFFCURVE",
"554 -30 CURVE SMOOTH"
);
}
);
};
layerId = "0D9D1AFE-BAFC-449A-A530-9FCA9CDF2E2E";
paths = (
{
closed = 1;
nodes = (
"807 -30 OFFCURVE",
"1025 113 OFFCURVE",
"1025 501 CURVE SMOOTH",
"1025 1454 LINE",
"898 1454 LINE",
"898 521 LINE SMOOTH",
"898 213 OFFCURVE",
"773 87 OFFCURVE",
"545 87 CURVE SMOOTH",
"373 87 OFFCURVE",
"163 200 OFFCURVE",
"217 515 CURVE",
"89 515 LINE",
"36 138 OFFCURVE",
"283 -30 OFFCURVE",
"546 -30 CURVE SMOOTH"
);
}
);
width = 1200;
},
{
anchors = (
{
name = bottom;
position = "{560, 0}";
},
{
name = top;
position = "{931, 1454}";
}
);
layerId = "09AB1441-CF14-483D-884E-606841830E4D";
paths = (
{
closed = 1;
nodes = (
"850 -30 OFFCURVE",
"1050 103 OFFCURVE",
"1050 531 CURVE SMOOTH",
"1050 1454 LINE",
"818 1454 LINE",
"818 501 LINE SMOOTH",
"818 220 OFFCURVE",
"683 176 OFFCURVE",
"552 176 CURVE SMOOTH",
"392 176 OFFCURVE",
"269 245 OFFCURVE",
"270 515 CURVE",
"54 515 LINE",
"11 136 OFFCURVE",
"246 -30 OFFCURVE",
"554 -30 CURVE SMOOTH"
);
}
);
width = 1200;
},
{
anchors = (
{
name = bottom;
position = "{564, 0}";
},
{
name = top;
position = "{894, 1454}";
}
);
background = {
paths = (
{
closed = 1;
nodes = (
"850 -30 OFFCURVE",
"1050 103 OFFCURVE",
"1050 531 CURVE SMOOTH",
"1050 1454 LINE",
"818 1454 LINE",
"818 501 LINE SMOOTH",
"818 220 OFFCURVE",
"683 176 OFFCURVE",
"552 176 CURVE SMOOTH",
"392 176 OFFCURVE",
"269 245 OFFCURVE",
"270 515 CURVE",
"54 515 LINE",
"11 136 OFFCURVE",
"246 -30 OFFCURVE",
"554 -30 CURVE SMOOTH"
);
}
);
};
layerId = "BF6BC6F6-4B2A-4E9B-9E28-8B62B2F12FD9";
paths = (
{
closed = 1;
nodes = (
"901 -30 OFFCURVE",
"1080 142 OFFCURVE",
"1080 527 CURVE SMOOTH",
"1080 1454 LINE",
"756 1454 LINE",
"756 507 LINE SMOOTH",
"756 334 OFFCURVE",
"698 256 OFFCURVE",
"554 256 CURVE SMOOTH",
"436 256 OFFCURVE",
"350 312 OFFCURVE",
"351 555 CURVE",
"33 555 LINE",
"40 127 OFFCURVE",
"240 -30 OFFCURVE",
"560 -30 CURVE SMOOTH"
);
}
);
width = 1200;
}
);
unicode = 004A;
userData = {
KernOnName = J;
};
},
{
glyphname = K;
lastChange = "2022-02-12 05:29:56 +0000";
layers = (
{
anchors = (
{
name = bottom;
position = "{646, 0}";
},
{
name = top;
position = "{595, 1454}";
}
);
background = {
paths = (
{
closed = 1;
nodes = (
"1059 0 LINE",
"1059 1454 LINE",
"934 1454 LINE",
"934 0 LINE"
);
},
{
closed = 1;
nodes = (
"266 0 LINE",
"266 1454 LINE",
"141 1454 LINE",
"141 0 LINE"
);
},
{
closed = 1;
nodes = (
"964 686 LINE",
"964 804 LINE",
"238 804 LINE",
"238 686 LINE"
);
}
);
};
layerId = "0D9D1AFE-BAFC-449A-A530-9FCA9CDF2E2E";
paths = (
{
closed = 1;
nodes = (
"561 742 LINE",
"610 790 LINE",
"1128 1454 LINE",
"974 1454 LINE",
"540 891 LINE",
"257 537 LINE",
"294 423 LINE"
);
},
{
closed = 1;
nodes = (
"297 0 LINE",
"297 1454 LINE",
"172 1454 LINE",
"172 0 LINE"
);
},
{
closed = 1;
nodes = (
"1158 0 LINE",
"600 865 LINE",
"513 780 LINE",
"1014 0 LINE"
);
}
);
width = 1200;
},
{
anchors = (
{
name = bottom;
position = "{628, 0}";
},
{
name = top;
position = "{599, 1454}";
}
);
layerId = "09AB1441-CF14-483D-884E-606841830E4D";
paths = (
{
closed = 1;
nodes = (
"646 725 LINE",
"707 783 LINE",
"1186 1454 LINE",
"921 1454 LINE",
"613 1000 LINE",
"353 629 LINE",
"382 398 LINE"
);
},
{
closed = 1;
nodes = (
"389 0 LINE",
"389 1454 LINE",
"167 1454 LINE",
"167 0 LINE"
);
},
{
closed = 1;
nodes = (
"1211 0 LINE",
"714 889 LINE",
"533 782 LINE",
"965 0 LINE"
);
}
);
width = 1200;
},
{
anchors = (
{
name = bottom;
position = "{631, 0}";
},
{
name = top;
position = "{617, 1454}";
}
);
layerId = "BF6BC6F6-4B2A-4E9B-9E28-8B62B2F12FD9";
paths = (
{
closed = 1;
nodes = (
"633 669 LINE",
"743 795 LINE",
"1193 1454 LINE",
"831 1454 LINE",
"547 982 LINE",
"383 724 LINE",
"381 328 LINE"
);
},
{
closed = 1;
nodes = (
"417 0 LINE",
"417 1454 LINE",
"102 1454 LINE",
"102 0 LINE"
);
},
{
closed = 1;
nodes = (
"1221 0 LINE",
"708 920 LINE",
"491 736 LINE",
"860 0 LINE"
);
}
);
width = 1200;
}
);
unicode = 004B;
userData = {
KernOnName = K;
};
},
{
glyphname = L;
lastChange = "2022-02-12 05:29:56 +0000";
layers = (
{
anchors = (
{
name = bottom;
position = "{614, 0}";
},
{
name = center;
position = "{218, 774}";
},
{
name = top;
position = "{218, 1454}";
},
{
name = topright;
position = "{509, 1091}";
}
);
layerId = "0D9D1AFE-BAFC-449A-A530-9FCA9CDF2E2E";
paths = (
{
closed = 1;
nodes = (
"1077 0 LINE",
"1077 117 LINE",
"212 117 LINE",
"297 58 LINE",
"297 1454 LINE",
"171 1454 LINE",
"171 0 LINE"
);
}
);
width = 1200;
},
{
anchors = (
{
name = bottom;
position = "{598, 0}";
},
{
name = center;
position = "{260, 774}";
},
{
name = top;
position = "{260, 1454}";
},
{
name = topright;
position = "{541, 1091}";
}
);
layerId = "09AB1441-CF14-483D-884E-606841830E4D";
paths = (
{
closed = 1;
nodes = (
"1061 0 LINE",
"1061 208 LINE",
"282 208 LINE",
"388 98 LINE",
"388 1454 LINE",
"163 1454 LINE",
"163 0 LINE"
);
}
);
width = 1200;
},
{
anchors = (
{
name = bottom;
position = "{639, 0}";
},
{
name = center;
position = "{349, 774}";
},
{
name = top;
position = "{350, 1454}";
},
{
name = topright;
position = "{667, 1091}";
}
);
layerId = "BF6BC6F6-4B2A-4E9B-9E28-8B62B2F12FD9";
paths = (
{
closed = 1;
nodes = (
"1094 0 LINE",
"1094 281 LINE",
"340 281 LINE",
"533 98 LINE",
"533 1454 LINE",
"210 1454 LINE",
"210 0 LINE"
);
}
);
width = 1200;
}
);
unicode = 004C;
userData = {
KernOnName = L;
};
},
{
glyphname = M;
lastChange = "2022-02-12 05:33:45 +0000";
layers = (
{
anchors = (
{
name = bottom;
position = "{601, 0}";
},
{
name = top;
position = "{601, 1454}";
}
);
background = {
paths = (
{
closed = 1;
nodes = (
"277 0 LINE",
"291 412 LINE",
"277 1274 LINE",
"293 1274 LINE",
"366 954 LINE",
"531 370 LINE",
"675 370 LINE",
"832 954 LINE",
"905 1274 LINE",
"921 1274 LINE",
"910 412 LINE",
"923 0 LINE",
"1122 0 LINE",
"1095 1454 LINE",
"782 1454 LINE",
"651 876 LINE",
"603 633 LINE",
"599 633 LINE",
"552 876 LINE",
"417 1454 LINE",
"105 1454 LINE",
"78 0 LINE"
);
}
);
};
layerId = "0D9D1AFE-BAFC-449A-A530-9FCA9CDF2E2E";
paths = (
{
closed = 1;
nodes = (
"221 0 LINE",
"241 849 LINE",
"243 1364 LINE",
"249 1364 LINE",
"352 1016 LINE",
"567 416 LINE",
"642 416 LINE",
"848 1016 LINE",
"952 1364 LINE",
"957 1364 LINE",
"959 849 LINE",
"979 0 LINE",
"1100 0 LINE",
"1064 1454 LINE",
"868 1454 LINE",
"679 842 LINE",
"604 578 LINE",
"601 578 LINE",
"526 842 LINE",
"332 1454 LINE",
"136 1454 LINE",
"100 0 LINE"
);
}
);
width = 1200;
},
{
anchors = (
{
name = bottom;
position = "{601, 0}";
},
{
name = top;
position = "{601, 1454}";
}
);
layerId = "09AB1441-CF14-483D-884E-606841830E4D";
paths = (
{
closed = 1;
nodes = (
"277 0 LINE",
"291 412 LINE",
"277 1274 LINE",
"293 1274 LINE",
"366 954 LINE",
"531 370 LINE",
"675 370 LINE",
"832 954 LINE",
"905 1274 LINE",
"921 1274 LINE",
"910 412 LINE",
"923 0 LINE",
"1122 0 LINE",
"1095 1454 LINE",
"782 1454 LINE",
"648 876 LINE",
"603 633 LINE",
"599 633 LINE",
"555 876 LINE",
"417 1454 LINE",
"105 1454 LINE",
"78 0 LINE"
);
}
);
width = 1200;
},
{
anchors = (
{
name = bottom;
position = "{600, 0}";
},
{
name = top;
position = "{600, 1454}";
}
);
background = {
paths = (
{
closed = 1;
nodes = (
"277 0 LINE",
"291 412 LINE",
"277 1274 LINE",
"293 1274 LINE",
"366 954 LINE",
"531 370 LINE",
"675 370 LINE",
"832 954 LINE",
"905 1274 LINE",
"921 1274 LINE",
"910 412 LINE",
"923 0 LINE",
"1122 0 LINE",
"1095 1454 LINE",
"782 1454 LINE",
"651 876 LINE",
"603 633 LINE",
"599 633 LINE",
"552 876 LINE",
"417 1454 LINE",
"105 1454 LINE",
"78 0 LINE"
);
}
);
};
layerId = "BF6BC6F6-4B2A-4E9B-9E28-8B62B2F12FD9";
paths = (
{
closed = 1;
nodes = (
"294 0 LINE",
"294 735 LINE",
"284 1265 LINE",
"302 1265 LINE",
"378 891 LINE",
"471 368 LINE",
"725 368 LINE",
"821 891 LINE",
"898 1265 LINE",
"915 1265 LINE",
"906 735 LINE",
"906 0 LINE",
"1171 0 LINE",
"1131 1454 LINE",
"709 1454 LINE",
"612 821 LINE",
"604 680 LINE",
"597 680 LINE",
"586 821 LINE",
"489 1454 LINE",
"69 1454 LINE",
"29 0 LINE"
);
}
);
width = 1200;
}
);
unicode = 004D;
userData = {
KernOnName = M;
};
},
{
glyphname = N;
lastChange = "2022-02-12 05:29:56 +0000";
layers = (
{
anchors = (
{
name = bottom;
position = "{574, 0}";
},
{
name = top;
position = "{601, 1454}";
}
);
layerId = "0D9D1AFE-BAFC-449A-A530-9FCA9CDF2E2E";
paths = (
{
closed = 1;
nodes = (
"262 0 LINE",
"262 950 LINE",
"244 1375 LINE",
"252 1375 LINE",
"440 950 LINE",
"866 0 LINE",
"1059 0 LINE",
"1059 1454 LINE",
"938 1454 LINE",
"938 502 LINE",
"956 79 LINE",
"951 79 LINE",
"761 502 LINE",
"334 1454 LINE",
"141 1454 LINE",
"141 0 LINE"
);
}
);
width = 1200;
},
{
anchors = (
{
name = bottom;
position = "{612, 0}";
},
{
name = top;
position = "{598, 1454}";
}
);
layerId = "09AB1441-CF14-483D-884E-606841830E4D";
paths = (
{
closed = 1;
nodes = (
"346 0 LINE",
"346 849 LINE",
"318 1174 LINE",
"326 1174 LINE",
"441 873 LINE",
"804 0 LINE",
"1070 0 LINE",
"1070 1454 LINE",
"854 1454 LINE",
"854 582 LINE",
"889 266 LINE",
"881 266 LINE",
"763 572 LINE",
"396 1454 LINE",
"130 1454 LINE",
"130 0 LINE"
);
}
);
width = 1200;
},
{
anchors = (
{
name = bottom;
position = "{600, 0}";
},
{
name = top;
position = "{593, 1454}";
}
);
layerId = "BF6BC6F6-4B2A-4E9B-9E28-8B62B2F12FD9";
paths = (
{
closed = 1;
nodes = (
"386 0 LINE",
"386 649 LINE",
"328 1141 LINE",
"337 1141 LINE",
"441 804 LINE",
"708 0 LINE",
"1110 0 LINE",
"1110 1454 LINE",
"814 1454 LINE",
"814 789 LINE",
"872 286 LINE",
"866 286 LINE",
"757 650 LINE",
"488 1454 LINE",
"90 1454 LINE",
"90 0 LINE"
);
}
);
width = 1200;
}
);
unicode = 004E;
userData = {
KernOnName = N;
};
},
{
glyphname = Eng;
lastChange = "2022-02-12 05:33:45 +0000";
layers = (
{
background = {
components = (
{
name = N;
}
);
};
layerId = "0D9D1AFE-BAFC-449A-A530-9FCA9CDF2E2E";
paths = (
{
closed = 1;
nodes = (
"917 -454 OFFCURVE",
"1059 -288 OFFCURVE",
"1059 0 CURVE SMOOTH",
"1060 1454 LINE",
"938 1454 LINE",
"938 502 LINE",
"960 58 LINE",
"956 58 LINE",
"761 502 LINE",
"335 1454 LINE",
"141 1454 LINE",
"141 0 LINE",
"262 0 LINE",
"263 949 LINE",
"244 1375 LINE",
"253 1375 LINE",
"440 949 LINE",
"868 -4 LINE",
"956 -129 OFFCURVE",
"862 -335 OFFCURVE",
"692 -335 CURVE SMOOTH",
"667 -335 OFFCURVE",
"640 -332 OFFCURVE",
"617 -327 CURVE",
"617 -450 LINE",
"639 -453 OFFCURVE",
"660 -454 OFFCURVE",
"683 -454 CURVE SMOOTH"
);
}
);
width = 1200;
},
{
background = {
components = (
{
name = N;
}
);
};
layerId = "09AB1441-CF14-483D-884E-606841830E4D";
paths = (
{
closed = 1;
nodes = (
"933 -465 OFFCURVE",
"1067 -327 OFFCURVE",
"1073 0 CURVE",
"1073 1454 LINE",
"856 1454 LINE",
"856 582 LINE",
"891 266 LINE",
"881 266 LINE",
"765 572 LINE",
"396 1454 LINE",
"129 1454 LINE",
"129 0 LINE",
"347 0 LINE",
"347 849 LINE",
"320 1174 LINE",
"329 1174 LINE",
"439 873 LINE",
"808 -5 LINE",
"856 -159 OFFCURVE",
"780 -259 OFFCURVE",
"669 -259 CURVE SMOOTH",
"639 -259 OFFCURVE",
"600 -254 OFFCURVE",
"581 -250 CURVE",
"581 -456 LINE",
"602 -460 OFFCURVE",
"644 -465 OFFCURVE",
"674 -465 CURVE SMOOTH"
);
}
);
width = 1200;
},
{
background = {
components = (
{
name = N;
}
);
};
layerId = "BF6BC6F6-4B2A-4E9B-9E28-8B62B2F12FD9";
paths = (
{
closed = 1;
nodes = (
"968 -513 OFFCURVE",
"1109 -334 OFFCURVE",
"1109 0 CURVE SMOOTH",
"1109 1454 LINE",
"814 1454 LINE",
"814 722 LINE",
"900 178 LINE",
"893 178 LINE",
"758 648 LINE",
"487 1454 LINE",
"90 1454 LINE",
"90 0 LINE",
"385 0 LINE",
"385 648 LINE",
"328 1141 LINE",
"337 1141 LINE",
"442 800 LINE",
"707 0 LINE",
"738 -99 OFFCURVE",
"758 -253 OFFCURVE",
"656 -253 CURVE SMOOTH",
"604 -253 OFFCURVE",
"577 -248 OFFCURVE",
"553 -244 CURVE",
"553 -501 LINE",
"581 -505 OFFCURVE",
"612 -513 OFFCURVE",
"662 -513 CURVE SMOOTH"
);
}
);
width = 1200;
}
);
unicode = 014A;
},
{
glyphname = O;
lastChange = "2022-02-12 05:29:12 +0000";
layers = (
{
anchors = (
{
name = bottom;
position = "{601, 0}";
},
{
name = center;
position = "{601, 727}";
},
{
name = ogonek;
position = "{1103, 10}";
},
{
name = tail;
position = "{649, 0}";
},
{
name = top;
position = "{601, 1454}";
},
{
name = topleft;
position = "{-49, 1454}";
},
{
name = topright;
position = "{1250, 1454}";
}
);
layerId = "0D9D1AFE-BAFC-449A-A530-9FCA9CDF2E2E";
paths = (
{
closed = 1;
nodes = (
"912 -30 OFFCURVE",
"1108 253 OFFCURVE",
"1108 735 CURVE SMOOTH",
"1108 1219 OFFCURVE",
"912 1483 OFFCURVE",
"600 1483 CURVE SMOOTH",
"286 1483 OFFCURVE",
"92 1219 OFFCURVE",
"92 735 CURVE SMOOTH",
"92 253 OFFCURVE",
"286 -30 OFFCURVE",
"600 -30 CURVE SMOOTH"
);
},
{
closed = 1;
nodes = (
"367 90 OFFCURVE",
"222 326 OFFCURVE",
"222 735 CURVE SMOOTH",
"222 1142 OFFCURVE",
"368 1363 OFFCURVE",
"600 1363 CURVE SMOOTH",
"831 1363 OFFCURVE",
"978 1142 OFFCURVE",
"978 735 CURVE SMOOTH",
"978 326 OFFCURVE",
"831 90 OFFCURVE",
"600 90 CURVE SMOOTH"
);
}
);
width = 1200;
},
{
anchors = (
{
name = bottom;
position = "{600, 0}";
},
{
name = center;
position = "{600, 727}";
},
{
name = ogonek;
position = "{758, 10}";
},
{
name = tail;
position = "{649, 0}";
},
{
name = top;
position = "{600, 1454}";
},
{
name = topleft;
position = "{-51, 1454}";
},
{
name = topright;
position = "{1251, 1454}";
}
);
layerId = "09AB1441-CF14-483D-884E-606841830E4D";
paths = (
{
closed = 1;
nodes = (
"921 -30 OFFCURVE",
"1121 237 OFFCURVE",
"1121 735 CURVE SMOOTH",
"1121 1217 OFFCURVE",
"921 1483 OFFCURVE",
"600 1483 CURVE SMOOTH",
"282 1483 OFFCURVE",
"79 1217 OFFCURVE",
"79 735 CURVE SMOOTH",
"79 237 OFFCURVE",
"282 -30 OFFCURVE",
"600 -30 CURVE SMOOTH"
);
},
{
closed = 1;
nodes = (
"415 177 OFFCURVE",
"306 334 OFFCURVE",
"306 735 CURVE SMOOTH",
"306 1127 OFFCURVE",
"415 1276 OFFCURVE",
"600 1276 CURVE SMOOTH",
"788 1276 OFFCURVE",
"894 1127 OFFCURVE",
"894 735 CURVE SMOOTH",
"894 334 OFFCURVE",
"788 177 OFFCURVE",
"600 177 CURVE SMOOTH"
);
}
);
width = 1200;
},
{
anchors = (
{
name = bottom;
position = "{601, 0}";
},
{
name = center;
position = "{601, 727}";
},
{
name = ogonek;
position = "{1086, 10}";
},
{
name = tail;
position = "{649, 0}";
},
{
name = top;
position = "{601, 1454}";
},
{
name = topleft;
position = "{-50, 1454}";
},
{
name = topright;
position = "{1251, 1454}";
}
);
layerId = "BF6BC6F6-4B2A-4E9B-9E28-8B62B2F12FD9";
paths = (
{
closed = 1;
nodes = (
"956 -30 OFFCURVE",
"1137 248 OFFCURVE",
"1137 735 CURVE SMOOTH",
"1137 1212 OFFCURVE",
"955 1483 OFFCURVE",
"600 1483 CURVE SMOOTH",
"245 1483 OFFCURVE",
"63 1212 OFFCURVE",
"63 735 CURVE SMOOTH",
"63 248 OFFCURVE",
"244 -30 OFFCURVE",
"600 -30 CURVE SMOOTH"
);
},
{
closed = 1;
nodes = (
"458 262 OFFCURVE",
"385 409 OFFCURVE",
"385 735 CURVE SMOOTH",
"385 1053 OFFCURVE",
"458 1191 OFFCURVE",
"600 1191 CURVE SMOOTH",
"742 1191 OFFCURVE",
"815 1053 OFFCURVE",
"815 735 CURVE SMOOTH",
"815 409 OFFCURVE",
"742 262 OFFCURVE",
"600 262 CURVE SMOOTH"
);
}
);
width = 1200;
}
);
unicode = 004F;
userData = {
KernOnName = O;
};
},
{
glyphname = OE;
lastChange = "2022-02-12 05:33:45 +0000";
layers = (
{
anchors = (
{
name = bottom;
position = "{601, 0}";
},
{
name = center;
position = "{380, 727}";
},
{
name = ogonek;
position = "{653, 10}";
},
{
name = top;
position = "{598, 1454}";
},
{
name = topleft;
position = "{-64, 1454}";
},
{
name = topright;
position = "{825, 1454}";
}
);
layerId = "0D9D1AFE-BAFC-449A-A530-9FCA9CDF2E2E";
paths = (
{
closed = 1;
nodes = (
"561 -20 OFFCURVE",
"692 206 OFFCURVE",
"669 458 CURVE",
"656 449 LINE",
"658 0 LINE",
"1182 0 LINE",
"1182 119 LINE",
"756 119 LINE",
"757 702 LINE",
"1144 702 LINE",
"1144 818 LINE",
"756 818 LINE",
"756 1336 LINE",
"1173 1336 LINE",
"1173 1454 LINE",
"658 1454 LINE",
"656 981 LINE",
"675 980 LINE",
"698 1258 OFFCURVE",
"571 1483 OFFCURVE",
"393 1483 CURVE SMOOTH",
"160 1483 OFFCURVE",
"34 1178 OFFCURVE",
"34 734 CURVE SMOOTH",
"34 300 OFFCURVE",
"167 -20 OFFCURVE",
"393 -20 CURVE SMOOTH"
);
},
{
closed = 1;
nodes = (
"222 99 OFFCURVE",
"138 350 OFFCURVE",
"138 730 CURVE SMOOTH",
"138 1112 OFFCURVE",
"222 1364 OFFCURVE",
"399 1364 CURVE SMOOTH",
"555 1364 OFFCURVE",
"657 1112 OFFCURVE",
"657 729 CURVE SMOOTH",
"657 346 OFFCURVE",
"556 99 OFFCURVE",
"399 99 CURVE SMOOTH"
);
}
);
width = 1200;
},
{
anchors = (
{
name = bottom;
position = "{602, 0}";
},
{
name = center;
position = "{405, 727}";
},
{
name = ogonek;
position = "{646, 10}";
},
{
name = top;
position = "{599, 1454}";
},
{
name = topleft;
position = "{-47, 1454}";
},
{
name = topright;
position = "{857, 1454}";
}
);
layerId = "09AB1441-CF14-483D-884E-606841830E4D";
paths = (
{
closed = 1;
nodes = (
"536 -20 OFFCURVE",
"662 106 OFFCURVE",
"644 385 CURVE",
"615 385 LINE",
"618 0 LINE",
"1163 0 LINE",
"1163 212 LINE",
"788 212 LINE",
"788 651 LINE",
"1118 651 LINE",
"1118 858 LINE",
"788 858 LINE",
"788 1244 LINE",
"1154 1244 LINE",
"1154 1454 LINE",
"618 1454 LINE",
"615 1026 LINE",
"651 1026 LINE",
"667 1245 OFFCURVE",
"590 1483 OFFCURVE",
"400 1483 CURVE SMOOTH",
"164 1483 OFFCURVE",
"41 1217 OFFCURVE",
"41 738 CURVE SMOOTH",
"41 253 OFFCURVE",
"178 -20 OFFCURVE",
"399 -20 CURVE SMOOTH"
);
},
{
closed = 1;
nodes = (
"282 187 OFFCURVE",
"224 360 OFFCURVE",
"224 731 CURVE SMOOTH",
"224 1098 OFFCURVE",
"272 1276 OFFCURVE",
"421 1276 CURVE SMOOTH",
"539 1276 OFFCURVE",
"615 1098 OFFCURVE",
"615 731 CURVE SMOOTH",
"615 359 OFFCURVE",
"534 187 OFFCURVE",
"421 187 CURVE SMOOTH"
);
}
);
width = 1200;
},
{
anchors = (
{
name = bottom;
position = "{593, -4}";
},
{
name = center;
position = "{401, 727}";
},
{
name = ogonek;
position = "{835, 10}";
},
{
name = top;
position = "{601, 1454}";
},
{
name = topleft;
position = "{-91, 1454}";
},
{
name = topright;
position = "{895, 1454}";
}
);
layerId = "BF6BC6F6-4B2A-4E9B-9E28-8B62B2F12FD9";
paths = (
{
closed = 1;
nodes = (
"518 -20 OFFCURVE",
"607 91 OFFCURVE",
"617 267 CURVE",
"583 306 LINE",
"583 0 LINE",
"1191 0 LINE",
"1191 279 LINE",
"806 279 LINE",
"806 611 LINE",
"1130 611 LINE",
"1130 877 LINE",
"806 877 LINE",
"806 1177 LINE",
"1177 1177 LINE",
"1177 1454 LINE",
"583 1454 LINE",
"583 1169 LINE",
"638 1198 LINE",
"603 1369 OFFCURVE",
"523 1483 OFFCURVE",
"382 1483 CURVE SMOOTH",
"113 1483 OFFCURVE",
"0 1184 OFFCURVE",
"0 739 CURVE SMOOTH",
"0 293 OFFCURVE",
"113 -20 OFFCURVE",
"382 -20 CURVE SMOOTH"
);
},
{
closed = 1;
nodes = (
"282 258 OFFCURVE",
"252 438 OFFCURVE",
"252 727 CURVE SMOOTH",
"252 1062 OFFCURVE",
"282 1185 OFFCURVE",
"411 1185 CURVE SMOOTH",
"535 1185 OFFCURVE",
"567 1028 OFFCURVE",
"567 740 CURVE SMOOTH",
"567 402 OFFCURVE",
"523 258 OFFCURVE",
"410 258 CURVE SMOOTH"
);
}
);
width = 1200;
}
);
unicode = 0152;
},
{
glyphname = P;
lastChange = "2022-02-12 05:33:45 +0000";
layers = (
{
anchors = (
{
name = bottom;
position = "{595, 0}";
},
{
name = top;
position = "{595, 1454}";
}
);
background = {
components = (
{
name = B;
}
);
};
layerId = "0D9D1AFE-BAFC-449A-A530-9FCA9CDF2E2E";
paths = (
{
closed = 1;
nodes = (
"620 574 LINE SMOOTH",
"964 574 OFFCURVE",
"1124 761 OFFCURVE",
"1124 1048 CURVE SMOOTH",
"1124 1296 OFFCURVE",
"980 1454 OFFCURVE",
"620 1454 CURVE SMOOTH",
"531 1454 OFFCURVE",
"297 1454 OFFCURVE",
"203 1454 CURVE",
"290 1336 LINE",
"636 1336 LINE SMOOTH",
"907 1336 OFFCURVE",
"989 1206 OFFCURVE",
"989 1027 CURVE SMOOTH",
"989 837 OFFCURVE",
"905 691 OFFCURVE",
"631 691 CURVE SMOOTH",
"296 691 LINE",
"225 656 LINE",
"295 627 LINE",
"295 600 OFFCURVE",
"322 574 OFFCURVE",
"375 574 CURVE"
);
},
{
closed = 1;
nodes = (
"296 0 LINE",
"296 1454 LINE",
"171 1454 LINE",
"171 0 LINE"
);
}
);
width = 1200;
},
{
anchors = (
{
name = bottom;
position = "{598, 0}";
},
{
name = top;
position = "{598, 1454}";
}
);
layerId = "09AB1441-CF14-483D-884E-606841830E4D";
paths = (
{
closed = 1;
nodes = (
"661 498 LINE SMOOTH",
"1034 498 OFFCURVE",
"1158 742 OFFCURVE",
"1158 987 CURVE SMOOTH",
"1158 1317 OFFCURVE",
"981 1454 OFFCURVE",
"645 1454 CURVE SMOOTH",
"568 1454 OFFCURVE",
"375 1454 OFFCURVE",
"282 1454 CURVE",
"368 1245 LINE",
"645 1245 LINE SMOOTH",
"821 1245 OFFCURVE",
"930 1185 OFFCURVE",
"930 983 CURVE SMOOTH",
"930 791 OFFCURVE",
"840 702 OFFCURVE",
"663 702 CURVE SMOOTH",
"374 702 LINE",
"304 646 LINE",
"374 576 LINE",
"374 526 OFFCURVE",
"406 498 OFFCURVE",
"441 498 CURVE"
);
},
{
closed = 1;
nodes = (
"374 0 LINE",
"374 1454 LINE",
"150 1454 LINE",
"150 0 LINE"
);
}
);
width = 1200;
},
{
anchors = (
{
name = bottom;
position = "{611, 0}";
},
{
name = top;
position = "{611, 1454}";
}
);
layerId = "BF6BC6F6-4B2A-4E9B-9E28-8B62B2F12FD9";
paths = (
{
closed = 1;
nodes = (
"643 483 LINE SMOOTH",
"1025 483 OFFCURVE",
"1165 723 OFFCURVE",
"1165 992 CURVE SMOOTH",
"1165 1312 OFFCURVE",
"979 1454 OFFCURVE",
"641 1454 CURVE SMOOTH",
"572 1454 OFFCURVE",
"422 1454 OFFCURVE",
"345 1454 CURVE",
"431 1192 LINE",
"605 1192 LINE SMOOTH",
"761 1192 OFFCURVE",
"839 1126 OFFCURVE",
"839 976 CURVE SMOOTH",
"839 810 OFFCURVE",
"769 742 OFFCURVE",
"608 742 CURVE SMOOTH",
"436 742 LINE",
"367 685 LINE",
"436 569 LINE",
"436 518 OFFCURVE",
"470 483 OFFCURVE",
"514 483 CURVE SMOOTH"
);
},
{
closed = 1;
nodes = (
"436 0 LINE",
"436 1454 LINE",
"120 1454 LINE",
"120 0 LINE"
);
}
);
width = 1200;
}
);
unicode = 0050;
userData = {
KernOnName = P;
};
},
{
glyphname = Thorn;
lastChange = "2022-02-12 05:33:45 +0000";
layers = (
{
anchors = (
{
name = bottom;
position = "{595, 0}";
},
{
name = top;
position = "{595, 1454}";
}
);
background = {
components = (
{
name = P;
}
);
};
layerId = "0D9D1AFE-BAFC-449A-A530-9FCA9CDF2E2E";
paths = (
{
closed = 1;
nodes = (
"649 286 LINE SMOOTH",
"934 286 OFFCURVE",
"1124 473 OFFCURVE",
"1124 760 CURVE SMOOTH",
"1124 1018 OFFCURVE",
"950 1166 OFFCURVE",
"649 1166 CURVE SMOOTH",
"571 1166 OFFCURVE",
"297 1166 OFFCURVE",
"203 1166 CURVE",
"290 1048 LINE",
"666 1048 LINE SMOOTH",
"876 1048 OFFCURVE",
"993 928 OFFCURVE",
"993 739 CURVE SMOOTH",
"993 549 OFFCURVE",
"875 404 OFFCURVE",
"682 404 CURVE SMOOTH",
"296 404 LINE",
"225 368 LINE",
"295 339 LINE",
"295 312 OFFCURVE",
"323 286 OFFCURVE",
"375 286 CURVE"
);
},
{
closed = 1;
nodes = (
"296 0 LINE",
"296 1454 LINE",
"171 1454 LINE",
"171 0 LINE"
);
}
);
width = 1200;
},
{
anchors = (
{
name = bottom;
position = "{598, 0}";
},
{
name = top;
position = "{598, 1454}";
}
);
background = {
components = (
{
name = P;
}
);
};
layerId = "09AB1441-CF14-483D-884E-606841830E4D";
paths = (
{
closed = 1;
nodes = (
"660 259 LINE SMOOTH",
"1033 259 OFFCURVE",
"1157 503 OFFCURVE",
"1157 743 CURVE SMOOTH",
"1157 1068 OFFCURVE",
"987 1205 OFFCURVE",
"644 1205 CURVE SMOOTH",
"567 1205 OFFCURVE",
"374 1205 OFFCURVE",
"281 1205 CURVE",
"367 996 LINE",
"625 996 LINE SMOOTH",
"833 996 OFFCURVE",
"929 936 OFFCURVE",
"929 739 CURVE SMOOTH",
"929 552 OFFCURVE",
"852 463 OFFCURVE",
"642 463 CURVE SMOOTH",
"373 463 LINE",
"303 407 LINE",
"372 314 LINE",
"372 286 OFFCURVE",
"399 259 OFFCURVE",
"450 259 CURVE"
);
},
{
closed = 1;
nodes = (
"373 0 LINE",
"373 1454 LINE",
"149 1454 LINE",
"149 0 LINE"
);
}
);
width = 1200;
},
{
anchors = (
{
name = bottom;
position = "{603, 0}";
},
{
name = top;
position = "{603, 1454}";
}
);
background = {
components = (
{
name = P;
}
);
};
layerId = "BF6BC6F6-4B2A-4E9B-9E28-8B62B2F12FD9";
paths = (
{
closed = 1;
nodes = (
"641 250 LINE SMOOTH",
"1026 250 OFFCURVE",
"1165 492 OFFCURVE",
"1165 758 CURVE SMOOTH",
"1165 1078 OFFCURVE",
"982 1220 OFFCURVE",
"637 1220 CURVE SMOOTH",
"561 1220 OFFCURVE",
"427 1220 OFFCURVE",
"347 1220 CURVE",
"431 944 LINE",
"593 944 LINE SMOOTH",
"757 944 OFFCURVE",
"839 894 OFFCURVE",
"839 740 CURVE SMOOTH",
"839 594 OFFCURVE",
"761 525 OFFCURVE",
"596 525 CURVE SMOOTH",
"437 525 LINE",
"368 468 LINE",
"414 384 LINE",
"430 294 OFFCURVE",
"464 250 OFFCURVE",
"553 250 CURVE SMOOTH"
);
},
{
closed = 1;
nodes = (
"437 0 LINE",
"437 1454 LINE",
"121 1454 LINE",
"121 0 LINE"
);
}
);
width = 1200;
}
);
unicode = 00DE;
},
{
glyphname = Q;
lastChange = "2022-02-12 05:33:45 +0000";
layers = (
{
components = (
{
name = O;
},
{
name = Qtail_part.;
transform = "{1, 0, 0, 1, -140, 0}";
}
);
layerId = "0D9D1AFE-BAFC-449A-A530-9FCA9CDF2E2E";
width = 1200;
},
{
components = (
{
name = O;
},
{
name = Qtail_part.;
transform = "{1, 0, 0, 1, -60, 0}";
}
);
layerId = "09AB1441-CF14-483D-884E-606841830E4D";
width = 1200;
},
{
background = {
paths = (
{
closed = 1;
nodes = (
"955 -20 OFFCURVE",
"1217 251 OFFCURVE",
"1217 736 CURVE SMOOTH",
"1217 1216 OFFCURVE",
"952 1483 OFFCURVE",
"600 1483 CURVE SMOOTH",
"240 1483 OFFCURVE",
"-16 1216 OFFCURVE",
"-16 736 CURVE SMOOTH",
"-16 250 OFFCURVE",
"258 -20 OFFCURVE",
"599 -20 CURVE SMOOTH"
);
},
{
closed = 1;
nodes = (
"1139 -316 LINE",
"976 -12 LINE SMOOTH",
"951 35 OFFCURVE",
"906 47 OFFCURVE",
"878 47 CURVE",
"637 47 LINE",
"790 -316 LINE"
);
},
{
closed = 1;
nodes = (
"431 278 OFFCURVE",
"307 428 OFFCURVE",
"307 733 CURVE SMOOTH",
"307 1030 OFFCURVE",
"431 1185 OFFCURVE",
"600 1185 CURVE SMOOTH",
"777 1185 OFFCURVE",
"894 1030 OFFCURVE",
"894 733 CURVE SMOOTH",
"894 428 OFFCURVE",
"777 278 OFFCURVE",
"599 278 CURVE SMOOTH"
);
}
);
};
components = (
{
name = O;
},
{
name = Qtail_part.;
transform = "{1, 0, 0, 1, -8, 0}";
}
);
layerId = "BF6BC6F6-4B2A-4E9B-9E28-8B62B2F12FD9";
width = 1200;
}
);
unicode = 0051;
},
{
glyphname = R;
lastChange = "2022-02-12 05:29:56 +0000";
layers = (
{
anchors = (
{
name = bottom;
position = "{605, 0}";
},
{
name = top;
position = "{543, 1454}";
}
);
background = {
paths = (
{
closed = 1;
nodes = (
"628 0 LINE SMOOTH",
"921 0 OFFCURVE",
"1142 118 OFFCURVE",
"1142 445 CURVE SMOOTH",
"1142 662 OFFCURVE",
"979 771 OFFCURVE",
"818 773 CURVE",
"974 803 OFFCURVE",
"1078 919 OFFCURVE",
"1078 1091 CURVE SMOOTH",
"1078 1296 OFFCURVE",
"943 1454 OFFCURVE",
"612 1454 CURVE SMOOTH",
"144 1454 LINE",
"144 0 LINE"
);
},
{
closed = 1;
nodes = (
"269 704 LINE",
"663 704 LINE SMOOTH",
"862 704 OFFCURVE",
"1012 642 OFFCURVE",
"1012 431 CURVE SMOOTH",
"1012 222 OFFCURVE",
"892 111 OFFCURVE",
"632 111 CURVE SMOOTH",
"269 111 LINE"
);
},
{
closed = 1;
nodes = (
"269 1343 LINE",
"635 1343 LINE SMOOTH",
"855 1343 OFFCURVE",
"949 1236 OFFCURVE",
"948 1084 CURVE SMOOTH",
"947 881 OFFCURVE",
"789 815 OFFCURVE",
"645 815 CURVE SMOOTH",
"269 815 LINE"
);
}
);
};
layerId = "0D9D1AFE-BAFC-449A-A530-9FCA9CDF2E2E";
paths = (
{
closed = 1;
nodes = (
"1138 0 LINE",
"792 595 LINE SMOOTH",
"774 626 OFFCURVE",
"749 654 OFFCURVE",
"710 651 CURVE",
"662 637 LINE",
"985 683 OFFCURVE",
"1037 884 OFFCURVE",
"1037 1087 CURVE SMOOTH",
"1037 1300 OFFCURVE",
"879 1454 OFFCURVE",
"587 1454 CURVE SMOOTH",
"493 1454 OFFCURVE",
"299 1454 OFFCURVE",
"205 1454 CURVE",
"292 1388 LINE",
"292 1336 LINE",
"599 1336 LINE SMOOTH",
"852 1336 OFFCURVE",
"907 1211 OFFCURVE",
"907 1068 CURVE SMOOTH",
"907 915 OFFCURVE",
"832 742 OFFCURVE",
"635 742 CURVE SMOOTH",
"236 742 LINE",
"236 710 LINE",
"206 639 LINE",
"274 624 LINE",
"630 624 LINE",
"988 0 LINE"
);
},
{
closed = 1;
nodes = (
"298 0 LINE",
"298 1454 LINE",
"173 1454 LINE",
"173 0 LINE"
);
}
);
width = 1200;
},
{
anchors = (
{
name = bottom;
position = "{594, 0}";
},
{
name = top;
position = "{545, 1454}";
}
);
background = {
paths = (
{
closed = 1;
nodes = (
"638 0 LINE SMOOTH",
"913 0 OFFCURVE",
"1141 142 OFFCURVE",
"1141 443 CURVE SMOOTH",
"1141 650 OFFCURVE",
"978 755 OFFCURVE",
"827 761 CURVE",
"964 789 OFFCURVE",
"1066 918 OFFCURVE",
"1066 1096 CURVE SMOOTH",
"1066 1295 OFFCURVE",
"954 1454 OFFCURVE",
"587 1454 CURVE SMOOTH",
"143 1454 LINE",
"143 0 LINE"
);
},
{
closed = 1;
nodes = (
"361 655 LINE",
"620 655 LINE SMOOTH",
"770 655 OFFCURVE",
"897 628 OFFCURVE",
"897 429 CURVE SMOOTH",
"897 266 OFFCURVE",
"782 190 OFFCURVE",
"605 190 CURVE SMOOTH",
"361 190 LINE"
);
},
{
closed = 1;
nodes = (
"361 1266 LINE",
"572 1266 LINE SMOOTH",
"780 1266 OFFCURVE",
"835 1203 OFFCURVE",
"834 1074 CURVE SMOOTH",
"833 911 OFFCURVE",
"753 835 OFFCURVE",
"574 835 CURVE SMOOTH",
"361 835 LINE"
);
}
);
};
layerId = "09AB1441-CF14-483D-884E-606841830E4D";
paths = (
{
closed = 1;
nodes = (
"1159 0 LINE",
"856 526 LINE SMOOTH",
"801 621 OFFCURVE",
"772 631 OFFCURVE",
"683 631 CURVE",
"704 601 LINE",
"970 646 OFFCURVE",
"1055 854 OFFCURVE",
"1055 1042 CURVE SMOOTH",
"1055 1329 OFFCURVE",
"891 1454 OFFCURVE",
"549 1454 CURVE SMOOTH",
"475 1454 OFFCURVE",
"373 1454 OFFCURVE",
"282 1454 CURVE",
"365 1308 LINE",
"367 1262 LINE",
"565 1261 LINE SMOOTH",
"738 1260 OFFCURVE",
"825 1200 OFFCURVE",
"825 1023 CURVE SMOOTH",
"825 878 OFFCURVE",
"761 775 OFFCURVE",
"582 775 CURVE SMOOTH",
"312 775 LINE",
"312 743 LINE",
"283 589 LINE",
"349 574 LINE",
"580 574 LINE",
"913 0 LINE"
);
},
{
closed = 1;
nodes = (
"373 0 LINE",
"373 1454 LINE",
"153 1454 LINE",
"153 0 LINE"
);
}
);
width = 1200;
},
{
anchors = (
{
name = bottom;
position = "{615, 0}";
},
{
name = top;
position = "{566, 1454}";
}
);
background = {
paths = (
{
closed = 1;
nodes = (
"615 0 LINE SMOOTH",
"952 0 OFFCURVE",
"1144 163 OFFCURVE",
"1144 444 CURVE SMOOTH",
"1144 655 OFFCURVE",
"1029 767 OFFCURVE",
"812 790 CURVE",
"976 804 OFFCURVE",
"1080 919 OFFCURVE",
"1080 1098 CURVE SMOOTH",
"1080 1309 OFFCURVE",
"938 1454 OFFCURVE",
"620 1454 CURVE SMOOTH",
"140 1454 LINE",
"140 0 LINE"
);
},
{
closed = 1;
nodes = (
"451 637 LINE",
"585 637 LINE SMOOTH",
"691 637 OFFCURVE",
"813 612 OFFCURVE",
"813 453 CURVE SMOOTH",
"813 286 OFFCURVE",
"713 234 OFFCURVE",
"598 234 CURVE SMOOTH",
"451 234 LINE"
);
},
{
closed = 1;
nodes = (
"451 1222 LINE",
"568 1222 LINE SMOOTH",
"685 1222 OFFCURVE",
"778 1176 OFFCURVE",
"778 1048 CURVE SMOOTH",
"778 923 OFFCURVE",
"697 853 OFFCURVE",
"576 853 CURVE SMOOTH",
"451 853 LINE"
);
}
);
};
layerId = "BF6BC6F6-4B2A-4E9B-9E28-8B62B2F12FD9";
paths = (
{
closed = 1;
nodes = (
"1216 0 LINE",
"946 555 LINE SMOOTH",
"912 625 OFFCURVE",
"851 642 OFFCURVE",
"768 642 CURVE",
"726 626 LINE",
"1004 637 OFFCURVE",
"1123 835 OFFCURVE",
"1123 1027 CURVE SMOOTH",
"1123 1313 OFFCURVE",
"934 1454 OFFCURVE",
"661 1454 CURVE SMOOTH",
"532 1454 OFFCURVE",
"456 1454 OFFCURVE",
"382 1454 CURVE",
"394 1334 LINE",
"466 1211 LINE",
"619 1210 LINE SMOOTH",
"712 1209 OFFCURVE",
"816 1186 OFFCURVE",
"816 1040 CURVE SMOOTH",
"816 912 OFFCURVE",
"748 836 OFFCURVE",
"595 836 CURVE SMOOTH",
"411 836 LINE",
"411 804 LINE",
"383 604 LINE",
"449 589 LINE",
"594 589 LINE",
"883 0 LINE"
);
},
{
closed = 1;
nodes = (
"467 0 LINE",
"467 1454 LINE",
"151 1454 LINE",
"151 0 LINE"
);
}
);
width = 1200;
}
);
unicode = 0052;
userData = {
KernOnName = R;
};
},
{
glyphname = S;
lastChange = "2022-02-16 15:38:39 +0000";
layers = (
{
anchors = (
{
name = bottom;
position = "{631, 0}";
},
{
name = top;
position = "{601, 1454}";
}
);
background = {
paths = (
{
closed = 1;
nodes = (
"973 -20 OFFCURVE",
"1113 109 OFFCURVE",
"1113 369 CURVE SMOOTH",
"1113 624 OFFCURVE",
"873 718 OFFCURVE",
"635 788 CURVE SMOOTH",
"382 863 OFFCURVE",
"280 918 OFFCURVE",
"280 1105 CURVE SMOOTH",
"280 1275 OFFCURVE",
"418 1359 OFFCURVE",
"613 1359 CURVE SMOOTH",
"837 1359 OFFCURVE",
"922 1247 OFFCURVE",
"941 1091 CURVE",
"1067 1091 LINE",
"1036 1350 OFFCURVE",
"880 1477 OFFCURVE",
"614 1477 CURVE SMOOTH",
"341 1477 OFFCURVE",
"157 1343 OFFCURVE",
"157 1099 CURVE SMOOTH",
"157 844 OFFCURVE",
"342 743 OFFCURVE",
"587 677 CURVE SMOOTH",
"793 621 OFFCURVE",
"990 547 OFFCURVE",
"990 366 CURVE SMOOTH",
"990 201 OFFCURVE",
"930 98 OFFCURVE",
"603 98 CURVE SMOOTH",
"382 98 OFFCURVE",
"214 199 OFFCURVE",
"215 417 CURVE",
"88 417 LINE",
"88 130 OFFCURVE",
"307 -20 OFFCURVE",
"601 -20 CURVE SMOOTH"
);
}
);
};
layerId = "0D9D1AFE-BAFC-449A-A530-9FCA9CDF2E2E";
paths = (
{
closed = 1;
nodes = (
"920 -20 OFFCURVE",
"1086 119 OFFCURVE",
"1086 359 CURVE SMOOTH",
"1086 627 OFFCURVE",
"846 704 OFFCURVE",
"627 785 CURVE SMOOTH",
"395 871 OFFCURVE",
"280 939 OFFCURVE",
"280 1105 CURVE SMOOTH",
"280 1255 OFFCURVE",
"395 1363 OFFCURVE",
"605 1363 CURVE SMOOTH",
"845 1363 OFFCURVE",
"909 1223 OFFCURVE",
"925 1091 CURVE",
"1051 1091 LINE",
"1020 1350 OFFCURVE",
"859 1477 OFFCURVE",
"606 1477 CURVE SMOOTH",
"347 1477 OFFCURVE",
"157 1343 OFFCURVE",
"157 1099 CURVE SMOOTH",
"157 864 OFFCURVE",
"355 758 OFFCURVE",
"579 679 CURVE SMOOTH",
"773 611 OFFCURVE",
"963 547 OFFCURVE",
"963 356 CURVE SMOOTH",
"963 221 OFFCURVE",
"856 95 OFFCURVE",
"605 95 CURVE SMOOTH",
"395 95 OFFCURVE",
"216 194 OFFCURVE",
"216 417 CURVE",
"90 417 LINE",
"90 130 OFFCURVE",
"314 -20 OFFCURVE",
"603 -20 CURVE SMOOTH"
);
}
);
width = 1200;
},
{
anchors = (
{
name = bottom;
position = "{610, -12}";
},
{
name = top;
position = "{600, 1454}";
}
);
background = {
paths = (
{
closed = 1;
nodes = (
"962 -20 OFFCURVE",
"1138 124 OFFCURVE",
"1135 384 CURVE SMOOTH",
"1132 655 OFFCURVE",
"920 716 OFFCURVE",
"661 817 CURVE SMOOTH",
"402 918 OFFCURVE",
"365 989 OFFCURVE",
"365 1090 CURVE SMOOTH",
"365 1214 OFFCURVE",
"455 1278 OFFCURVE",
"612 1278 CURVE SMOOTH",
"765 1278 OFFCURVE",
"839 1211 OFFCURVE",
"860 1071 CURVE",
"1079 1071 LINE",
"1045 1335 OFFCURVE",
"928 1477 OFFCURVE",
"621 1477 CURVE SMOOTH",
"325 1477 OFFCURVE",
"144 1338 OFFCURVE",
"144 1080 CURVE SMOOTH",
"144 854 OFFCURVE",
"309 715 OFFCURVE",
"562 629 CURVE SMOOTH",
"810 545 OFFCURVE",
"910 486 OFFCURVE",
"910 365 CURVE SMOOTH",
"910 253 OFFCURVE",
"825 179 OFFCURVE",
"629 179 CURVE SMOOTH",
"431 179 OFFCURVE",
"310 264 OFFCURVE",
"302 437 CURVE",
"85 437 LINE",
"95 130 OFFCURVE",
"291 -20 OFFCURVE",
"614 -20 CURVE SMOOTH"
);
}
);
};
layerId = "09AB1441-CF14-483D-884E-606841830E4D";
paths = (
{
closed = 1;
nodes = (
"899 -20 OFFCURVE",
"1113 132 OFFCURVE",
"1111 385 CURVE SMOOTH",
"1110 654 OFFCURVE",
"890 733 OFFCURVE",
"649 817 CURVE SMOOTH",
"399 904 OFFCURVE",
"356 970 OFFCURVE",
"356 1096 CURVE SMOOTH",
"356 1217 OFFCURVE",
"459 1278 OFFCURVE",
"606 1278 CURVE SMOOTH",
"759 1278 OFFCURVE",
"848 1196 OFFCURVE",
"867 1059 CURVE",
"1076 1059 LINE",
"1043 1341 OFFCURVE",
"868 1477 OFFCURVE",
"616 1477 CURVE SMOOTH",
"365 1477 OFFCURVE",
"142 1350 OFFCURVE",
"142 1087 CURVE SMOOTH",
"142 858 OFFCURVE",
"326 710 OFFCURVE",
"569 637 CURVE SMOOTH",
"795 569 OFFCURVE",
"894 519 OFFCURVE",
"894 372 CURVE SMOOTH",
"894 271 OFFCURVE",
"797 179 OFFCURVE",
"620 179 CURVE SMOOTH",
"460 179 OFFCURVE",
"310 238 OFFCURVE",
"305 450 CURVE",
"87 450 LINE",
"93 110 OFFCURVE",
"303 -20 OFFCURVE",
"610 -20 CURVE SMOOTH"
);
}
);
width = 1200;
},
{
anchors = (
{
name = bottom;
position = "{600, 0}";
},
{
name = top;
position = "{579, 1454}";
}
);
background = {
paths = (
{
closed = 1;
nodes = (
"949 -20 OFFCURVE",
"1165 126 OFFCURVE",
"1164 417 CURVE SMOOTH",
"1163 701 OFFCURVE",
"927 761 OFFCURVE",
"673 855 CURVE SMOOTH",
"467 931 OFFCURVE",
"408 975 OFFCURVE",
"408 1077 CURVE SMOOTH",
"408 1168 OFFCURVE",
"478 1208 OFFCURVE",
"605 1208 CURVE SMOOTH",
"732 1208 OFFCURVE",
"797 1144 OFFCURVE",
"801 1028 CURVE",
"1104 1028 LINE",
"1085 1324 OFFCURVE",
"924 1477 OFFCURVE",
"604 1477 CURVE SMOOTH",
"291 1477 OFFCURVE",
"96 1336 OFFCURVE",
"96 1072 CURVE SMOOTH",
"96 817 OFFCURVE",
"271 698 OFFCURVE",
"539 603 CURVE SMOOTH",
"753 528 OFFCURVE",
"845 492 OFFCURVE",
"845 390 CURVE SMOOTH",
"845 297 OFFCURVE",
"777 249 OFFCURVE",
"622 249 CURVE SMOOTH",
"430 249 OFFCURVE",
"355 331 OFFCURVE",
"351 476 CURVE",
"41 476 LINE",
"29 133 OFFCURVE",
"283 -20 OFFCURVE",
"617 -20 CURVE SMOOTH"
);
}
);
};
layerId = "BF6BC6F6-4B2A-4E9B-9E28-8B62B2F12FD9";
paths = (
{
closed = 1;
nodes = (
"913 -20 OFFCURVE",
"1130 136 OFFCURVE",
"1129 417 CURVE SMOOTH",
"1128 711 OFFCURVE",
"898 750 OFFCURVE",
"665 852 CURVE SMOOTH",
"480 933 OFFCURVE",
"414 972 OFFCURVE",
"414 1077 CURVE SMOOTH",
"414 1168 OFFCURVE",
"489 1208 OFFCURVE",
"598 1208 CURVE SMOOTH",
"706 1208 OFFCURVE",
"776 1144 OFFCURVE",
"780 1028 CURVE",
"1079 1028 LINE",
"1059 1324 OFFCURVE",
"899 1477 OFFCURVE",
"597 1477 CURVE SMOOTH",
"302 1477 OFFCURVE",
"106 1336 OFFCURVE",
"106 1072 CURVE SMOOTH",
"106 821 OFFCURVE",
"286 710 OFFCURVE",
"531 606 CURVE SMOOTH",
"725 524 OFFCURVE",
"815 502 OFFCURVE",
"815 400 CURVE SMOOTH",
"815 307 OFFCURVE",
"741 249 OFFCURVE",
"615 249 CURVE SMOOTH",
"440 249 OFFCURVE",
"378 331 OFFCURVE",
"374 476 CURVE",
"69 476 LINE",
"57 133 OFFCURVE",
"293 -20 OFFCURVE",
"609 -20 CURVE SMOOTH"
);
}
);
width = 1200;
}
);
unicode = 0053;
userData = {
KernOnName = S;
};
},
{
glyphname = Germandbls;
lastChange = "2022-02-12 05:33:45 +0000";
layers = (
{
background = {
components = (
{
name = H;
}
);
};
layerId = "0D9D1AFE-BAFC-449A-A530-9FCA9CDF2E2E";
paths = (
{
closed = 1;
nodes = (
"495 -4 OFFCURVE",
"545 -10 OFFCURVE",
"626 -10 CURVE SMOOTH",
"917 -10 OFFCURVE",
"1131 123 OFFCURVE",
"1131 420 CURVE SMOOTH",
"1131 605 OFFCURVE",
"1039 818 OFFCURVE",
"684 817 CURVE",
"722 831 OFFCURVE",
"739 856 OFFCURVE",
"752 876 CURVE",
"1095 1454 LINE",
"142 1454 LINE",
"142 0 LINE",
"267 0 LINE",
"267 1336 LINE",
"817 1336 LINE",
"900 1344 LINE",
"846 1271 LINE",
"515 715 LINE",
"665 715 LINE SMOOTH",
"907 715 OFFCURVE",
"1001 595 OFFCURVE",
"1001 420 CURVE SMOOTH",
"1001 191 OFFCURVE",
"860 107 OFFCURVE",
"641 107 CURVE SMOOTH",
"557 107 OFFCURVE",
"502 114 OFFCURVE",
"442 120 CURVE",
"442 2 LINE"
);
}
);
width = 1200;
},
{
background = {
components = (
{
name = H;
}
);
};
layerId = "09AB1441-CF14-483D-884E-606841830E4D";
paths = (
{
closed = 1;
nodes = (
"508 -7 OFFCURVE",
"578 -14 OFFCURVE",
"655 -14 CURVE SMOOTH",
"977 -14 OFFCURVE",
"1130 182 OFFCURVE",
"1130 432 CURVE SMOOTH",
"1130 594 OFFCURVE",
"1040 829 OFFCURVE",
"769 844 CURVE",
"829 844 OFFCURVE",
"864 896 OFFCURVE",
"893 956 CURVE SMOOTH",
"1133 1454 LINE",
"131 1454 LINE",
"131 0 LINE",
"355 0 LINE",
"355 1249 LINE",
"753 1249 LINE",
"807 1265 LINE",
"768 1193 LINE",
"521 670 LINE",
"610 670 LINE SMOOTH",
"789 670 OFFCURVE",
"906 608 OFFCURVE",
"906 440 CURVE SMOOTH",
"906 316 OFFCURVE",
"849 178 OFFCURVE",
"645 178 CURVE SMOOTH",
"569 178 OFFCURVE",
"513 187 OFFCURVE",
"470 196 CURVE",
"470 -1 LINE"
);
}
);
width = 1200;
},
{
background = {
components = (
{
name = B;
}
);
};
layerId = "BF6BC6F6-4B2A-4E9B-9E28-8B62B2F12FD9";
paths = (
{
closed = 1;
nodes = (
"531 -8 OFFCURVE",
"575 -11 OFFCURVE",
"660 -11 CURVE SMOOTH",
"977 -11 OFFCURVE",
"1136 158 OFFCURVE",
"1136 480 CURVE SMOOTH",
"1136 676 OFFCURVE",
"1037 804 OFFCURVE",
"826 846 CURVE",
"898 861 OFFCURVE",
"924 922 OFFCURVE",
"949 976 CURVE SMOOTH",
"1167 1454 LINE",
"89 1454 LINE",
"89 0 LINE",
"404 0 LINE",
"404 1183 LINE",
"675 1183 LINE",
"731 1193 LINE",
"684 1114 LINE",
"473 648 LINE",
"563 648 LINE SMOOTH",
"773 648 OFFCURVE",
"807 575 OFFCURVE",
"807 473 CURVE SMOOTH",
"807 368 OFFCURVE",
"756 285 OFFCURVE",
"643 285 CURVE SMOOTH",
"577 285 OFFCURVE",
"534 290 OFFCURVE",
"489 298 CURVE",
"490 -1 LINE"
);
}
);
width = 1200;
}
);
unicode = 1E9E;
userData = {
KernOnName = Germandbls;
};
},
{
glyphname = Schwa;
lastChange = "2022-02-12 05:33:45 +0000";
layers = (
{
anchors = (
{
name = bottom;
position = "{599, 0}";
},
{
name = top;
position = "{599, 1454}";
}
);
background = {
components = (
{
name = O;
}
);
};
layerId = "0D9D1AFE-BAFC-449A-A530-9FCA9CDF2E2E";
paths = (
{
closed = 1;
nodes = (
"978 -30 OFFCURVE",
"1109 301 OFFCURVE",
"1109 731 CURVE SMOOTH",
"1109 1216 OFFCURVE",
"922 1481 OFFCURVE",
"601 1481 CURVE SMOOTH",
"349 1481 OFFCURVE",
"147 1339 OFFCURVE",
"105 1047 CURVE",
"236 1047 LINE",
"256 1186 OFFCURVE",
"350 1365 OFFCURVE",
"604 1365 CURVE SMOOTH",
"843 1365 OFFCURVE",
"980 1147 OFFCURVE",
"980 731 CURVE SMOOTH",
"980 331 OFFCURVE",
"851 90 OFFCURVE",
"604 90 CURVE SMOOTH",
"369 90 OFFCURVE",
"231 284 OFFCURVE",
"231 625 CURVE",
"231 692 LINE",
"93 730 LINE",
"95 619 LINE",
"95 248 OFFCURVE",
"291 -30 OFFCURVE",
"603 -30 CURVE SMOOTH"
);
},
{
closed = 1;
nodes = (
"1031 614 LINE",
"1031 730 LINE",
"93 730 LINE",
"125 614 LINE"
);
}
);
width = 1200;
},
{
anchors = (
{
name = bottom;
position = "{600, 0}";
},
{
name = top;
position = "{600, 1454}";
}
);
background = {
components = (
{
name = O;
}
);
};
layerId = "09AB1441-CF14-483D-884E-606841830E4D";
paths = (
{
closed = 1;
nodes = (
"952 -29 OFFCURVE",
"1125 271 OFFCURVE",
"1125 731 CURVE SMOOTH",
"1125 1215 OFFCURVE",
"924 1481 OFFCURVE",
"601 1481 CURVE SMOOTH",
"366 1481 OFFCURVE",
"134 1349 OFFCURVE",
"93 1047 CURVE",
"321 1047 LINE",
"344 1198 OFFCURVE",
"433 1274 OFFCURVE",
"603 1274 CURVE SMOOTH",
"812 1274 OFFCURVE",
"900 1069 OFFCURVE",
"900 731 CURVE SMOOTH",
"900 362 OFFCURVE",
"818 176 OFFCURVE",
"601 176 CURVE SMOOTH",
"420 176 OFFCURVE",
"306 321 OFFCURVE",
"303 577 CURVE",
"303 673 LINE",
"74 770 LINE",
"76 602 LINE",
"76 234 OFFCURVE",
"288 -29 OFFCURVE",
"601 -29 CURVE SMOOTH"
);
},
{
closed = 1;
nodes = (
"983 568 LINE",
"983 770 LINE",
"74 770 LINE",
"108 568 LINE"
);
}
);
width = 1200;
},
{
anchors = (
{
name = bottom;
position = "{600, 0}";
},
{
name = top;
position = "{600, 1454}";
}
);
background = {
components = (
{
name = O;
}
);
};
layerId = "BF6BC6F6-4B2A-4E9B-9E28-8B62B2F12FD9";
paths = (
{
closed = 1;
nodes = (
"943 -28 OFFCURVE",
"1138 256 OFFCURVE",
"1138 737 CURVE SMOOTH",
"1138 1211 OFFCURVE",
"954 1481 OFFCURVE",
"591 1481 CURVE SMOOTH",
"244 1481 OFFCURVE",
"98 1231 OFFCURVE",
"93 1018 CURVE",
"420 1018 LINE",
"448 1131 OFFCURVE",
"490 1192 OFFCURVE",
"611 1192 CURVE SMOOTH",
"768 1192 OFFCURVE",
"814 1074 OFFCURVE",
"814 732 CURVE SMOOTH",
"814 381 OFFCURVE",
"765 263 OFFCURVE",
"611 263 CURVE SMOOTH",
"454 263 OFFCURVE",
"385 381 OFFCURVE",
"382 600 CURVE",
"382 729 LINE",
"64 816 LINE",
"66 710 LINE",
"61 131 OFFCURVE",
"347 -28 OFFCURVE",
"602 -28 CURVE SMOOTH"
);
},
{
closed = 1;
nodes = (
"911 596 LINE",
"911 816 LINE",
"64 816 LINE",
"116 596 LINE"
);
}
);
width = 1200;
}
);
unicode = 018F;
},
{
glyphname = T;
lastChange = "2022-02-16 15:39:30 +0000";
layers = (
{
anchors = (
{
name = bottom;
position = "{600, 0}";
},
{
name = center;
position = "{599, 727}";
},
{
name = top;
position = "{599, 1454}";
}
);
layerId = "0D9D1AFE-BAFC-449A-A530-9FCA9CDF2E2E";
paths = (
{
closed = 1;
nodes = (
"666 0 LINE",
"666 1335 LINE",
"1101 1335 LINE",
"1101 1454 LINE",
"99 1454 LINE",
"99 1335 LINE",
"583 1335 LINE",
"556 1324 OFFCURVE",
"533 1290 OFFCURVE",
"533 1236 CURVE SMOOTH",
"533 0 LINE"
);
}
);
width = 1200;
},
{
anchors = (
{
name = bottom;
position = "{607, 0}";
},
{
name = center;
position = "{600, 727}";
},
{
name = top;
position = "{600, 1454}";
}
);
layerId = "09AB1441-CF14-483D-884E-606841830E4D";
paths = (
{
closed = 1;
nodes = (
"712 0 LINE",
"712 1254 LINE",
"1100 1254 LINE",
"1100 1454 LINE",
"100 1454 LINE",
"100 1254 LINE",
"541 1254 LINE",
"507 1243 OFFCURVE",
"488 1213 OFFCURVE",
"488 1171 CURVE SMOOTH",
"488 0 LINE"
);
}
);
width = 1200;
},
{
anchors = (
{
name = bottom;
position = "{600, 0}";
},
{
name = center;
position = "{600, 727}";
},
{
name = top;
position = "{600, 1454}";
}
);
layerId = "BF6BC6F6-4B2A-4E9B-9E28-8B62B2F12FD9";
paths = (
{
closed = 1;
nodes = (
"760 0 LINE",
"760 1173 LINE",
"1126 1173 LINE",
"1126 1454 LINE",
"74 1454 LINE",
"74 1173 LINE",
"540 1173 LINE",
"470 1163 OFFCURVE",
"441 1120 OFFCURVE",
"441 1048 CURVE SMOOTH",
"441 0 LINE"
);
}
);
width = 1200;
}
);
unicode = 0054;
userData = {
KernOnName = T;
};
},
{
glyphname = U;
lastChange = "2022-02-12 05:29:56 +0000";
layers = (
{
anchors = (
{
name = bottom;
position = "{600, 0}";
},
{
name = ogonek;
position = "{763, 10}";
},
{
name = top;
position = "{600, 1454}";
},
{
name = topright;
position = "{1188, 1454}";
}
);
background = {
paths = (
{
closed = 1;
nodes = (
"862 -20 OFFCURVE",
"1089 170 OFFCURVE",
"1089 566 CURVE SMOOTH",
"1089 1454 LINE",
"967 1454 LINE",
"967 564 LINE SMOOTH",
"967 204 OFFCURVE",
"769 100 OFFCURVE",
"602 100 CURVE SMOOTH",
"435 100 OFFCURVE",
"233 204 OFFCURVE",
"233 564 CURVE SMOOTH",
"233 1456 LINE",
"111 1456 LINE",
"111 566 LINE SMOOTH",
"111 170 OFFCURVE",
"336 -20 OFFCURVE",
"599 -20 CURVE SMOOTH"
);
}
);
};
layerId = "0D9D1AFE-BAFC-449A-A530-9FCA9CDF2E2E";
paths = (
{
closed = 1;
nodes = (
"857 -20 OFFCURVE",
"1085 170 OFFCURVE",
"1085 526 CURVE SMOOTH",
"1085 1454 LINE",
"960 1454 LINE",
"960 524 LINE SMOOTH",
"960 204 OFFCURVE",
"761 100 OFFCURVE",
"603 100 CURVE SMOOTH",
"444 100 OFFCURVE",
"240 204 OFFCURVE",
"240 524 CURVE SMOOTH",
"240 1456 LINE",
"115 1456 LINE",
"115 526 LINE SMOOTH",
"115 170 OFFCURVE",
"341 -20 OFFCURVE",
"599 -20 CURVE SMOOTH"
);
}
);
width = 1200;
},
{
anchors = (
{
name = bottom;
position = "{599, 0}";
},
{
name = ogonek;
position = "{781, 10}";
},
{
name = top;
position = "{601, 1454}";
},
{
name = topright;
position = "{1203, 1454}";
}
);
layerId = "09AB1441-CF14-483D-884E-606841830E4D";
paths = (
{
closed = 1;
nodes = (
"878 -20 OFFCURVE",
"1085 126 OFFCURVE",
"1085 516 CURVE SMOOTH",
"1085 1454 LINE",
"861 1454 LINE",
"861 554 LINE SMOOTH",
"861 280 OFFCURVE",
"747 187 OFFCURVE",
"606 187 CURVE SMOOTH",
"454 187 OFFCURVE",
"339 280 OFFCURVE",
"339 554 CURVE SMOOTH",
"339 1456 LINE",
"115 1456 LINE",
"115 516 LINE SMOOTH",
"115 126 OFFCURVE",
"315 -20 OFFCURVE",
"605 -20 CURVE SMOOTH"
);
}
);
width = 1200;
},
{
anchors = (
{
name = bottom;
position = "{600, 0}";
},
{
name = ogonek;
position = "{793, 10}";
},
{
name = top;
position = "{601, 1454}";
},
{
name = topright;
position = "{1217, 1454}";
}
);
layerId = "BF6BC6F6-4B2A-4E9B-9E28-8B62B2F12FD9";
paths = (
{
closed = 1;
nodes = (
"916 -20 OFFCURVE",
"1122 179 OFFCURVE",
"1122 538 CURVE SMOOTH",
"1122 1454 LINE",
"808 1454 LINE",
"808 583 LINE SMOOTH",
"808 358 OFFCURVE",
"739 272 OFFCURVE",
"602 272 CURVE SMOOTH",
"463 272 OFFCURVE",
"392 359 OFFCURVE",
"392 583 CURVE SMOOTH",
"392 1456 LINE",
"78 1456 LINE",
"78 538 LINE SMOOTH",
"78 173 OFFCURVE",
"287 -20 OFFCURVE",
"600 -20 CURVE SMOOTH"
);
}
);
width = 1200;
}
);
unicode = 0055;
userData = {
KernOnName = U;
};
},
{
glyphname = Uogonek;
lastChange = "2022-02-12 05:33:45 +0000";
layers = (
{
anchors = (
{
name = top;
position = "{641, 1454}";
},
{
name = topright;
position = "{1244, 1454}";
}
);
layerId = "0D9D1AFE-BAFC-449A-A530-9FCA9CDF2E2E";
paths = (
{
closed = 1;
nodes = (
"916 -20 OFFCURVE",
"1154 170 OFFCURVE",
"1154 566 CURVE SMOOTH",
"1154 1454 LINE",
"1029 1454 LINE",
"1029 564 LINE SMOOTH",
"1029 204 OFFCURVE",
"820 100 OFFCURVE",
"645 100 CURVE SMOOTH",
"469 100 OFFCURVE",
"255 204 OFFCURVE",
"255 564 CURVE SMOOTH",
"255 1456 LINE",
"130 1456 LINE",
"130 566 LINE SMOOTH",
"130 170 OFFCURVE",
"366 -20 OFFCURVE",
"641 -20 CURVE SMOOTH"
);
},
{
closed = 1;
nodes = (
"741 -326 OFFCURVE",
"780 -318 OFFCURVE",
"806 -306 CURVE",
"805 -208 LINE",
"773 -220 OFFCURVE",
"741 -227 OFFCURVE",
"717 -227 CURVE SMOOTH",
"669 -227 OFFCURVE",
"644 -203 OFFCURVE",
"644 -156 CURVE SMOOTH",
"644 -93 OFFCURVE",
"690 -50 OFFCURVE",
"808 10 CURVE",
"758 18 LINE",
"583 -11 OFFCURVE",
"529 -106 OFFCURVE",
"529 -182 CURVE SMOOTH",
"529 -264 OFFCURVE",
"591 -326 OFFCURVE",
"693 -326 CURVE SMOOTH"
);
}
);
width = 1200;
},
{
anchors = (
{
name = top;
position = "{672, 1454}";
},
{
name = topright;
position = "{1304, 1454}";
}
);
layerId = "09AB1441-CF14-483D-884E-606841830E4D";
paths = (
{
closed = 1;
nodes = (
"978 -20 OFFCURVE",
"1199 170 OFFCURVE",
"1199 566 CURVE SMOOTH",
"1199 1454 LINE",
"969 1454 LINE",
"969 564 LINE SMOOTH",
"969 279 OFFCURVE",
"841 187 OFFCURVE",
"679 187 CURVE SMOOTH",
"504 187 OFFCURVE",
"375 279 OFFCURVE",
"375 564 CURVE SMOOTH",
"375 1456 LINE",
"145 1456 LINE",
"145 566 LINE SMOOTH",
"145 170 OFFCURVE",
"358 -20 OFFCURVE",
"679 -20 CURVE SMOOTH"
);
},
{
closed = 1;
nodes = (
"769 -386 OFFCURVE",
"799 -379 OFFCURVE",
"858 -354 CURVE",
"857 -214 LINE",
"825 -230 OFFCURVE",
"797 -235 OFFCURVE",
"759 -235 CURVE SMOOTH",
"714 -235 OFFCURVE",
"686 -208 OFFCURVE",
"686 -164 CURVE SMOOTH",
"686 -103 OFFCURVE",
"742 -47 OFFCURVE",
"860 10 CURVE",
"802 35 LINE",
"595 0 OFFCURVE",
"501 -111 OFFCURVE",
"501 -203 CURVE SMOOTH",
"501 -314 OFFCURVE",
"580 -386 OFFCURVE",
"700 -386 CURVE SMOOTH"
);
}
);
width = 1200;
},
{
anchors = (
{
name = top;
position = "{682, 1454}";
},
{
name = topright;
position = "{1330, 1454}";
}
);
layerId = "BF6BC6F6-4B2A-4E9B-9E28-8B62B2F12FD9";
paths = (
{
closed = 1;
nodes = (
"1027 -20 OFFCURVE",
"1249 199 OFFCURVE",
"1249 558 CURVE SMOOTH",
"1249 1454 LINE",
"928 1454 LINE",
"928 595 LINE SMOOTH",
"928 370 OFFCURVE",
"846 264 OFFCURVE",
"684 264 CURVE SMOOTH",
"519 264 OFFCURVE",
"435 371 OFFCURVE",
"435 595 CURVE SMOOTH",
"435 1456 LINE",
"114 1456 LINE",
"114 558 LINE SMOOTH",
"114 193 OFFCURVE",
"338 -20 OFFCURVE",
"682 -20 CURVE SMOOTH"
);
},
{
closed = 1;
nodes = (
"760 -421 OFFCURVE",
"830 -407 OFFCURVE",
"881 -385 CURVE",
"880 -210 LINE",
"848 -226 OFFCURVE",
"813 -235 OFFCURVE",
"782 -235 CURVE SMOOTH",
"736 -235 OFFCURVE",
"709 -210 OFFCURVE",
"709 -168 CURVE SMOOTH",
"709 -91 OFFCURVE",
"767 -48 OFFCURVE",
"883 10 CURVE",
"780 10 LINE",
"519 -12 OFFCURVE",
"462 -132 OFFCURVE",
"462 -229 CURVE SMOOTH",
"462 -346 OFFCURVE",
"555 -421 OFFCURVE",
"696 -421 CURVE SMOOTH"
);
}
);
width = 1200;
}
);
unicode = 0172;
},
{
glyphname = V;
lastChange = "2022-02-12 05:29:56 +0000";
layers = (
{
anchors = (
{
name = bottom;
position = "{601, 0}";
},
{
name = top;
position = "{601, 1454}";
}
);
layerId = "0D9D1AFE-BAFC-449A-A530-9FCA9CDF2E2E";
paths = (
{
closed = 1;
nodes = (
"682 0 LINE",
"1163 1454 LINE",
"1030 1454 LINE",
"678 347 LINE",
"604 124 LINE",
"597 124 LINE",
"523 347 LINE",
"170 1454 LINE",
"37 1454 LINE",
"519 0 LINE"
);
}
);
width = 1200;
},
{
anchors = (
{
name = bottom;
position = "{601, 0}";
},
{
name = top;
position = "{601, 1454}";
}
);
layerId = "09AB1441-CF14-483D-884E-606841830E4D";
paths = (
{
closed = 1;
nodes = (
"756 0 LINE",
"1163 1454 LINE",
"904 1454 LINE",
"669 479 LINE",
"608 210 LINE",
"592 210 LINE",
"532 479 LINE",
"296 1454 LINE",
"37 1454 LINE",
"445 0 LINE"
);
}
);
width = 1200;
},
{
anchors = (
{
name = bottom;
position = "{601, 0}";
},
{
name = top;
position = "{601, 1454}";
}
);
layerId = "BF6BC6F6-4B2A-4E9B-9E28-8B62B2F12FD9";
paths = (
{
closed = 1;
nodes = (
"813 0 LINE",
"1199 1454 LINE",
"865 1454 LINE",
"668 586 LINE",
"604 268 LINE",
"598 268 LINE",
"531 586 LINE",
"335 1454 LINE",
"1 1454 LINE",
"387 0 LINE"
);
}
);
width = 1200;
}
);
unicode = 0056;
userData = {
KernOnName = V;
};
},
{
glyphname = W;
lastChange = "2022-02-12 05:30:11 +0000";
layers = (
{
anchors = (
{
name = bottom;
position = "{600, 0}";
},
{
name = top;
position = "{600, 1454}";
}
);
layerId = "0D9D1AFE-BAFC-449A-A530-9FCA9CDF2E2E";
paths = (
{
closed = 1;
nodes = (
"392 0 LINE",
"524 582 LINE SMOOTH",
"559 734 OFFCURVE",
"573 859 OFFCURVE",
"598 1012 CURVE",
"602 1012 LINE",
"627 859 OFFCURVE",
"641 734 OFFCURVE",
"676 582 CURVE SMOOTH",
"808 0 LINE",
"968 0 LINE",
"1205 1454 LINE",
"1081 1454 LINE",
"970 769 LINE SMOOTH",
"935 551 OFFCURVE",
"912 330 OFFCURVE",
"887 111 CURVE",
"878 111 LINE",
"787 597 LINE",
"686 1103 LINE",
"515 1103 LINE",
"413 597 LINE",
"317 111 LINE",
"309 111 LINE",
"281 330 OFFCURVE",
"265 550 OFFCURVE",
"230 769 CURVE SMOOTH",
"119 1454 LINE",
"-5 1454 LINE",
"232 0 LINE"
);
}
);
width = 1200;
},
{
anchors = (
{
name = bottom;
position = "{601, 0}";
},
{
name = top;
position = "{600, 1454}";
}
);
background = {
paths = (
{
closed = 1;
nodes = (
"470 0 LINE",
"548 570 LINE SMOOTH",
"564 689 OFFCURVE",
"582 999 OFFCURVE",
"598 1201 CURVE",
"602 1201 LINE",
"618 999 OFFCURVE",
"633 689 OFFCURVE",
"649 570 CURVE SMOOTH",
"726 0 LINE",
"1009 0 LINE",
"1196 1454 LINE",
"965 1454 LINE",
"907 779 LINE SMOOTH",
"888 557 OFFCURVE",
"851 380 OFFCURVE",
"840 191 CURVE",
"837 191 LINE",
"803 645 LINE",
"690 1454 LINE",
"505 1454 LINE",
"397 645 LINE",
"360 191 LINE",
"356 191 LINE",
"349 379 OFFCURVE",
"311 557 OFFCURVE",
"292 779 CURVE SMOOTH",
"235 1454 LINE",
"4 1454 LINE",
"187 0 LINE"
);
}
);
};
layerId = "09AB1441-CF14-483D-884E-606841830E4D";
paths = (
{
closed = 1;
nodes = (
"470 0 LINE",
"541 464 LINE SMOOTH",
"565 618 OFFCURVE",
"582 745 OFFCURVE",
"597 901 CURVE",
"603 901 LINE",
"618 745 OFFCURVE",
"634 620 OFFCURVE",
"659 464 CURVE SMOOTH",
"732 0 LINE",
"1008 0 LINE",
"1210 1454 LINE",
"970 1454 LINE",
"873 397 LINE SMOOTH",
"867 328 OFFCURVE",
"851 286 OFFCURVE",
"846 191 CURVE",
"838 191 LINE",
"807 520 LINE",
"719 1105 LINE",
"481 1105 LINE",
"393 520 LINE",
"362 191 LINE",
"355 191 LINE",
"349 286 OFFCURVE",
"333 327 OFFCURVE",
"327 397 CURVE SMOOTH",
"231 1454 LINE",
"-10 1454 LINE",
"194 0 LINE"
);
}
);
width = 1200;
},
{
anchors = (
{
name = bottom;
position = "{601, 0}";
},
{
name = top;
position = "{600, 1454}";
}
);
background = {
paths = (
{
closed = 1;
nodes = (
"1218 1454 LINE",
"932 1454 LINE",
"858 475 LINE SMOOTH",
"851 379 OFFCURVE",
"846 286 OFFCURVE",
"840 191 CURVE",
"833 191 LINE",
"804 645 LINE",
"723 1454 LINE",
"475 1454 LINE",
"394 645 LINE",
"350 191 LINE",
"342 191 LINE",
"342 286 OFFCURVE",
"347 380 OFFCURVE",
"340 475 CURVE SMOOTH",
"267 1454 LINE",
"-18 1454 LINE",
"190 0 LINE",
"491 0 LINE",
"552 568 LINE SMOOTH",
"575 784 OFFCURVE",
"582 999 OFFCURVE",
"597 1215 CURVE",
"603 1215 LINE",
"618 999 OFFCURVE",
"626 784 OFFCURVE",
"648 568 CURVE SMOOTH",
"707 0 LINE",
"1008 0 LINE"
);
},
{
closed = 1;
nodes = (
"470 0 LINE",
"541 464 LINE SMOOTH",
"565 618 OFFCURVE",
"582 745 OFFCURVE",
"597 901 CURVE",
"603 901 LINE",
"618 745 OFFCURVE",
"634 620 OFFCURVE",
"659 464 CURVE SMOOTH",
"732 0 LINE",
"1008 0 LINE",
"1210 1454 LINE",
"970 1454 LINE",
"873 397 LINE SMOOTH",
"867 328 OFFCURVE",
"851 286 OFFCURVE",
"846 191 CURVE",
"838 191 LINE",
"807 520 LINE",
"719 1105 LINE",
"481 1105 LINE",
"393 520 LINE",
"362 191 LINE",
"355 191 LINE",
"349 286 OFFCURVE",
"333 327 OFFCURVE",
"327 397 CURVE SMOOTH",
"231 1454 LINE",
"-10 1454 LINE",
"194 0 LINE"
);
}
);
};
layerId = "BF6BC6F6-4B2A-4E9B-9E28-8B62B2F12FD9";
paths = (
{
closed = 1;
nodes = (
"491 0 LINE",
"551 435 LINE SMOOTH",
"573 598 OFFCURVE",
"582 730 OFFCURVE",
"597 893 CURVE",
"603 893 LINE",
"618 730 OFFCURVE",
"626 598 OFFCURVE",
"649 435 CURVE SMOOTH",
"711 0 LINE",
"1018 0 LINE",
"1230 1454 LINE",
"940 1454 LINE",
"863 405 LINE SMOOTH",
"858 333 OFFCURVE",
"851 263 OFFCURVE",
"846 191 CURVE",
"838 191 LINE",
"807 533 LINE",
"746 1104 LINE",
"455 1104 LINE",
"393 533 LINE",
"362 191 LINE",
"355 191 LINE",
"349 263 OFFCURVE",
"342 333 OFFCURVE",
"337 405 CURVE SMOOTH",
"261 1454 LINE",
"-30 1454 LINE",
"184 0 LINE"
);
}
);
width = 1200;
}
);
unicode = 0057;
userData = {
KernOnName = W;
};
},
{
glyphname = X;
lastChange = "2022-02-12 05:29:56 +0000";
layers = (
{
anchors = (
{
name = bottom;
position = "{601, 0}";
},
{
name = top;
position = "{601, 1454}";
}
);
layerId = "0D9D1AFE-BAFC-449A-A530-9FCA9CDF2E2E";
paths = (
{
closed = 1;
nodes = (
"208 0 LINE",
"385 296 LINE",
"600 666 LINE",
"816 296 LINE",
"993 0 LINE",
"1145 0 LINE",
"699 724 LINE",
"1152 1454 LINE",
"999 1454 LINE",
"815 1148 LINE",
"601 781 LINE",
"385 1148 LINE",
"201 1454 LINE",
"48 1454 LINE",
"501 724 LINE",
"55 0 LINE"
);
}
);
width = 1200;
},
{
anchors = (
{
name = bottom;
position = "{600, 0}";
},
{
name = top;
position = "{600, 1454}";
}
);
layerId = "09AB1441-CF14-483D-884E-606841830E4D";
paths = (
{
closed = 1;
nodes = (
"315 0 LINE",
"461 296 LINE",
"598 574 LINE",
"739 298 LINE",
"881 0 LINE",
"1162 0 LINE",
"742 724 LINE",
"1162 1454 LINE",
"881 1454 LINE",
"739 1146 LINE",
"602 882 LINE",
"461 1148 LINE",
"315 1454 LINE",
"39 1454 LINE",
"460 724 LINE",
"39 0 LINE"
);
}
);
width = 1200;
},
{
anchors = (
{
name = bottom;
position = "{601, 0}";
},
{
name = top;
position = "{601, 1454}";
}
);
layerId = "BF6BC6F6-4B2A-4E9B-9E28-8B62B2F12FD9";
paths = (
{
closed = 1;
nodes = (
"345 0 LINE",
"503 313 LINE",
"599 542 LINE",
"700 315 LINE",
"855 0 LINE",
"1198 0 LINE",
"804 724 LINE",
"1190 1454 LINE",
"847 1454 LINE",
"713 1149 LINE",
"604 908 LINE",
"491 1151 LINE",
"352 1454 LINE",
"10 1454 LINE",
"400 724 LINE",
"2 0 LINE"
);
}
);
width = 1200;
}
);
unicode = 0058;
userData = {
KernOnName = X;
};
},
{
glyphname = Y;
lastChange = "2022-02-12 05:29:56 +0000";
layers = (
{
anchors = (
{
name = bottom;
position = "{600, 0}";
},
{
name = top;
position = "{600, 1454}";
},
{
name = topleft;
position = "{4, 1454}";
}
);
layerId = "0D9D1AFE-BAFC-449A-A530-9FCA9CDF2E2E";
paths = (
{
closed = 1;
nodes = (
"655 520 LINE",
"1148 1454 LINE",
"1002 1454 LINE",
"799 1038 LINE",
"604 664 LINE",
"594 664 LINE",
"401 1038 LINE",
"198 1454 LINE",
"52 1454 LINE",
"545 520 LINE"
);
},
{
closed = 1;
nodes = (
"659 0 LINE",
"659 573 LINE",
"540 573 LINE",
"540 0 LINE"
);
}
);
width = 1200;
},
{
anchors = (
{
name = bottom;
position = "{600, 0}";
},
{
name = top;
position = "{600, 1454}";
},
{
name = topleft;
position = "{-1, 1454}";
}
);
layerId = "09AB1441-CF14-483D-884E-606841830E4D";
paths = (
{
closed = 1;
nodes = (
"706 468 LINE",
"1179 1454 LINE",
"927 1454 LINE",
"754 1067 LINE",
"608 724 LINE",
"590 724 LINE",
"445 1068 LINE",
"274 1454 LINE",
"21 1454 LINE",
"495 468 LINE"
);
},
{
closed = 1;
nodes = (
"710 0 LINE",
"710 591 LINE",
"491 591 LINE",
"491 0 LINE"
);
}
);
width = 1200;
},
{
anchors = (
{
name = bottom;
position = "{600, 0}";
},
{
name = top;
position = "{600, 1454}";
},
{
name = topleft;
position = "{6, 1454}";
}
);
layerId = "BF6BC6F6-4B2A-4E9B-9E28-8B62B2F12FD9";
paths = (
{
closed = 1;
nodes = (
"742 453 LINE",
"1200 1454 LINE",
"864 1454 LINE",
"703 1027 LINE",
"605 769 LINE",
"594 769 LINE",
"497 1028 LINE",
"336 1454 LINE",
"0 1454 LINE",
"458 453 LINE"
);
},
{
closed = 1;
nodes = (
"756 0 LINE",
"756 645 LINE",
"443 645 LINE",
"443 0 LINE"
);
}
);
width = 1200;
}
);
unicode = 0059;
userData = {
KernOnName = Y;
};
},
{
glyphname = Z;
lastChange = "2022-02-12 05:29:56 +0000";
layers = (
{
anchors = (
{
name = bottom;
position = "{610, 0}";
},
{
name = center;
position = "{610, 727}";
},
{
name = top;
position = "{640, 1454}";
}
);
layerId = "0D9D1AFE-BAFC-449A-A530-9FCA9CDF2E2E";
paths = (
{
closed = 1;
nodes = (
"1076 0 LINE",
"1076 119 LINE",
"541 119 LINE",
"314 110 LINE",
"476 371 LINE",
"1106 1454 LINE",
"205 1454 LINE",
"205 1335 LINE",
"692 1335 LINE",
"917 1340 LINE",
"821 1203 LINE",
"124 0 LINE"
);
}
);
width = 1200;
},
{
anchors = (
{
name = bottom;
position = "{606, 0}";
},
{
name = center;
position = "{600, 727}";
},
{
name = top;
position = "{610, 1454}";
}
);
background = {
paths = (
{
closed = 1;
nodes = (
"1077 0 LINE",
"1077 201 LINE",
"620 201 LINE",
"422 188 LINE",
"529 343 LINE",
"1134 1454 LINE",
"146 1454 LINE",
"146 1249 LINE",
"670 1249 LINE",
"811 1255 LINE",
"712 1143 LINE",
"89 0 LINE"
);
}
);
};
layerId = "09AB1441-CF14-483D-884E-606841830E4D";
paths = (
{
closed = 1;
nodes = (
"1077 0 LINE",
"1077 191 LINE",
"543 191 LINE",
"396 178 LINE",
"475 282 LINE",
"1134 1454 LINE",
"166 1454 LINE",
"166 1263 LINE",
"695 1263 LINE",
"836 1269 LINE",
"737 1152 LINE",
"89 0 LINE"
);
}
);
width = 1200;
},
{
anchors = (
{
name = bottom;
position = "{600, 0}";
},
{
name = center;
position = "{600, 727}";
},
{
name = top;
position = "{622, 1454}";
}
);
layerId = "BF6BC6F6-4B2A-4E9B-9E28-8B62B2F12FD9";
paths = (
{
closed = 1;
nodes = (
"1091 0 LINE",
"1091 281 LINE",
"657 281 LINE",
"520 274 LINE",
"582 361 LINE",
"1143 1454 LINE",
"126 1454 LINE",
"126 1173 LINE",
"598 1173 LINE",
"718 1181 LINE",
"635 1084 LINE",
"78 0 LINE"
);
}
);
width = 1200;
}
);
unicode = 005A;
userData = {
KernOnName = Z;
};
},
{
glyphname = G.ss06;
lastChange = "2022-02-16 05:02:19 +0000";
layers = (
{
anchors = (
{
name = bottom;
position = "{673, 0}";
},
{
name = top;
position = "{646, 1454}";
}
);
background = {
paths = (
{
closed = 1;
nodes = (
"818 -20 OFFCURVE",
"952 29 OFFCURVE",
"1060 159 CURVE",
"1074 0 LINE",
"1167 0 LINE",
"1167 750 LINE",
"686 750 LINE",
"686 628 LINE",
"1039 628 LINE",
"1039 285 LINE",
"966 146 OFFCURVE",
"784 96 OFFCURVE",
"671 96 CURVE SMOOTH",
"407 96 OFFCURVE",
"160 300 OFFCURVE",
"160 731 CURVE SMOOTH",
"160 1098 OFFCURVE",
"360 1363 OFFCURVE",
"634 1363 CURVE SMOOTH",
"874 1363 OFFCURVE",
"1006 1188 OFFCURVE",
"1025 1047 CURVE",
"1157 1047 LINE",
"1115 1339 OFFCURVE",
"906 1481 OFFCURVE",
"652 1481 CURVE SMOOTH",
"277 1481 OFFCURVE",
"31 1187 OFFCURVE",
"31 736 CURVE SMOOTH",
"31 271 OFFCURVE",
"280 -20 OFFCURVE",
"672 -20 CURVE SMOOTH"
);
}
);
};
layerId = "0D9D1AFE-BAFC-449A-A530-9FCA9CDF2E2E";
paths = (
{
closed = 1;
nodes = (
"982 0 LINE",
"1075 0 LINE",
"1077 734 LINE",
"970 145 LINE"
);
},
{
closed = 1;
nodes = (
"768 -30 OFFCURVE",
"913 39 OFFCURVE",
"970 145 CURVE",
"1077 734 LINE",
"652 734 LINE",
"652 611 LINE",
"952 611 LINE",
"950 201 LINE",
"865 122 OFFCURVE",
"768 90 OFFCURVE",
"611 90 CURVE SMOOTH",
"387 90 OFFCURVE",
"221 320 OFFCURVE",
"221 731 CURVE SMOOTH",
"221 1149 OFFCURVE",
"368 1361 OFFCURVE",
"645 1361 CURVE SMOOTH",
"855 1361 OFFCURVE",
"924 1177 OFFCURVE",
"942 1047 CURVE",
"1067 1047 LINE",
"1028 1349 OFFCURVE",
"879 1481 OFFCURVE",
"658 1481 CURVE SMOOTH",
"283 1481 OFFCURVE",
"94 1219 OFFCURVE",
"94 731 CURVE SMOOTH",
"94 253 OFFCURVE",
"285 -30 OFFCURVE",
"606 -30 CURVE SMOOTH"
);
}
);
width = 1200;
},
{
anchors = (
{
name = bottom;
position = "{646, 0}";
},
{
name = top;
position = "{630, 1454}";
}
);
background = {
paths = (
{
closed = 1;
nodes = (
"804 -19 OFFCURVE",
"903 32 OFFCURVE",
"979 127 CURVE",
"998 0 LINE",
"1164 0 LINE",
"1164 793 LINE",
"712 793 LINE",
"712 591 LINE",
"955 591 LINE",
"955 339 LINE",
"907 266 OFFCURVE",
"828 187 OFFCURVE",
"668 187 CURVE SMOOTH",
"407 187 OFFCURVE",
"253 393 OFFCURVE",
"253 732 CURVE SMOOTH",
"253 1068 OFFCURVE",
"410 1274 OFFCURVE",
"649 1274 CURVE SMOOTH",
"803 1274 OFFCURVE",
"906 1188 OFFCURVE",
"925 1046 CURVE",
"1154 1046 LINE",
"1110 1339 OFFCURVE",
"903 1481 OFFCURVE",
"635 1481 CURVE SMOOTH",
"275 1481 OFFCURVE",
"25 1190 OFFCURVE",
"25 732 CURVE SMOOTH",
"25 271 OFFCURVE",
"277 -19 OFFCURVE",
"663 -19 CURVE SMOOTH"
);
}
);
};
layerId = "09AB1441-CF14-483D-884E-606841830E4D";
paths = (
{
closed = 1;
nodes = (
"911 0 LINE",
"1077 0 LINE",
"1077 770 LINE",
"892 197 LINE"
);
},
{
closed = 1;
nodes = (
"753 -29 OFFCURVE",
"867 63 OFFCURVE",
"892 197 CURVE",
"1077 770 LINE",
"636 770 LINE",
"636 568 LINE",
"874 568 LINE",
"874 260 LINE",
"835 206 OFFCURVE",
"751 178 OFFCURVE",
"630 178 CURVE SMOOTH",
"424 178 OFFCURVE",
"306 391 OFFCURVE",
"306 731 CURVE SMOOTH",
"306 1040 OFFCURVE",
"391 1274 OFFCURVE",
"628 1274 CURVE SMOOTH",
"762 1274 OFFCURVE",
"855 1208 OFFCURVE",
"872 1027 CURVE",
"1089 1027 LINE",
"1053 1379 OFFCURVE",
"870 1481 OFFCURVE",
"645 1481 CURVE SMOOTH",
"280 1481 OFFCURVE",
"80 1191 OFFCURVE",
"80 731 CURVE SMOOTH",
"80 271 OFFCURVE",
"261 -29 OFFCURVE",
"612 -29 CURVE SMOOTH"
);
}
);
width = 1200;
},
{
anchors = (
{
name = bottom;
position = "{621, 0}";
},
{
name = top;
position = "{650, 1454}";
}
);
background = {
paths = (
{
closed = 1;
nodes = (
"872 -28 OFFCURVE",
"1029 82 OFFCURVE",
"1100 180 CURVE",
"1100 813 LINE",
"616 813 LINE",
"616 539 LINE",
"814 539 LINE",
"814 330 LINE",
"781 302 OFFCURVE",
"726 267 OFFCURVE",
"630 267 CURVE SMOOTH",
"458 267 OFFCURVE",
"385 447 OFFCURVE",
"385 735 CURVE SMOOTH",
"385 1029 OFFCURVE",
"458 1186 OFFCURVE",
"640 1186 CURVE SMOOTH",
"792 1186 OFFCURVE",
"802 1070 OFFCURVE",
"818 990 CURVE",
"1107 990 LINE",
"1102 1311 OFFCURVE",
"935 1483 OFFCURVE",
"638 1481 CURVE SMOOTH",
"281 1479 OFFCURVE",
"63 1209 OFFCURVE",
"63 735 CURVE SMOOTH",
"63 254 OFFCURVE",
"292 -28 OFFCURVE",
"644 -28 CURVE SMOOTH"
);
},
{
closed = 1;
nodes = (
"786 -20 OFFCURVE",
"923 57 OFFCURVE",
"933 225 CURVE",
"976 0 LINE",
"1201 0 LINE",
"1201 827 LINE",
"681 827 LINE",
"681 542 LINE",
"906 542 LINE",
"906 383 LINE",
"853 320 OFFCURVE",
"791 282 OFFCURVE",
"680 282 CURVE SMOOTH",
"452 282 OFFCURVE",
"339 442 OFFCURVE",
"339 731 CURVE SMOOTH",
"339 1024 OFFCURVE",
"458 1179 OFFCURVE",
"653 1179 CURVE SMOOTH",
"804 1179 OFFCURVE",
"856 1086 OFFCURVE",
"881 994 CURVE",
"1183 1055 LINE",
"1125 1334 OFFCURVE",
"924 1481 OFFCURVE",
"646 1481 CURVE SMOOTH",
"275 1481 OFFCURVE",
"14 1208 OFFCURVE",
"14 739 CURVE SMOOTH",
"14 257 OFFCURVE",
"288 -20 OFFCURVE",
"619 -20 CURVE SMOOTH"
);
}
);
};
layerId = "BF6BC6F6-4B2A-4E9B-9E28-8B62B2F12FD9";
paths = (
{
closed = 1;
nodes = (
"962 0 LINE",
"1100 0 LINE",
"1100 813 LINE",
"900 200 LINE"
);
},
{
closed = 1;
nodes = (
"777 -28 OFFCURVE",
"873 69 OFFCURVE",
"900 200 CURVE",
"1100 813 LINE",
"616 813 LINE",
"616 539 LINE",
"844 539 LINE",
"844 330 LINE",
"786 285 OFFCURVE",
"724 267 OFFCURVE",
"630 267 CURVE SMOOTH",
"469 267 OFFCURVE",
"385 427 OFFCURVE",
"385 735 CURVE SMOOTH",
"385 1043 OFFCURVE",
"466 1186 OFFCURVE",
"640 1186 CURVE SMOOTH",
"744 1186 OFFCURVE",
"789 1137 OFFCURVE",
"818 990 CURVE",
"1107 990 LINE",
"1102 1310 OFFCURVE",
"936 1483 OFFCURVE",
"638 1481 CURVE SMOOTH",
"276 1479 OFFCURVE",
"63 1203 OFFCURVE",
"63 735 CURVE SMOOTH",
"63 263 OFFCURVE",
"274 -28 OFFCURVE",
"614 -28 CURVE SMOOTH"
);
}
);
width = 1200;
}
);
},
{
glyphname = J.ss07;
lastChange = "2022-02-16 15:21:34 +0000";
layers = (
{
anchors = (
{
name = bottom;
position = "{551, 0}";
},
{
name = top;
position = "{764, 1454}";
}
);
background = {
paths = (
{
closed = 1;
nodes = (
"850 -30 OFFCURVE",
"1050 103 OFFCURVE",
"1050 531 CURVE SMOOTH",
"1050 1454 LINE",
"816 1454 LINE",
"816 501 LINE SMOOTH",
"816 220 OFFCURVE",
"673 176 OFFCURVE",
"552 176 CURVE SMOOTH",
"392 176 OFFCURVE",
"269 245 OFFCURVE",
"270 515 CURVE",
"54 515 LINE",
"11 136 OFFCURVE",
"246 -30 OFFCURVE",
"554 -30 CURVE SMOOTH"
);
}
);
};
layerId = "0D9D1AFE-BAFC-449A-A530-9FCA9CDF2E2E";
paths = (
{
closed = 1;
nodes = (
"807 -30 OFFCURVE",
"1025 113 OFFCURVE",
"1025 501 CURVE SMOOTH",
"1025 1454 LINE",
"485 1454 LINE",
"485 1333 LINE",
"898 1333 LINE",
"898 521 LINE SMOOTH",
"898 213 OFFCURVE",
"773 87 OFFCURVE",
"545 87 CURVE SMOOTH",
"373 87 OFFCURVE",
"163 200 OFFCURVE",
"217 515 CURVE",
"89 515 LINE",
"36 138 OFFCURVE",
"283 -30 OFFCURVE",
"546 -30 CURVE SMOOTH"
);
}
);
width = 1200;
},
{
anchors = (
{
name = bottom;
position = "{560, 0}";
},
{
name = top;
position = "{761, 1454}";
}
);
layerId = "09AB1441-CF14-483D-884E-606841830E4D";
paths = (
{
closed = 1;
nodes = (
"850 -30 OFFCURVE",
"1050 103 OFFCURVE",
"1050 531 CURVE SMOOTH",
"1050 1454 LINE",
"455 1454 LINE",
"455 1254 LINE",
"818 1254 LINE",
"818 501 LINE SMOOTH",
"818 220 OFFCURVE",
"683 176 OFFCURVE",
"572 176 CURVE SMOOTH",
"432 176 OFFCURVE",
"309 245 OFFCURVE",
"310 515 CURVE",
"94 515 LINE",
"51 136 OFFCURVE",
"286 -30 OFFCURVE",
"574 -30 CURVE SMOOTH"
);
}
);
width = 1200;
},
{
anchors = (
{
name = bottom;
position = "{564, 0}";
},
{
name = top;
position = "{743, 1454}";
}
);
background = {
paths = (
{
closed = 1;
nodes = (
"850 -30 OFFCURVE",
"1050 103 OFFCURVE",
"1050 531 CURVE SMOOTH",
"1050 1454 LINE",
"818 1454 LINE",
"818 501 LINE SMOOTH",
"818 220 OFFCURVE",
"683 176 OFFCURVE",
"552 176 CURVE SMOOTH",
"392 176 OFFCURVE",
"269 245 OFFCURVE",
"270 515 CURVE",
"54 515 LINE",
"11 136 OFFCURVE",
"246 -30 OFFCURVE",
"554 -30 CURVE SMOOTH"
);
}
);
};
layerId = "BF6BC6F6-4B2A-4E9B-9E28-8B62B2F12FD9";
paths = (
{
closed = 1;
nodes = (
"901 -30 OFFCURVE",
"1080 142 OFFCURVE",
"1080 527 CURVE SMOOTH",
"1080 1454 LINE",
"421 1454 LINE",
"421 1175 LINE",
"756 1175 LINE",
"756 507 LINE SMOOTH",
"756 334 OFFCURVE",
"698 256 OFFCURVE",
"554 256 CURVE SMOOTH",
"436 256 OFFCURVE",
"350 312 OFFCURVE",
"351 555 CURVE",
"33 555 LINE",
"40 117 OFFCURVE",
"240 -30 OFFCURVE",
"560 -30 CURVE SMOOTH"
);
}
);
width = 1200;
}
);
userData = {
KernOnName = J;
};
},
{
glyphname = IJ.ss08;
lastChange = "2022-02-16 05:02:19 +0000";
layers = (
{
anchors = (
{
name = bottom;
position = "{600, 0}";
},
{
name = ogonek;
position = "{1061, 0}";
},
{
name = top;
position = "{1017, 1454}";
},
{
name = topleft;
position = "{203, 1454}";
}
);
background = {
paths = (
{
closed = 1;
nodes = (
"929 -30 OFFCURVE",
"1089 113 OFFCURVE",
"1089 461 CURVE SMOOTH",
"1089 1454 LINE",
"962 1454 LINE",
"962 441 LINE SMOOTH",
"962 179 OFFCURVE",
"846 89 OFFCURVE",
"670 89 CURVE SMOOTH",
"473 89 OFFCURVE",
"359 220 OFFCURVE",
"351 395 CURVE",
"223 395 LINE",
"230 138 OFFCURVE",
"395 -30 OFFCURVE",
"658 -30 CURVE SMOOTH"
);
}
);
};
layerId = "0D9D1AFE-BAFC-449A-A530-9FCA9CDF2E2E";
paths = (
{
closed = 1;
nodes = (
"267 1454 LINE",
"140 1454 LINE",
"140 0 LINE",
"267 0 LINE"
);
},
{
closed = 1;
nodes = (
"919 -29 OFFCURVE",
"1060 94 OFFCURVE",
"1060 383 CURVE SMOOTH",
"1060 1454 LINE",
"939 1454 LINE",
"939 1392 LINE",
"1008 1333 LINE",
"958 1321 OFFCURVE",
"939 1278 OFFCURVE",
"939 1218 CURVE SMOOTH",
"939 404 LINE SMOOTH",
"939 151 OFFCURVE",
"809 98 OFFCURVE",
"718 98 CURVE SMOOTH",
"615 98 OFFCURVE",
"511 110 OFFCURVE",
"416 149 CURVE",
"416 21 LINE",
"508 -14 OFFCURVE",
"636 -29 OFFCURVE",
"713 -29 CURVE SMOOTH"
);
},
{
closed = 1;
nodes = (
"1022 1333 LINE",
"1060 1454 LINE",
"509 1454 LINE",
"509 1333 LINE"
);
}
);
width = 1200;
},
{
anchors = (
{
name = bottom;
position = "{600, 0}";
},
{
name = ogonek;
position = "{1059, 0}";
},
{
name = top;
position = "{968, 1454}";
},
{
name = topleft;
position = "{237, 1454}";
}
);
background = {
paths = (
{
closed = 1;
nodes = (
"962 -30 OFFCURVE",
"1120 113 OFFCURVE",
"1120 461 CURVE SMOOTH",
"1120 1454 LINE",
"886 1454 LINE",
"886 441 LINE SMOOTH",
"886 206 OFFCURVE",
"803 176 OFFCURVE",
"662 176 CURVE SMOOTH",
"532 176 OFFCURVE",
"473 242 OFFCURVE",
"450 395 CURVE",
"234 395 LINE",
"241 96 OFFCURVE",
"408 -30 OFFCURVE",
"666 -30 CURVE SMOOTH"
);
}
);
};
layerId = "09AB1441-CF14-483D-884E-606841830E4D";
paths = (
{
closed = 1;
nodes = (
"349 1454 LINE",
"120 1454 LINE",
"120 0 LINE",
"349 0 LINE"
);
},
{
closed = 1;
nodes = (
"975 -30 OFFCURVE",
"1080 130 OFFCURVE",
"1080 358 CURVE SMOOTH",
"1080 1454 LINE",
"834 1454 LINE",
"834 1345 LINE",
"944 1246 LINE",
"873 1240 OFFCURVE",
"840 1183 OFFCURVE",
"840 1060 CURVE SMOOTH",
"840 348 LINE SMOOTH",
"840 216 OFFCURVE",
"783 189 OFFCURVE",
"680 189 CURVE SMOOTH",
"623 189 OFFCURVE",
"549 202 OFFCURVE",
"472 228 CURVE",
"472 20 LINE",
"557 -17 OFFCURVE",
"643 -30 OFFCURVE",
"705 -30 CURVE SMOOTH"
);
},
{
closed = 1;
nodes = (
"1040 1246 LINE",
"1080 1454 LINE",
"528 1454 LINE",
"528 1246 LINE"
);
}
);
width = 1200;
},
{
anchors = (
{
name = bottom;
position = "{600, 0}";
},
{
name = ogonek;
position = "{1085, 0}";
},
{
name = top;
position = "{971, 1454}";
},
{
name = topleft;
position = "{226, 1454}";
}
);
background = {
paths = (
{
closed = 1;
nodes = (
"950 -30 OFFCURVE",
"1109 142 OFFCURVE",
"1109 497 CURVE SMOOTH",
"1109 1454 LINE",
"785 1454 LINE",
"785 477 LINE SMOOTH",
"785 304 OFFCURVE",
"737 256 OFFCURVE",
"613 256 CURVE SMOOTH",
"485 256 OFFCURVE",
"429 312 OFFCURVE",
"430 485 CURVE",
"112 485 LINE",
"119 127 OFFCURVE",
"309 -30 OFFCURVE",
"619 -30 CURVE SMOOTH"
);
}
);
};
layerId = "BF6BC6F6-4B2A-4E9B-9E28-8B62B2F12FD9";
paths = (
{
closed = 1;
nodes = (
"382 1454 LINE",
"65 1454 LINE",
"65 0 LINE",
"382 0 LINE"
);
},
{
closed = 1;
nodes = (
"1054 -31 OFFCURVE",
"1135 142 OFFCURVE",
"1135 433 CURVE SMOOTH",
"1135 1454 LINE",
"826 1383 LINE",
"826 1293 LINE",
"936 1175 LINE",
"864 1164 OFFCURVE",
"826 1105 OFFCURVE",
"826 1015 CURVE SMOOTH",
"826 428 LINE SMOOTH",
"826 271 OFFCURVE",
"742 247 OFFCURVE",
"669 247 CURVE SMOOTH",
"608 247 OFFCURVE",
"529 267 OFFCURVE",
"480 281 CURVE",
"480 10 LINE",
"543 -9 OFFCURVE",
"619 -31 OFFCURVE",
"746 -31 CURVE SMOOTH"
);
},
{
closed = 1;
nodes = (
"1080 1175 LINE",
"1135 1454 LINE",
"521 1454 LINE",
"521 1175 LINE"
);
}
);
width = 1200;
}
);
},
{
glyphname = J.ss08;
lastChange = "2022-02-16 05:02:19 +0000";
layers = (
{
anchors = (
{
name = bottom;
position = "{551, 0}";
},
{
name = top;
position = "{750, 1454}";
}
);
background = {
paths = (
{
closed = 1;
nodes = (
"850 -30 OFFCURVE",
"1050 103 OFFCURVE",
"1050 531 CURVE SMOOTH",
"1050 1454 LINE",
"816 1454 LINE",
"816 501 LINE SMOOTH",
"816 220 OFFCURVE",
"673 176 OFFCURVE",
"552 176 CURVE SMOOTH",
"392 176 OFFCURVE",
"269 245 OFFCURVE",
"270 515 CURVE",
"54 515 LINE",
"11 136 OFFCURVE",
"246 -30 OFFCURVE",
"554 -30 CURVE SMOOTH"
);
}
);
};
layerId = "0D9D1AFE-BAFC-449A-A530-9FCA9CDF2E2E";
paths = (
{
closed = 1;
nodes = (
"812 -30 OFFCURVE",
"1020 103 OFFCURVE",
"1020 488 CURVE SMOOTH",
"1020 1454 LINE",
"774 1454 LINE",
"854 1432 LINE",
"964 1334 LINE",
"893 1328 OFFCURVE",
"893 1271 OFFCURVE",
"893 1148 CURVE SMOOTH",
"893 508 LINE SMOOTH",
"893 172 OFFCURVE",
"750 95 OFFCURVE",
"540 95 CURVE SMOOTH",
"379 95 OFFCURVE",
"243 135 OFFCURVE",
"170 184 CURVE",
"170 45 LINE",
"234 0 OFFCURVE",
"394 -30 OFFCURVE",
"549 -30 CURVE SMOOTH"
);
},
{
closed = 1;
nodes = (
"980 1334 LINE",
"1020 1454 LINE",
"468 1454 LINE",
"468 1334 LINE"
);
}
);
width = 1200;
},
{
anchors = (
{
name = bottom;
position = "{530, 0}";
},
{
name = top;
position = "{759, 1454}";
}
);
background = {
paths = (
{
closed = 1;
nodes = (
"850 -30 OFFCURVE",
"1050 103 OFFCURVE",
"1050 531 CURVE SMOOTH",
"1050 1454 LINE",
"818 1454 LINE",
"818 501 LINE SMOOTH",
"818 220 OFFCURVE",
"683 176 OFFCURVE",
"572 176 CURVE SMOOTH",
"432 176 OFFCURVE",
"309 245 OFFCURVE",
"310 515 CURVE",
"94 515 LINE",
"51 136 OFFCURVE",
"286 -30 OFFCURVE",
"574 -30 CURVE SMOOTH"
);
},
{
closed = 1;
nodes = (
"455 1254 LINE",
"881 1254 LINE",
"881 1454 LINE",
"455 1454 LINE"
);
},
{
closed = 1;
nodes = (
"974 -31 OFFCURVE",
"1055 142 OFFCURVE",
"1055 433 CURVE SMOOTH",
"1055 1454 LINE",
"746 1383 LINE",
"746 1293 LINE",
"856 1175 LINE",
"784 1164 OFFCURVE",
"746 1105 OFFCURVE",
"746 1015 CURVE SMOOTH",
"746 428 LINE SMOOTH",
"746 271 OFFCURVE",
"662 247 OFFCURVE",
"589 247 CURVE SMOOTH",
"388 247 OFFCURVE",
"289 277 OFFCURVE",
"200 311 CURVE",
"200 40 LINE",
"303 1 OFFCURVE",
"399 -31 OFFCURVE",
"590 -31 CURVE SMOOTH"
);
},
{
closed = 1;
nodes = (
"1000 1175 LINE",
"1055 1454 LINE",
"441 1454 LINE",
"441 1175 LINE"
);
}
);
};
layerId = "09AB1441-CF14-483D-884E-606841830E4D";
paths = (
{
closed = 1;
nodes = (
"915 -30 OFFCURVE",
"1020 160 OFFCURVE",
"1020 488 CURVE SMOOTH",
"1020 1454 LINE",
"774 1454 LINE",
"774 1345 LINE",
"900 1246 LINE",
"829 1240 OFFCURVE",
"796 1183 OFFCURVE",
"796 1060 CURVE SMOOTH",
"796 478 LINE SMOOTH",
"796 246 OFFCURVE",
"700 189 OFFCURVE",
"540 189 CURVE SMOOTH",
"399 189 OFFCURVE",
"259 232 OFFCURVE",
"170 268 CURVE",
"170 45 LINE",
"273 6 OFFCURVE",
"370 -30 OFFCURVE",
"565 -30 CURVE SMOOTH"
);
},
{
closed = 1;
nodes = (
"976 1246 LINE",
"1020 1454 LINE",
"468 1454 LINE",
"468 1246 LINE"
);
}
);
width = 1200;
},
{
anchors = (
{
name = bottom;
position = "{564, 0}";
},
{
name = top;
position = "{706, 1454}";
}
);
background = {
paths = (
{
closed = 1;
nodes = (
"850 -30 OFFCURVE",
"1050 103 OFFCURVE",
"1050 531 CURVE SMOOTH",
"1050 1454 LINE",
"818 1454 LINE",
"818 501 LINE SMOOTH",
"818 220 OFFCURVE",
"683 176 OFFCURVE",
"552 176 CURVE SMOOTH",
"392 176 OFFCURVE",
"269 245 OFFCURVE",
"270 515 CURVE",
"54 515 LINE",
"11 136 OFFCURVE",
"246 -30 OFFCURVE",
"554 -30 CURVE SMOOTH"
);
}
);
};
layerId = "BF6BC6F6-4B2A-4E9B-9E28-8B62B2F12FD9";
paths = (
{
closed = 1;
nodes = (
"944 -31 OFFCURVE",
"1025 142 OFFCURVE",
"1025 433 CURVE SMOOTH",
"1025 1454 LINE",
"716 1383 LINE",
"706 1293 LINE",
"820 1175 LINE",
"748 1164 OFFCURVE",
"710 1105 OFFCURVE",
"710 1015 CURVE SMOOTH",
"710 428 LINE SMOOTH",
"710 271 OFFCURVE",
"622 247 OFFCURVE",
"549 247 CURVE SMOOTH",
"348 247 OFFCURVE",
"259 277 OFFCURVE",
"170 311 CURVE",
"170 40 LINE",
"273 1 OFFCURVE",
"369 -31 OFFCURVE",
"560 -31 CURVE SMOOTH"
);
},
{
closed = 1;
nodes = (
"970 1175 LINE",
"1025 1454 LINE",
"381 1454 LINE",
"381 1175 LINE"
);
}
);
width = 1200;
}
);
userData = {
KernOnName = J;
};
},
{
glyphname = M.ss09;
lastChange = "2022-02-16 05:02:19 +0000";
layers = (
{
anchors = (
{
name = bottom;
position = "{601, 0}";
},
{
name = top;
position = "{601, 1454}";
}
);
layerId = "0D9D1AFE-BAFC-449A-A530-9FCA9CDF2E2E";
paths = (
{
closed = 1;
nodes = (
"221 0 LINE",
"241 849 LINE",
"243 1364 LINE",
"249 1364 LINE",
"352 863 LINE",
"567 0 LINE",
"642 0 LINE",
"848 863 LINE",
"952 1364 LINE",
"957 1364 LINE",
"959 849 LINE",
"979 0 LINE",
"1100 0 LINE",
"1064 1454 LINE",
"868 1454 LINE",
"680 570 LINE",
"604 190 LINE",
"601 190 LINE",
"525 570 LINE",
"332 1454 LINE",
"136 1454 LINE",
"100 0 LINE"
);
}
);
width = 1200;
},
{
anchors = (
{
name = bottom;
position = "{601, 0}";
},
{
name = top;
position = "{601, 1454}";
}
);
layerId = "09AB1441-CF14-483D-884E-606841830E4D";
paths = (
{
closed = 1;
nodes = (
"277 0 LINE",
"291 412 LINE",
"277 1274 LINE",
"293 1274 LINE",
"366 823 LINE",
"531 0 LINE",
"675 0 LINE",
"832 823 LINE",
"905 1274 LINE",
"921 1274 LINE",
"910 412 LINE",
"923 0 LINE",
"1122 0 LINE",
"1095 1454 LINE",
"782 1454 LINE",
"651 684 LINE",
"603 370 LINE",
"599 370 LINE",
"552 684 LINE",
"417 1454 LINE",
"105 1454 LINE",
"78 0 LINE"
);
}
);
width = 1200;
},
{
anchors = (
{
name = bottom;
position = "{600, 0}";
},
{
name = top;
position = "{600, 1454}";
}
);
layerId = "BF6BC6F6-4B2A-4E9B-9E28-8B62B2F12FD9";
paths = (
{
closed = 1;
nodes = (
"294 0 LINE",
"294 735 LINE",
"284 1265 LINE",
"292 1265 LINE",
"368 738 LINE",
"471 0 LINE",
"725 0 LINE",
"831 738 LINE",
"908 1265 LINE",
"915 1265 LINE",
"906 735 LINE",
"906 0 LINE",
"1171 0 LINE",
"1141 1454 LINE",
"709 1454 LINE",
"612 498 LINE",
"604 299 LINE",
"597 299 LINE",
"586 498 LINE",
"489 1454 LINE",
"59 1454 LINE",
"29 0 LINE"
);
}
);
width = 1200;
}
);
userData = {
KernOnName = M;
};
},
{
glyphname = W.ss10;
lastChange = "2022-02-16 05:02:19 +0000";
layers = (
{
anchors = (
{
name = bottom;
position = "{600, 0}";
},
{
name = top;
position = "{600, 1454}";
}
);
layerId = "0D9D1AFE-BAFC-449A-A530-9FCA9CDF2E2E";
paths = (
{
closed = 1;
nodes = (
"392 0 LINE",
"524 749 LINE SMOOTH",
"560 955 OFFCURVE",
"573 1164 OFFCURVE",
"598 1371 CURVE",
"602 1371 LINE",
"627 1164 OFFCURVE",
"640 955 OFFCURVE",
"676 749 CURVE SMOOTH",
"808 0 LINE",
"968 0 LINE",
"1205 1454 LINE",
"1081 1454 LINE",
"970 769 LINE SMOOTH",
"935 551 OFFCURVE",
"912 330 OFFCURVE",
"887 111 CURVE",
"878 111 LINE",
"787 769 LINE",
"686 1454 LINE",
"515 1454 LINE",
"413 769 LINE",
"317 111 LINE",
"309 111 LINE",
"281 330 OFFCURVE",
"265 550 OFFCURVE",
"230 769 CURVE SMOOTH",
"119 1454 LINE",
"-5 1454 LINE",
"232 0 LINE"
);
}
);
width = 1200;
},
{
anchors = (
{
name = bottom;
position = "{601, 0}";
},
{
name = top;
position = "{600, 1454}";
}
);
background = {
paths = (
{
closed = 1;
nodes = (
"470 0 LINE",
"548 570 LINE SMOOTH",
"564 689 OFFCURVE",
"582 999 OFFCURVE",
"598 1201 CURVE",
"602 1201 LINE",
"618 999 OFFCURVE",
"633 689 OFFCURVE",
"649 570 CURVE SMOOTH",
"726 0 LINE",
"1009 0 LINE",
"1196 1454 LINE",
"965 1454 LINE",
"907 779 LINE SMOOTH",
"888 557 OFFCURVE",
"851 380 OFFCURVE",
"840 191 CURVE",
"837 191 LINE",
"803 645 LINE",
"690 1454 LINE",
"505 1454 LINE",
"397 645 LINE",
"360 191 LINE",
"356 191 LINE",
"349 379 OFFCURVE",
"311 557 OFFCURVE",
"292 779 CURVE SMOOTH",
"235 1454 LINE",
"4 1454 LINE",
"187 0 LINE"
);
}
);
};
layerId = "09AB1441-CF14-483D-884E-606841830E4D";
paths = (
{
closed = 1;
nodes = (
"470 0 LINE",
"541 568 LINE SMOOTH",
"567 783 OFFCURVE",
"582 1039 OFFCURVE",
"597 1255 CURVE",
"603 1255 LINE",
"618 1039 OFFCURVE",
"631 785 OFFCURVE",
"659 568 CURVE SMOOTH",
"732 0 LINE",
"1008 0 LINE",
"1210 1454 LINE",
"970 1454 LINE",
"873 475 LINE SMOOTH",
"864 380 OFFCURVE",
"851 286 OFFCURVE",
"846 191 CURVE",
"838 191 LINE",
"807 645 LINE",
"719 1454 LINE",
"481 1454 LINE",
"393 645 LINE",
"362 191 LINE",
"355 191 LINE",
"349 286 OFFCURVE",
"336 379 OFFCURVE",
"327 475 CURVE SMOOTH",
"231 1454 LINE",
"-10 1454 LINE",
"194 0 LINE"
);
}
);
width = 1200;
},
{
anchors = (
{
name = bottom;
position = "{601, 0}";
},
{
name = top;
position = "{600, 1454}";
}
);
background = {
paths = (
{
closed = 1;
nodes = (
"1218 1454 LINE",
"932 1454 LINE",
"858 475 LINE SMOOTH",
"851 379 OFFCURVE",
"846 286 OFFCURVE",
"840 191 CURVE",
"833 191 LINE",
"804 645 LINE",
"723 1454 LINE",
"475 1454 LINE",
"394 645 LINE",
"350 191 LINE",
"342 191 LINE",
"342 286 OFFCURVE",
"347 380 OFFCURVE",
"340 475 CURVE SMOOTH",
"267 1454 LINE",
"-18 1454 LINE",
"190 0 LINE",
"491 0 LINE",
"552 568 LINE SMOOTH",
"575 784 OFFCURVE",
"582 999 OFFCURVE",
"597 1215 CURVE",
"603 1215 LINE",
"618 999 OFFCURVE",
"626 784 OFFCURVE",
"648 568 CURVE SMOOTH",
"707 0 LINE",
"1008 0 LINE"
);
}
);
};
layerId = "BF6BC6F6-4B2A-4E9B-9E28-8B62B2F12FD9";
paths = (
{
closed = 1;
nodes = (
"491 0 LINE",
"551 568 LINE SMOOTH",
"574 784 OFFCURVE",
"582 999 OFFCURVE",
"597 1215 CURVE",
"603 1215 LINE",
"618 999 OFFCURVE",
"625 784 OFFCURVE",
"649 568 CURVE SMOOTH",
"711 0 LINE",
"1018 0 LINE",
"1230 1454 LINE",
"940 1454 LINE",
"863 475 LINE SMOOTH",
"856 380 OFFCURVE",
"851 286 OFFCURVE",
"846 191 CURVE",
"838 191 LINE",
"807 645 LINE",
"726 1454 LINE",
"475 1454 LINE",
"393 645 LINE",
"362 191 LINE",
"355 191 LINE",
"349 286 OFFCURVE",
"344 379 OFFCURVE",
"337 475 CURVE SMOOTH",
"261 1454 LINE",
"-30 1454 LINE",
"184 0 LINE"
);
}
);
width = 1200;
}
);
userData = {
KernOnName = W;
};
},
{
glyphname = a;
lastChange = "2022-02-12 05:29:43 +0000";
layers = (
{
anchors = (
{
name = bottom;
position = "{592, 0}";
},
{
name = ogonek;
position = "{1015, 0}";
},
{
name = top;
position = "{608, 1091}";
}
);
layerId = "0D9D1AFE-BAFC-449A-A530-9FCA9CDF2E2E";
paths = (
{
closed = 1;
nodes = (
"706 -12 OFFCURVE",
"845 79 OFFCURVE",
"894 227 CURVE",
"895 0 LINE",
"1015 0 LINE",
"1015 743 LINE SMOOTH",
"1015 978 OFFCURVE",
"886 1112 OFFCURVE",
"616 1112 CURVE SMOOTH",
"333 1112 OFFCURVE",
"171 952 OFFCURVE",
"196 738 CURVE",
"324 738 LINE",
"312 905 OFFCURVE",
"403 999 OFFCURVE",
"615 999 CURVE SMOOTH",
"807 999 OFFCURVE",
"894 915 OFFCURVE",
"894 718 CURVE SMOOTH",
"894 634 LINE",
"709 627 OFFCURVE",
"603 615 OFFCURVE",
"515 597 CURVE SMOOTH",
"279 550 OFFCURVE",
"178 453 OFFCURVE",
"178 289 CURVE SMOOTH",
"178 107 OFFCURVE",
"303 -12 OFFCURVE",
"517 -12 CURVE SMOOTH"
);
},
{
closed = 1;
nodes = (
"389 92 OFFCURVE",
"308 163 OFFCURVE",
"308 288 CURVE SMOOTH",
"308 396 OFFCURVE",
"368 464 OFFCURVE",
"544 505 CURVE SMOOTH",
"626 524 OFFCURVE",
"746 543 OFFCURVE",
"894 550 CURVE",
"894 324 LINE",
"859 198 OFFCURVE",
"707 90 OFFCURVE",
"532 91 CURVE SMOOTH"
);
}
);
width = 1200;
},
{
anchors = (
{
name = bottom;
position = "{574, 0}";
},
{
name = ogonek;
position = "{1034, 0}";
},
{
name = top;
position = "{616, 1091}";
}
);
background = {
paths = (
{
closed = 1;
nodes = (
"868 -15 OFFCURVE",
"1081 182 OFFCURVE",
"1081 552 CURVE SMOOTH",
"1081 902 OFFCURVE",
"898 1113 OFFCURVE",
"600 1113 CURVE SMOOTH",
"326 1113 OFFCURVE",
"119 902 OFFCURVE",
"119 552 CURVE SMOOTH",
"119 182 OFFCURVE",
"310 -15 OFFCURVE",
"600 -15 CURVE SMOOTH"
);
},
{
closed = 1;
nodes = (
"450 178 OFFCURVE",
"347 302 OFFCURVE",
"347 552 CURVE SMOOTH",
"347 799 OFFCURVE",
"449 920 OFFCURVE",
"600 920 CURVE SMOOTH",
"757 920 OFFCURVE",
"853 795 OFFCURVE",
"853 552 CURVE SMOOTH",
"853 289 OFFCURVE",
"749 178 OFFCURVE",
"600 178 CURVE SMOOTH"
);
}
);
};
layerId = "09AB1441-CF14-483D-884E-606841830E4D";
paths = (
{
closed = 1;
nodes = (
"640 -12 OFFCURVE",
"783 97 OFFCURVE",
"821 243 CURVE",
"821 0 LINE",
"1034 0 LINE",
"1034 706 LINE SMOOTH",
"1034 977 OFFCURVE",
"886 1112 OFFCURVE",
"617 1112 CURVE SMOOTH",
"347 1112 OFFCURVE",
"170 962 OFFCURVE",
"192 720 CURVE",
"395 720 LINE",
"392 887 OFFCURVE",
"477 928 OFFCURVE",
"616 928 CURVE SMOOTH",
"755 928 OFFCURVE",
"821 875 OFFCURVE",
"821 731 CURVE SMOOTH",
"821 647 LINE",
"771 643 OFFCURVE",
"612 629 OFFCURVE",
"464 603 CURVE SMOOTH",
"256 566 OFFCURVE",
"150 457 OFFCURVE",
"150 296 CURVE SMOOTH",
"150 106 OFFCURVE",
"280 -12 OFFCURVE",
"480 -12 CURVE SMOOTH"
);
},
{
closed = 1;
nodes = (
"446 162 OFFCURVE",
"387 220 OFFCURVE",
"387 312 CURVE SMOOTH",
"387 405 OFFCURVE",
"444 451 OFFCURVE",
"612 485 CURVE SMOOTH",
"677 498 OFFCURVE",
"792 514 OFFCURVE",
"821 517 CURVE",
"821 313 LINE",
"804 234 OFFCURVE",
"663 162 OFFCURVE",
"556 162 CURVE SMOOTH"
);
}
);
width = 1200;
},
{
anchors = (
{
name = bottom;
position = "{609, 0}";
},
{
name = ogonek;
position = "{1067, 0}";
},
{
name = top;
position = "{619, 1091}";
}
);
layerId = "BF6BC6F6-4B2A-4E9B-9E28-8B62B2F12FD9";
paths = (
{
closed = 1;
nodes = (
"617 -12 OFFCURVE",
"733 81 OFFCURVE",
"760 255 CURVE",
"758 0 LINE",
"1067 0 LINE",
"1067 714 LINE SMOOTH",
"1067 974 OFFCURVE",
"915 1112 OFFCURVE",
"618 1112 CURVE SMOOTH",
"304 1112 OFFCURVE",
"136 956 OFFCURVE",
"158 704 CURVE",
"452 704 LINE",
"445 820 OFFCURVE",
"501 872 OFFCURVE",
"611 872 CURVE SMOOTH",
"724 872 OFFCURVE",
"760 827 OFFCURVE",
"760 708 CURVE SMOOTH",
"760 652 LINE",
"620 640 OFFCURVE",
"528 626 OFFCURVE",
"453 610 CURVE SMOOTH",
"220 559 OFFCURVE",
"129 469 OFFCURVE",
"129 302 CURVE SMOOTH",
"129 110 OFFCURVE",
"249 -12 OFFCURVE",
"449 -12 CURVE SMOOTH"
);
},
{
closed = 1;
nodes = (
"497 194 OFFCURVE",
"443 239 OFFCURVE",
"443 319 CURVE SMOOTH",
"443 407 OFFCURVE",
"505 452 OFFCURVE",
"620 480 CURVE SMOOTH",
"649 487 OFFCURVE",
"710 498 OFFCURVE",
"760 508 CURVE",
"760 336 LINE",
"746 258 OFFCURVE",
"653 194 OFFCURVE",
"567 194 CURVE SMOOTH"
);
}
);
width = 1200;
}
);
unicode = 0061;
userData = {
KernOnName = a;
};
},
{
glyphname = ae;
lastChange = "2022-02-12 05:29:43 +0000";
layers = (
{
anchors = (
{
name = bottom;
position = "{607, 0}";
},
{
name = top;
position = "{607, 1091}";
}
);
background = {
components = (
{
name = a;
}
);
};
layerId = "0D9D1AFE-BAFC-449A-A530-9FCA9CDF2E2E";
paths = (
{
closed = 1;
nodes = (
"426 -12 OFFCURVE",
"519 94 OFFCURVE",
"564 277 CURVE",
"616 90 OFFCURVE",
"719 -12 OFFCURVE",
"874 -12 CURVE SMOOTH",
"1046 -12 OFFCURVE",
"1146 113 OFFCURVE",
"1151 310 CURVE",
"1036 310 LINE",
"1025 176 OFFCURVE",
"983 100 OFFCURVE",
"875 100 CURVE SMOOTH",
"726 100 OFFCURVE",
"647 246 OFFCURVE",
"638 517 CURVE",
"1164 517 LINE",
"1167 569 OFFCURVE",
"1168 589 OFFCURVE",
"1168 614 CURVE SMOOTH",
"1168 932 OFFCURVE",
"1059 1113 OFFCURVE",
"866 1113 CURVE SMOOTH",
"727 1113 OFFCURVE",
"637 1019 OFFCURVE",
"599 907 CURVE",
"567 1024 OFFCURVE",
"493 1112 OFFCURVE",
"351 1112 CURVE SMOOTH",
"178 1112 OFFCURVE",
"41 981 OFFCURVE",
"69 736 CURVE",
"182 736 LINE",
"169 960 OFFCURVE",
"256 995 OFFCURVE",
"346 995 CURVE SMOOTH",
"465 995 OFFCURVE",
"521 932 OFFCURVE",
"521 718 CURVE SMOOTH",
"521 634 LINE",
"449 630 OFFCURVE",
"343 622 OFFCURVE",
"262 597 CURVE SMOOTH",
"126 554 OFFCURVE",
"52 446 OFFCURVE",
"52 293 CURVE SMOOTH",
"52 114 OFFCURVE",
"154 -12 OFFCURVE",
"296 -12 CURVE SMOOTH"
);
},
{
closed = 1;
nodes = (
"215 91 OFFCURVE",
"177 189 OFFCURVE",
"177 288 CURVE SMOOTH",
"177 393 OFFCURVE",
"220 464 OFFCURVE",
"320 505 CURVE SMOOTH",
"379 529 OFFCURVE",
"460 545 OFFCURVE",
"521 551 CURVE",
"521 313 LINE",
"506 244 OFFCURVE",
"427 91 OFFCURVE",
"309 91 CURVE SMOOTH"
);
},
{
closed = 1;
nodes = (
"646 838 OFFCURVE",
"721 998 OFFCURVE",
"866 998 CURVE SMOOTH",
"994 998 OFFCURVE",
"1050 872 OFFCURVE",
"1050 625 CURVE",
"706 625 LINE SMOOTH",
"665 625 OFFCURVE",
"645 607 OFFCURVE",
"638 563 CURVE"
);
}
);
width = 1200;
},
{
anchors = (
{
name = bottom;
position = "{583, 0}";
},
{
name = top;
position = "{606, 1091}";
}
);
layerId = "09AB1441-CF14-483D-884E-606841830E4D";
paths = (
{
closed = 1;
nodes = (
"442 -13 OFFCURVE",
"517 93 OFFCURVE",
"544 278 CURVE",
"593 85 OFFCURVE",
"720 -13 OFFCURVE",
"865 -13 CURVE SMOOTH",
"1035 -13 OFFCURVE",
"1158 116 OFFCURVE",
"1163 310 CURVE",
"959 310 LINE",
"955 244 OFFCURVE",
"910 171 OFFCURVE",
"833 171 CURVE SMOOTH",
"739 171 OFFCURVE",
"687 287 OFFCURVE",
"682 517 CURVE",
"1172 517 LINE",
"1174 533 OFFCURVE",
"1176 562 OFFCURVE",
"1176 607 CURVE SMOOTH",
"1176 936 OFFCURVE",
"1066 1113 OFFCURVE",
"864 1113 CURVE SMOOTH",
"755 1113 OFFCURVE",
"653 1062 OFFCURVE",
"606 909 CURVE",
"573 1066 OFFCURVE",
"474 1112 OFFCURVE",
"364 1112 CURVE SMOOTH",
"171 1112 OFFCURVE",
"40 978 OFFCURVE",
"60 725 CURVE",
"261 725 LINE",
"260 876 OFFCURVE",
"296 922 OFFCURVE",
"370 922 CURVE SMOOTH",
"460 922 OFFCURVE",
"488 854 OFFCURVE",
"488 694 CURVE SMOOTH",
"488 647 LINE",
"429 642 OFFCURVE",
"340 635 OFFCURVE",
"249 602 CURVE SMOOTH",
"102 548 OFFCURVE",
"39 455 OFFCURVE",
"39 300 CURVE SMOOTH",
"39 102 OFFCURVE",
"141 -13 OFFCURVE",
"293 -13 CURVE SMOOTH"
);
},
{
closed = 1;
nodes = (
"291 162 OFFCURVE",
"252 214 OFFCURVE",
"252 312 CURVE SMOOTH",
"252 414 OFFCURVE",
"295 450 OFFCURVE",
"383 485 CURVE SMOOTH",
"423 501 OFFCURVE",
"469 514 OFFCURVE",
"497 517 CURVE",
"497 313 LINE",
"484 221 OFFCURVE",
"408 162 OFFCURVE",
"347 162 CURVE SMOOTH"
);
},
{
closed = 1;
nodes = (
"685 809 OFFCURVE",
"731 920 OFFCURVE",
"840 920 CURVE SMOOTH",
"934 920 OFFCURVE",
"967 836 OFFCURVE",
"967 676 CURVE",
"774 676 LINE SMOOTH",
"716 676 OFFCURVE",
"687 658 OFFCURVE",
"680 604 CURVE"
);
}
);
width = 1200;
},
{
anchors = (
{
name = bottom;
position = "{519, 0}";
},
{
name = top;
position = "{604, 1091}";
}
);
layerId = "BF6BC6F6-4B2A-4E9B-9E28-8B62B2F12FD9";
paths = (
{
closed = 1;
nodes = (
"434 -14 OFFCURVE",
"491 81 OFFCURVE",
"516 263 CURVE",
"553 48 OFFCURVE",
"724 -14 OFFCURVE",
"837 -14 CURVE SMOOTH",
"1015 -14 OFFCURVE",
"1160 142 OFFCURVE",
"1166 356 CURVE",
"902 356 LINE",
"908 271 OFFCURVE",
"866 225 OFFCURVE",
"806 225 CURVE SMOOTH",
"747 225 OFFCURVE",
"709 269 OFFCURVE",
"709 486 CURVE",
"1163 486 LINE",
"1166 532 OFFCURVE",
"1167 558 OFFCURVE",
"1167 591 CURVE SMOOTH",
"1167 925 OFFCURVE",
"1051 1113 OFFCURVE",
"845 1113 CURVE SMOOTH",
"737 1113 OFFCURVE",
"633 1061 OFFCURVE",
"609 961 CURVE",
"593 1059 OFFCURVE",
"498 1112 OFFCURVE",
"382 1112 CURVE SMOOTH",
"191 1112 OFFCURVE",
"41 967 OFFCURVE",
"58 725 CURVE",
"326 725 LINE",
"325 831 OFFCURVE",
"343 870 OFFCURVE",
"406 870 CURVE SMOOTH",
"460 870 OFFCURVE",
"475 841 OFFCURVE",
"475 682 CURVE SMOOTH",
"475 652 LINE",
"386 643 OFFCURVE",
"323 632 OFFCURVE",
"262 612 CURVE SMOOTH",
"112 562 OFFCURVE",
"42 470 OFFCURVE",
"42 295 CURVE SMOOTH",
"42 91 OFFCURVE",
"137 -14 OFFCURVE",
"289 -14 CURVE SMOOTH"
);
},
{
closed = 1;
nodes = (
"332 194 OFFCURVE",
"318 240 OFFCURVE",
"318 312 CURVE SMOOTH",
"318 411 OFFCURVE",
"344 452 OFFCURVE",
"410 480 CURVE SMOOTH",
"445 495 OFFCURVE",
"447 498 OFFCURVE",
"485 508 CURVE",
"485 336 LINE",
"476 257 OFFCURVE",
"424 194 OFFCURVE",
"374 194 CURVE SMOOTH"
);
},
{
closed = 1;
nodes = (
"702 765 OFFCURVE",
"733 870 OFFCURVE",
"808 870 CURVE SMOOTH",
"860 870 OFFCURVE",
"901 814 OFFCURVE",
"898 661 CURVE",
"822 661 LINE SMOOTH",
"748 661 OFFCURVE",
"712 635 OFFCURVE",
"705 560 CURVE"
);
}
);
width = 1200;
}
);
unicode = 00E6;
},
{
glyphname = b;
lastChange = "2022-02-12 05:30:34 +0000";
layers = (
{
anchors = (
{
name = bottom;
position = "{570, 0}";
},
{
name = top;
position = "{570, 1586}";
}
);
background = {
paths = (
{
closed = 1;
nodes = (
"466 1112 OFFCURVE",
"340 1019 OFFCURVE",
"309 869 CURVE",
"299 824 LINE",
"309 790 LINE",
"358 923 OFFCURVE",
"462 996 OFFCURVE",
"604 996 CURVE SMOOTH",
"805 996 OFFCURVE",
"937 837 OFFCURVE",
"937 572 CURVE SMOOTH",
"937 272 OFFCURVE",
"772 104 OFFCURVE",
"592 104 CURVE SMOOTH",
"455 104 OFFCURVE",
"351 166 OFFCURVE",
"309 263 CURVE",
"262 241 LINE",
"296 206 LINE",
"316 79 OFFCURVE",
"437 -12 OFFCURVE",
"600 -12 CURVE SMOOTH",
"843 -12 OFFCURVE",
"1063 212 OFFCURVE",
"1063 569 CURVE SMOOTH",
"1063 913 OFFCURVE",
"879 1112 OFFCURVE",
"625 1112 CURVE SMOOTH"
);
},
{
closed = 1;
nodes = (
"187 1100 LINE",
"189 -456 LINE",
"309 -456 LINE",
"309 790 LINE",
"309 1100 LINE"
);
}
);
};
layerId = "0D9D1AFE-BAFC-449A-A530-9FCA9CDF2E2E";
paths = (
{
closed = 1;
nodes = (
"302 0 LINE",
"308 164 LINE",
"327 168 LINE",
"309 204 LINE",
"309 1068 LINE",
"309 1556 LINE",
"189 1556 LINE",
"190 0 LINE"
);
},
{
closed = 1;
nodes = (
"501 1112 OFFCURVE",
"340 1019 OFFCURVE",
"309 849 CURVE",
"299 804 LINE",
"309 770 LINE",
"358 923 OFFCURVE",
"497 996 OFFCURVE",
"649 996 CURVE SMOOTH",
"836 996 OFFCURVE",
"934 843 OFFCURVE",
"934 578 CURVE SMOOTH",
"934 278 OFFCURVE",
"775 104 OFFCURVE",
"585 104 CURVE SMOOTH",
"468 104 OFFCURVE",
"351 146 OFFCURVE",
"309 243 CURVE",
"262 221 LINE",
"296 196 LINE",
"316 69 OFFCURVE",
"480 -12 OFFCURVE",
"593 -12 CURVE SMOOTH",
"846 -12 OFFCURVE",
"1063 218 OFFCURVE",
"1063 575 CURVE SMOOTH",
"1063 919 OFFCURVE",
"910 1112 OFFCURVE",
"670 1112 CURVE SMOOTH"
);
}
);
width = 1200;
},
{
anchors = (
{
name = bottom;
position = "{580, 0}";
},
{
name = top;
position = "{580, 1586}";
}
);
background = {
paths = (
{
closed = 1;
nodes = (
"897 -12 OFFCURVE",
"1083 172 OFFCURVE",
"1083 552 CURVE SMOOTH",
"1083 909 OFFCURVE",
"937 1109 OFFCURVE",
"697 1109 CURVE SMOOTH",
"543 1109 OFFCURVE",
"411 1006 OFFCURVE",
"387 846 CURVE",
"376 814 LINE",
"392 776 LINE",
"412 847 OFFCURVE",
"515 924 OFFCURVE",
"639 924 CURVE SMOOTH",
"787 924 OFFCURVE",
"854 782 OFFCURVE",
"854 567 CURVE SMOOTH",
"854 300 OFFCURVE",
"763 176 OFFCURVE",
"603 176 CURVE SMOOTH",
"514 176 OFFCURVE",
"457 194 OFFCURVE",
"394 248 CURVE",
"325 232 LINE",
"384 207 LINE",
"413 84 OFFCURVE",
"531 -12 OFFCURVE",
"660 -12 CURVE SMOOTH"
);
},
{
closed = 1;
nodes = (
"386 0 LINE",
"392 176 LINE",
"411 200 LINE",
"394 236 LINE",
"393 1068 LINE",
"393 1556 LINE",
"169 1556 LINE",
"170 0 LINE"
);
}
);
};
layerId = "09AB1441-CF14-483D-884E-606841830E4D";
paths = (
{
closed = 1;
nodes = (
"386 0 LINE",
"392 176 LINE",
"411 200 LINE",
"394 236 LINE",
"393 1068 LINE",
"393 1556 LINE",
"169 1556 LINE",
"170 0 LINE"
);
},
{
closed = 1;
nodes = (
"548 1112 OFFCURVE",
"410 993 OFFCURVE",
"392 856 CURVE",
"383 824 LINE",
"393 738 LINE",
"420 869 OFFCURVE",
"560 923 OFFCURVE",
"631 923 CURVE SMOOTH",
"796 923 OFFCURVE",
"865 798 OFFCURVE",
"865 577 CURVE SMOOTH",
"865 309 OFFCURVE",
"755 174 OFFCURVE",
"593 174 CURVE SMOOTH",
"515 174 OFFCURVE",
"408 216 OFFCURVE",
"386 336 CURVE",
"309 239 LINE",
"381 207 LINE",
"413 80 OFFCURVE",
"534 -12 OFFCURVE",
"657 -12 CURVE SMOOTH",
"893 -12 OFFCURVE",
"1094 203 OFFCURVE",
"1094 576 CURVE SMOOTH",
"1094 925 OFFCURVE",
"944 1112 OFFCURVE",
"712 1112 CURVE SMOOTH"
);
}
);
width = 1200;
},
{
anchors = (
{
name = bottom;
position = "{565, 0}";
},
{
name = top;
position = "{565, 1586}";
}
);
background = {
paths = (
{
closed = 1;
nodes = (
"960 -13 OFFCURVE",
"1122 206 OFFCURVE",
"1122 564 CURVE SMOOTH",
"1122 898 OFFCURVE",
"983 1112 OFFCURVE",
"754 1112 CURVE SMOOTH",
"597 1112 OFFCURVE",
"485 1021 OFFCURVE",
"453 841 CURVE",
"440 774 LINE",
"452 766 LINE",
"460 808 OFFCURVE",
"540 855 OFFCURVE",
"625 855 CURVE SMOOTH",
"753 855 OFFCURVE",
"814 753 OFFCURVE",
"814 559 CURVE SMOOTH",
"814 338 OFFCURVE",
"744 239 OFFCURVE",
"613 239 CURVE SMOOTH",
"530 239 OFFCURVE",
"473 282 OFFCURVE",
"452 361 CURVE",
"411 305 LINE",
"440 193 LINE",
"468 64 OFFCURVE",
"569 -13 OFFCURVE",
"718 -13 CURVE SMOOTH"
);
},
{
closed = 1;
nodes = (
"427 0 LINE",
"442 187 LINE",
"445 259 LINE",
"453 314 LINE",
"453 1016 LINE",
"453 1556 LINE",
"146 1556 LINE",
"146 0 LINE"
);
}
);
};
layerId = "BF6BC6F6-4B2A-4E9B-9E28-8B62B2F12FD9";
paths = (
{
closed = 1;
nodes = (
"427 0 LINE",
"442 187 LINE",
"445 259 LINE",
"453 314 LINE",
"453 1016 LINE",
"453 1561 LINE",
"146 1561 LINE",
"146 0 LINE"
);
},
{
closed = 1;
nodes = (
"581 1112 OFFCURVE",
"499 1008 OFFCURVE",
"453 831 CURVE",
"442 757 LINE",
"453 713 LINE",
"468 789 OFFCURVE",
"553 857 OFFCURVE",
"634 857 CURVE SMOOTH",
"743 857 OFFCURVE",
"825 778 OFFCURVE",
"825 556 CURVE SMOOTH",
"825 353 OFFCURVE",
"732 243 OFFCURVE",
"609 243 CURVE SMOOTH",
"527 243 OFFCURVE",
"474 295 OFFCURVE",
"453 374 CURVE",
"408 315 LINE",
"443 223 LINE",
"473 75 OFFCURVE",
"561 -13 OFFCURVE",
"708 -13 CURVE SMOOTH",
"947 -13 OFFCURVE",
"1133 207 OFFCURVE",
"1133 557 CURVE SMOOTH",
"1133 920 OFFCURVE",
"960 1112 OFFCURVE",
"763 1112 CURVE SMOOTH"
);
}
);
width = 1200;
}
);
unicode = 0062;
userData = {
KernOnName = b;
};
},
{
glyphname = c;
lastChange = "2022-02-12 05:29:56 +0000";
layers = (
{
anchors = (
{
name = bottom;
position = "{580, 0}";
},
{
name = top;
position = "{601, 1091}";
}
);
background = {
paths = (
{
closed = 1;
nodes = (
"836 -15 OFFCURVE",
"987 115 OFFCURVE",
"1004 310 CURVE",
"877 310 LINE",
"863 181 OFFCURVE",
"772 100 OFFCURVE",
"599 100 CURVE SMOOTH",
"415 100 OFFCURVE",
"271 258 OFFCURVE",
"263 517 CURVE",
"1017 517 LINE",
"1018 533 OFFCURVE",
"1022 567 OFFCURVE",
"1022 606 CURVE SMOOTH",
"1022 901 OFFCURVE",
"867 1113 OFFCURVE",
"593 1113 CURVE SMOOTH",
"333 1113 OFFCURVE",
"142 901 OFFCURVE",
"142 553 CURVE SMOOTH",
"142 186 OFFCURVE",
"361 -15 OFFCURVE",
"599 -15 CURVE SMOOTH"
);
},
{
closed = 1;
nodes = (
"268 836 OFFCURVE",
"384 998 OFFCURVE",
"586 998 CURVE SMOOTH",
"790 998 OFFCURVE",
"899 854 OFFCURVE",
"899 625 CURVE",
"355 625 LINE SMOOTH",
"307 625 OFFCURVE",
"273 615 OFFCURVE",
"263 563 CURVE"
);
}
);
};
layerId = "0D9D1AFE-BAFC-449A-A530-9FCA9CDF2E2E";
paths = (
{
closed = 1;
nodes = (
"886 -15 OFFCURVE",
"1009 148 OFFCURVE",
"1031 303 CURVE",
"901 303 LINE",
"881 208 OFFCURVE",
"833 101 OFFCURVE",
"616 101 CURVE SMOOTH",
"399 101 OFFCURVE",
"273 269 OFFCURVE",
"273 549 CURVE SMOOTH",
"273 842 OFFCURVE",
"400 996 OFFCURVE",
"613 996 CURVE SMOOTH",
"838 996 OFFCURVE",
"903 811 OFFCURVE",
"914 696 CURVE",
"1044 696 LINE",
"1024 924 OFFCURVE",
"878 1112 OFFCURVE",
"624 1112 CURVE SMOOTH",
"347 1112 OFFCURVE",
"146 913 OFFCURVE",
"146 540 CURVE SMOOTH",
"146 187 OFFCURVE",
"342 -15 OFFCURVE",
"610 -15 CURVE SMOOTH"
);
}
);
width = 1200;
},
{
anchors = (
{
name = bottom;
position = "{614, 0}";
},
{
name = top;
position = "{615, 1091}";
}
);
background = {
components = (
{
name = e;
}
);
};
layerId = "09AB1441-CF14-483D-884E-606841830E4D";
paths = (
{
closed = 1;
nodes = (
"861 -19 OFFCURVE",
"1064 105 OFFCURVE",
"1059 313 CURVE",
"848 313 LINE",
"842 227 OFFCURVE",
"759 171 OFFCURVE",
"653 171 CURVE SMOOTH",
"463 171 OFFCURVE",
"371 299 OFFCURVE",
"371 554 CURVE SMOOTH",
"371 775 OFFCURVE",
"443 924 OFFCURVE",
"626 923 CURVE SMOOTH",
"771 922 OFFCURVE",
"841 824 OFFCURVE",
"842 686 CURVE",
"1060 686 LINE",
"1066 915 OFFCURVE",
"910 1112 OFFCURVE",
"625 1112 CURVE SMOOTH",
"345 1112 OFFCURVE",
"146 905 OFFCURVE",
"146 549 CURVE SMOOTH",
"146 211 OFFCURVE",
"335 -19 OFFCURVE",
"647 -19 CURVE SMOOTH"
);
}
);
width = 1200;
},
{
anchors = (
{
name = bottom;
position = "{606, 0}";
},
{
name = top;
position = "{599, 1091}";
}
);
background = {
components = (
{
name = e;
}
);
};
layerId = "BF6BC6F6-4B2A-4E9B-9E28-8B62B2F12FD9";
paths = (
{
closed = 1;
nodes = (
"919 -19 OFFCURVE",
"1091 132 OFFCURVE",
"1085 354 CURVE",
"785 354 LINE",
"788 257 OFFCURVE",
"709 225 OFFCURVE",
"631 225 CURVE SMOOTH",
"498 225 OFFCURVE",
"425 322 OFFCURVE",
"425 556 CURVE SMOOTH",
"425 767 OFFCURVE",
"488 869 OFFCURVE",
"622 869 CURVE SMOOTH",
"725 869 OFFCURVE",
"783 804 OFFCURVE",
"785 657 CURVE",
"1088 657 LINE",
"1092 918 OFFCURVE",
"943 1112 OFFCURVE",
"622 1112 CURVE SMOOTH",
"305 1112 OFFCURVE",
"120 898 OFFCURVE",
"120 551 CURVE SMOOTH",
"120 211 OFFCURVE",
"294 -19 OFFCURVE",
"629 -19 CURVE SMOOTH"
);
}
);
width = 1200;
}
);
unicode = 0063;
userData = {
KernOnName = c;
};
},
{
glyphname = d;
lastChange = "2022-02-16 04:45:59 +0000";
layers = (
{
anchors = (
{
name = bottom;
position = "{592, 0}";
},
{
name = center;
position = "{592, 546}";
},
{
name = top;
position = "{592, 1586}";
},
{
name = topright;
position = "{1010, 1091}";
}
);
background = {
paths = (
{
closed = 1;
nodes = (
"1021 -403 LINE",
"1021 1091 LINE",
"904 1091 LINE",
"899 910 LINE",
"901 -403 LINE"
);
},
{
closed = 1;
nodes = (
"742 -12 OFFCURVE",
"868 81 OFFCURVE",
"899 231 CURVE",
"909 276 LINE",
"899 310 LINE",
"850 177 OFFCURVE",
"746 104 OFFCURVE",
"604 104 CURVE SMOOTH",
"413 104 OFFCURVE",
"281 263 OFFCURVE",
"281 538 CURVE SMOOTH",
"281 838 OFFCURVE",
"426 996 OFFCURVE",
"636 996 CURVE SMOOTH",
"753 996 OFFCURVE",
"857 934 OFFCURVE",
"899 837 CURVE",
"946 859 LINE",
"912 894 LINE",
"892 1021 OFFCURVE",
"751 1112 OFFCURVE",
"618 1112 CURVE SMOOTH",
"345 1112 OFFCURVE",
"155 898 OFFCURVE",
"155 541 CURVE SMOOTH",
"155 187 OFFCURVE",
"339 -12 OFFCURVE",
"583 -12 CURVE SMOOTH"
);
}
);
};
layerId = "0D9D1AFE-BAFC-449A-A530-9FCA9CDF2E2E";
paths = (
{
closed = 1;
nodes = (
"732 -12 OFFCURVE",
"868 81 OFFCURVE",
"899 251 CURVE",
"909 296 LINE",
"899 330 LINE",
"850 197 OFFCURVE",
"736 104 OFFCURVE",
"604 104 CURVE SMOOTH",
"403 104 OFFCURVE",
"284 293 OFFCURVE",
"284 538 CURVE SMOOTH",
"284 838 OFFCURVE",
"426 996 OFFCURVE",
"636 996 CURVE SMOOTH",
"753 996 OFFCURVE",
"857 934 OFFCURVE",
"899 837 CURVE",
"946 859 LINE",
"912 894 LINE",
"892 1021 OFFCURVE",
"751 1112 OFFCURVE",
"618 1112 CURVE SMOOTH",
"345 1112 OFFCURVE",
"155 898 OFFCURVE",
"155 541 CURVE SMOOTH",
"155 217 OFFCURVE",
"329 -12 OFFCURVE",
"583 -12 CURVE SMOOTH"
);
},
{
closed = 1;
nodes = (
"1021 0 LINE",
"1019 1556 LINE",
"899 1556 LINE",
"899 330 LINE",
"899 0 LINE"
);
}
);
width = 1200;
},
{
anchors = (
{
name = bottom;
position = "{581, 0}";
},
{
name = center;
position = "{581, 546}";
},
{
name = top;
position = "{581, 1586}";
},
{
name = topright;
position = "{1064, 1091}";
}
);
layerId = "09AB1441-CF14-483D-884E-606841830E4D";
paths = (
{
closed = 1;
nodes = (
"666 -12 OFFCURVE",
"801 107 OFFCURVE",
"819 244 CURVE",
"828 276 LINE",
"818 350 LINE",
"791 219 OFFCURVE",
"682 171 OFFCURVE",
"601 171 CURVE SMOOTH",
"437 171 OFFCURVE",
"345 317 OFFCURVE",
"345 551 CURVE SMOOTH",
"345 783 OFFCURVE",
"462 922 OFFCURVE",
"633 922 CURVE SMOOTH",
"702 922 OFFCURVE",
"803 874 OFFCURVE",
"825 754 CURVE",
"902 861 LINE",
"830 893 LINE",
"798 1020 OFFCURVE",
"705 1112 OFFCURVE",
"563 1112 CURVE SMOOTH",
"313 1112 OFFCURVE",
"116 893 OFFCURVE",
"116 554 CURVE SMOOTH",
"116 192 OFFCURVE",
"282 -12 OFFCURVE",
"522 -12 CURVE SMOOTH"
);
},
{
closed = 1;
nodes = (
"1042 0 LINE",
"1042 1556 LINE",
"818 1556 LINE",
"818 350 LINE",
"821 0 LINE"
);
}
);
width = 1200;
},
{
anchors = (
{
name = bottom;
position = "{587, 0}";
},
{
name = center;
position = "{587, 546}";
},
{
name = top;
position = "{587, 1586}";
},
{
name = topright;
position = "{1088, 1091}";
}
);
layerId = "BF6BC6F6-4B2A-4E9B-9E28-8B62B2F12FD9";
paths = (
{
closed = 1;
nodes = (
"644 -13 OFFCURVE",
"728 91 OFFCURVE",
"774 268 CURVE",
"785 342 LINE",
"774 386 LINE",
"759 310 OFFCURVE",
"691 242 OFFCURVE",
"613 242 CURVE SMOOTH",
"482 242 OFFCURVE",
"400 345 OFFCURVE",
"400 547 CURVE SMOOTH",
"400 750 OFFCURVE",
"493 856 OFFCURVE",
"618 856 CURVE SMOOTH",
"700 856 OFFCURVE",
"753 804 OFFCURVE",
"774 725 CURVE",
"819 784 LINE",
"784 876 LINE",
"754 1024 OFFCURVE",
"664 1112 OFFCURVE",
"517 1112 CURVE SMOOTH",
"278 1112 OFFCURVE",
"92 896 OFFCURVE",
"92 546 CURVE SMOOTH",
"92 203 OFFCURVE",
"261 -13 OFFCURVE",
"492 -13 CURVE SMOOTH"
);
},
{
closed = 1;
nodes = (
"1081 0 LINE",
"1081 1561 LINE",
"774 1561 LINE",
"774 348 LINE",
"777 0 LINE"
);
}
);
width = 1200;
}
);
unicode = 0064;
userData = {
KernOnName = d;
};
},
{
glyphname = eth;
lastChange = "2022-02-12 05:33:45 +0000";
layers = (
{
layerId = "0D9D1AFE-BAFC-449A-A530-9FCA9CDF2E2E";
paths = (
{
closed = 1;
nodes = (
"823 -15 OFFCURVE",
"1053 131 OFFCURVE",
"1053 626 CURVE SMOOTH",
"1053 1038 OFFCURVE",
"887 1370 OFFCURVE",
"587 1646 CURVE",
"371 1616 LINE",
"393 1668 LINE",
"635 1445 OFFCURVE",
"922 1127 OFFCURVE",
"926 677 CURVE",
"960 683 LINE",
"903 925 OFFCURVE",
"754 1013 OFFCURVE",
"590 1013 CURVE SMOOTH",
"353 1013 OFFCURVE",
"132 834 OFFCURVE",
"132 508 CURVE SMOOTH",
"132 167 OFFCURVE",
"344 -15 OFFCURVE",
"599 -15 CURVE SMOOTH"
);
},
{
closed = 1;
nodes = (
"401 101 OFFCURVE",
"260 248 OFFCURVE",
"260 508 CURVE SMOOTH",
"260 777 OFFCURVE",
"409 897 OFFCURVE",
"596 897 CURVE SMOOTH",
"801 897 OFFCURVE",
"885 755 OFFCURVE",
"914 689 CURVE",
"920 679 OFFCURVE",
"928 620 OFFCURVE",
"928 563 CURVE SMOOTH",
"928 280 OFFCURVE",
"851 101 OFFCURVE",
"599 101 CURVE SMOOTH"
);
},
{
closed = 1;
nodes = (
"708 1378 LINE",
"743 1396 LINE",
"936 1536 LINE",
"941 1660 LINE",
"689 1465 LINE",
"662 1450 LINE",
"477 1317 LINE",
"477 1193 LINE"
);
}
);
width = 1200;
},
{
layerId = "09AB1441-CF14-483D-884E-606841830E4D";
paths = (
{
closed = 1;
nodes = (
"843 -15 OFFCURVE",
"1071 143 OFFCURVE",
"1071 610 CURVE SMOOTH",
"1071 1045 OFFCURVE",
"877 1381 OFFCURVE",
"621 1646 CURVE",
"235 1616 LINE",
"264 1694 LINE",
"616 1443 OFFCURVE",
"876 952 OFFCURVE",
"833 761 CURVE",
"869 788 LINE",
"841 891 OFFCURVE",
"759 1032 OFFCURVE",
"553 1032 CURVE SMOOTH",
"328 1032 OFFCURVE",
"119 853 OFFCURVE",
"119 528 CURVE SMOOTH",
"119 198 OFFCURVE",
"323 -15 OFFCURVE",
"606 -15 CURVE SMOOTH"
);
},
{
closed = 1;
nodes = (
"454 188 OFFCURVE",
"348 282 OFFCURVE",
"348 521 CURVE SMOOTH",
"348 754 OFFCURVE",
"460 841 OFFCURVE",
"608 841 CURVE SMOOTH",
"699 841 OFFCURVE",
"778 802 OFFCURVE",
"828 747 CURVE",
"838 739 OFFCURVE",
"843 620 OFFCURVE",
"843 567 CURVE SMOOTH",
"843 263 OFFCURVE",
"732 188 OFFCURVE",
"602 188 CURVE SMOOTH"
);
},
{
closed = 1;
nodes = (
"739 1340 LINE",
"770 1350 LINE",
"937 1433 LINE",
"941 1655 LINE",
"663 1482 LINE",
"624 1466 LINE",
"440 1361 LINE",
"440 1139 LINE"
);
}
);
width = 1200;
},
{
layerId = "BF6BC6F6-4B2A-4E9B-9E28-8B62B2F12FD9";
paths = (
{
closed = 1;
nodes = (
"888 -15 OFFCURVE",
"1103 177 OFFCURVE",
"1103 622 CURVE SMOOTH",
"1103 1105 OFFCURVE",
"852 1475 OFFCURVE",
"663 1646 CURVE",
"122 1608 LINE",
"194 1686 LINE",
"462 1542 OFFCURVE",
"815 1038 OFFCURVE",
"772 762 CURVE",
"816 766 LINE",
"793 886 OFFCURVE",
"724 1065 OFFCURVE",
"506 1065 CURVE SMOOTH",
"296 1065 OFFCURVE",
"97 888 OFFCURVE",
"97 550 CURVE SMOOTH",
"97 211 OFFCURVE",
"298 -15 OFFCURVE",
"608 -15 CURVE SMOOTH"
);
},
{
closed = 1;
nodes = (
"476 242 OFFCURVE",
"416 340 OFFCURVE",
"416 546 CURVE SMOOTH",
"416 760 OFFCURVE",
"487 830 OFFCURVE",
"610 830 CURVE SMOOTH",
"693 830 OFFCURVE",
"734 793 OFFCURVE",
"768 748 CURVE",
"782 694 OFFCURVE",
"794 630 OFFCURVE",
"794 549 CURVE SMOOTH",
"794 351 OFFCURVE",
"741 242 OFFCURVE",
"611 242 CURVE SMOOTH"
);
},
{
closed = 1;
nodes = (
"720 1304 LINE",
"781 1326 LINE",
"1025 1408 LINE",
"977 1620 LINE",
"656 1490 LINE",
"606 1469 LINE",
"352 1380 LINE",
"412 1161 LINE"
);
}
);
width = 1200;
}
);
unicode = 00F0;
},
{
color = 4;
glyphname = dcaron;
lastChange = "2022-02-16 05:02:09 +0000";
layers = (
{
anchors = (
{
name = bottom;
position = "{592, 0}";
},
{
name = center;
position = "{592, 546}";
},
{
name = top;
position = "{592, 1586}";
},
{
name = topright;
position = "{1010, 1091}";
}
);
layerId = "0D9D1AFE-BAFC-449A-A530-9FCA9CDF2E2E";
paths = (
{
closed = 1;
nodes = (
"732 -12 OFFCURVE",
"868 81 OFFCURVE",
"899 251 CURVE",
"909 296 LINE",
"899 330 LINE",
"850 197 OFFCURVE",
"736 104 OFFCURVE",
"604 104 CURVE SMOOTH",
"403 104 OFFCURVE",
"284 293 OFFCURVE",
"284 538 CURVE SMOOTH",
"284 838 OFFCURVE",
"426 996 OFFCURVE",
"636 996 CURVE SMOOTH",
"753 996 OFFCURVE",
"857 934 OFFCURVE",
"899 837 CURVE",
"946 859 LINE",
"912 894 LINE",
"892 1021 OFFCURVE",
"751 1112 OFFCURVE",
"618 1112 CURVE SMOOTH",
"345 1112 OFFCURVE",
"155 898 OFFCURVE",
"155 541 CURVE SMOOTH",
"155 217 OFFCURVE",
"329 -12 OFFCURVE",
"583 -12 CURVE SMOOTH"
);
},
{
closed = 1;
nodes = (
"1021 0 LINE",
"1019 1556 LINE",
"899 1556 LINE",
"899 330 LINE",
"899 0 LINE"
);
},
{
closed = 1;
nodes = (
"1233 1185 LINE",
"1273 1565 LINE",
"1146 1565 LINE",
"1123 1185 LINE"
);
}
);
width = 1200;
},
{
anchors = (
{
name = bottom;
position = "{581, 0}";
},
{
name = center;
position = "{581, 546}";
},
{
name = top;
position = "{581, 1586}";
},
{
name = topright;
position = "{1064, 1091}";
}
);
layerId = "09AB1441-CF14-483D-884E-606841830E4D";
paths = (
{
closed = 1;
nodes = (
"656 -12 OFFCURVE",
"791 107 OFFCURVE",
"809 244 CURVE",
"818 276 LINE",
"808 350 LINE",
"781 219 OFFCURVE",
"672 171 OFFCURVE",
"591 171 CURVE SMOOTH",
"427 171 OFFCURVE",
"335 317 OFFCURVE",
"335 551 CURVE SMOOTH",
"335 783 OFFCURVE",
"452 922 OFFCURVE",
"623 922 CURVE SMOOTH",
"692 922 OFFCURVE",
"793 874 OFFCURVE",
"815 754 CURVE",
"892 861 LINE",
"820 893 LINE",
"788 1020 OFFCURVE",
"695 1112 OFFCURVE",
"553 1112 CURVE SMOOTH",
"303 1112 OFFCURVE",
"116 893 OFFCURVE",
"116 554 CURVE SMOOTH",
"116 192 OFFCURVE",
"272 -12 OFFCURVE",
"512 -12 CURVE SMOOTH"
);
},
{
closed = 1;
nodes = (
"1032 0 LINE",
"1032 1556 LINE",
"808 1556 LINE",
"808 350 LINE",
"811 0 LINE"
);
},
{
closed = 1;
nodes = (
"1287 1195 LINE",
"1323 1556 LINE",
"1126 1556 LINE",
"1117 1195 LINE"
);
}
);
width = 1200;
},
{
anchors = (
{
name = bottom;
position = "{587, 0}";
},
{
name = center;
position = "{587, 546}";
},
{
name = top;
position = "{587, 1586}";
},
{
name = topright;
position = "{1088, 1091}";
}
);
layerId = "BF6BC6F6-4B2A-4E9B-9E28-8B62B2F12FD9";
paths = (
{
closed = 1;
nodes = (
"624 -13 OFFCURVE",
"708 91 OFFCURVE",
"754 268 CURVE",
"765 342 LINE",
"754 386 LINE",
"739 310 OFFCURVE",
"671 242 OFFCURVE",
"593 242 CURVE SMOOTH",
"462 242 OFFCURVE",
"380 345 OFFCURVE",
"380 547 CURVE SMOOTH",
"380 750 OFFCURVE",
"473 856 OFFCURVE",
"598 856 CURVE SMOOTH",
"680 856 OFFCURVE",
"733 804 OFFCURVE",
"754 725 CURVE",
"799 784 LINE",
"764 876 LINE",
"734 1024 OFFCURVE",
"644 1112 OFFCURVE",
"497 1112 CURVE SMOOTH",
"278 1112 OFFCURVE",
"92 896 OFFCURVE",
"92 546 CURVE SMOOTH",
"92 203 OFFCURVE",
"261 -13 OFFCURVE",
"472 -13 CURVE SMOOTH"
);
},
{
closed = 1;
nodes = (
"1041 0 LINE",
"1041 1561 LINE",
"754 1561 LINE",
"754 348 LINE",
"757 0 LINE"
);
},
{
closed = 1;
nodes = (
"1284 1175 LINE",
"1301 1561 LINE",
"1087 1561 LINE",
"1085 1175 LINE"
);
}
);
width = 1200;
}
);
unicode = 010F;
userData = {
KernOnName = dcaron;
};
},
{
glyphname = dcroat;
lastChange = "2022-02-12 05:33:45 +0000";
layers = (
{
anchors = (
{
name = bottom;
position = "{567, 0}";
},
{
name = center;
position = "{567, 546}";
},
{
name = top;
position = "{567, 1586}";
},
{
name = topright;
position = "{980, 1091}";
}
);
layerId = "0D9D1AFE-BAFC-449A-A530-9FCA9CDF2E2E";
paths = (
{
closed = 1;
nodes = (
"1138 1288 LINE",
"1138 1399 LINE",
"603 1399 LINE",
"603 1288 LINE"
);
},
{
closed = 1;
nodes = (
"732 -12 OFFCURVE",
"868 81 OFFCURVE",
"899 251 CURVE",
"909 296 LINE",
"899 330 LINE",
"850 197 OFFCURVE",
"736 104 OFFCURVE",
"604 104 CURVE SMOOTH",
"403 104 OFFCURVE",
"284 293 OFFCURVE",
"284 538 CURVE SMOOTH",
"284 838 OFFCURVE",
"426 996 OFFCURVE",
"636 996 CURVE SMOOTH",
"753 996 OFFCURVE",
"857 934 OFFCURVE",
"899 837 CURVE",
"946 859 LINE",
"912 894 LINE",
"892 1021 OFFCURVE",
"751 1112 OFFCURVE",
"618 1112 CURVE SMOOTH",
"345 1112 OFFCURVE",
"155 898 OFFCURVE",
"155 541 CURVE SMOOTH",
"155 217 OFFCURVE",
"329 -12 OFFCURVE",
"583 -12 CURVE SMOOTH"
);
},
{
closed = 1;
nodes = (
"1021 0 LINE",
"1019 1556 LINE",
"899 1556 LINE",
"899 330 LINE",
"899 0 LINE"
);
}
);
width = 1200;
},
{
anchors = (
{
name = bottom;
position = "{595, 0}";
},
{
name = center;
position = "{595, 546}";
},
{
name = top;
position = "{595, 1586}";
},
{
name = topright;
position = "{1054, 1091}";
}
);
layerId = "09AB1441-CF14-483D-884E-606841830E4D";
paths = (
{
closed = 1;
nodes = (
"1117 1224 LINE",
"1118 1406 LINE",
"550 1406 LINE",
"550 1224 LINE"
);
},
{
closed = 1;
nodes = (
"666 -12 OFFCURVE",
"801 107 OFFCURVE",
"819 244 CURVE",
"828 276 LINE",
"818 350 LINE",
"791 219 OFFCURVE",
"682 171 OFFCURVE",
"601 171 CURVE SMOOTH",
"437 171 OFFCURVE",
"345 317 OFFCURVE",
"345 551 CURVE SMOOTH",
"345 783 OFFCURVE",
"462 922 OFFCURVE",
"633 922 CURVE SMOOTH",
"702 922 OFFCURVE",
"803 874 OFFCURVE",
"825 754 CURVE",
"902 861 LINE",
"830 893 LINE",
"798 1020 OFFCURVE",
"705 1112 OFFCURVE",
"563 1112 CURVE SMOOTH",
"313 1112 OFFCURVE",
"116 893 OFFCURVE",
"116 554 CURVE SMOOTH",
"116 192 OFFCURVE",
"282 -12 OFFCURVE",
"522 -12 CURVE SMOOTH"
);
},
{
closed = 1;
nodes = (
"1042 0 LINE",
"1042 1556 LINE",
"818 1556 LINE",
"818 350 LINE",
"821 0 LINE"
);
}
);
width = 1200;
},
{
anchors = (
{
name = bottom;
position = "{600, 0}";
},
{
name = center;
position = "{600, 546}";
},
{
name = top;
position = "{600, 1586}";
},
{
name = topright;
position = "{1103, 1091}";
}
);
layerId = "BF6BC6F6-4B2A-4E9B-9E28-8B62B2F12FD9";
paths = (
{
closed = 1;
nodes = (
"1199 1197 LINE",
"1196 1423 LINE",
"558 1423 LINE",
"558 1197 LINE"
);
},
{
closed = 1;
nodes = (
"644 -13 OFFCURVE",
"728 91 OFFCURVE",
"774 268 CURVE",
"785 342 LINE",
"774 386 LINE",
"759 310 OFFCURVE",
"691 242 OFFCURVE",
"613 242 CURVE SMOOTH",
"482 242 OFFCURVE",
"400 345 OFFCURVE",
"400 547 CURVE SMOOTH",
"400 750 OFFCURVE",
"493 856 OFFCURVE",
"618 856 CURVE SMOOTH",
"700 856 OFFCURVE",
"753 804 OFFCURVE",
"774 725 CURVE",
"819 784 LINE",
"784 876 LINE",
"754 1024 OFFCURVE",
"664 1112 OFFCURVE",
"517 1112 CURVE SMOOTH",
"278 1112 OFFCURVE",
"92 896 OFFCURVE",
"92 546 CURVE SMOOTH",
"92 203 OFFCURVE",
"261 -13 OFFCURVE",
"492 -13 CURVE SMOOTH"
);
},
{
closed = 1;
nodes = (
"1081 0 LINE",
"1081 1556 LINE",
"774 1556 LINE",
"774 348 LINE",
"777 0 LINE"
);
}
);
width = 1200;
}
);
unicode = 0111;
},
{
glyphname = e;
lastChange = "2022-02-12 05:33:45 +0000";
layers = (
{
anchors = (
{
name = bottom;
position = "{577, 0}";
},
{
name = ogonek;
position = "{770, 9}";
},
{
name = top;
position = "{611, 1091}";
}
);
background = {
paths = (
{
closed = 1;
nodes = (
"832 -15 OFFCURVE",
"1055 184 OFFCURVE",
"1055 552 CURVE SMOOTH",
"1055 900 OFFCURVE",
"864 1112 OFFCURVE",
"582 1112 CURVE SMOOTH",
"321 1112 OFFCURVE",
"105 899 OFFCURVE",
"105 552 CURVE SMOOTH",
"105 184 OFFCURVE",
"304 -15 OFFCURVE",
"577 -15 CURVE SMOOTH"
);
},
{
closed = 1;
nodes = (
"364 101 OFFCURVE",
"231 270 OFFCURVE",
"231 552 CURVE SMOOTH",
"231 828 OFFCURVE",
"364 996 OFFCURVE",
"577 996 CURVE SMOOTH",
"799 996 OFFCURVE",
"929 834 OFFCURVE",
"929 552 CURVE SMOOTH",
"929 267 OFFCURVE",
"800 101 OFFCURVE",
"582 101 CURVE SMOOTH"
);
}
);
};
layerId = "0D9D1AFE-BAFC-449A-A530-9FCA9CDF2E2E";
paths = (
{
closed = 1;
nodes = (
"868 -15 OFFCURVE",
"1023 115 OFFCURVE",
"1041 310 CURVE",
"914 310 LINE",
"899 181 OFFCURVE",
"804 100 OFFCURVE",
"624 100 CURVE SMOOTH",
"433 100 OFFCURVE",
"284 258 OFFCURVE",
"276 517 CURVE",
"1054 517 LINE",
"1055 533 OFFCURVE",
"1059 567 OFFCURVE",
"1059 606 CURVE SMOOTH",
"1059 921 OFFCURVE",
"900 1113 OFFCURVE",
"638 1113 CURVE SMOOTH",
"351 1113 OFFCURVE",
"155 901 OFFCURVE",
"155 553 CURVE SMOOTH",
"155 186 OFFCURVE",
"380 -15 OFFCURVE",
"624 -15 CURVE SMOOTH"
);
},
{
closed = 1;
nodes = (
"281 836 OFFCURVE",
"401 998 OFFCURVE",
"631 998 CURVE SMOOTH",
"823 998 OFFCURVE",
"936 874 OFFCURVE",
"936 625 CURVE",
"368 625 LINE SMOOTH",
"320 625 OFFCURVE",
"286 615 OFFCURVE",
"276 563 CURVE"
);
}
);
width = 1200;
},
{
anchors = (
{
name = bottom;
position = "{599, 0}";
},
{
name = ogonek;
position = "{794, 10}";
},
{
name = top;
position = "{611, 1091}";
}
);
background = {
anchors = (
{
name = bottom;
position = "{613, 0}";
},
{
name = center;
position = "{613, 546}";
},
{
name = ogonek;
position = "{1093, 10}";
},
{
name = top;
position = "{613, 1091}";
},
{
name = topright;
position = "{1193, 1091}";
}
);
paths = (
{
closed = 1;
nodes = (
"881 -15 OFFCURVE",
"1094 182 OFFCURVE",
"1094 552 CURVE SMOOTH",
"1094 902 OFFCURVE",
"911 1113 OFFCURVE",
"613 1113 CURVE SMOOTH",
"339 1113 OFFCURVE",
"132 902 OFFCURVE",
"132 552 CURVE SMOOTH",
"132 182 OFFCURVE",
"323 -15 OFFCURVE",
"613 -15 CURVE SMOOTH"
);
},
{
closed = 1;
nodes = (
"463 178 OFFCURVE",
"360 302 OFFCURVE",
"360 552 CURVE SMOOTH",
"360 799 OFFCURVE",
"462 920 OFFCURVE",
"613 920 CURVE SMOOTH",
"770 920 OFFCURVE",
"866 795 OFFCURVE",
"866 552 CURVE SMOOTH",
"866 289 OFFCURVE",
"762 178 OFFCURVE",
"613 178 CURVE SMOOTH"
);
}
);
};
layerId = "09AB1441-CF14-483D-884E-606841830E4D";
paths = (
{
closed = 1;
nodes = (
"863 -15 OFFCURVE",
"1022 101 OFFCURVE",
"1044 310 CURVE",
"840 310 LINE",
"807 202 OFFCURVE",
"747 175 OFFCURVE",
"644 175 CURVE SMOOTH",
"504 175 OFFCURVE",
"363 266 OFFCURVE",
"360 504 CURVE",
"1062 504 LINE",
"1063 543 OFFCURVE",
"1067 561 OFFCURVE",
"1067 606 CURVE SMOOTH",
"1067 932 OFFCURVE",
"882 1113 OFFCURVE",
"612 1113 CURVE SMOOTH",
"346 1113 OFFCURVE",
"142 908 OFFCURVE",
"142 549 CURVE SMOOTH",
"142 182 OFFCURVE",
"354 -15 OFFCURVE",
"640 -15 CURVE SMOOTH"
);
},
{
closed = 1;
nodes = (
"361 792 OFFCURVE",
"451 923 OFFCURVE",
"620 923 CURVE SMOOTH",
"770 923 OFFCURVE",
"836 832 OFFCURVE",
"840 663 CURVE",
"478 663 LINE SMOOTH",
"410 663 OFFCURVE",
"372 646 OFFCURVE",
"361 587 CURVE"
);
}
);
width = 1200;
},
{
anchors = (
{
name = bottom;
position = "{632, 0}";
},
{
name = ogonek;
position = "{848, 32}";
},
{
name = top;
position = "{635, 1091}";
}
);
background = {
anchors = (
{
name = bottom;
position = "{582, 0}";
},
{
name = center;
position = "{582, 546}";
},
{
name = ogonek;
position = "{1027, 10}";
},
{
name = top;
position = "{581, 1091}";
},
{
name = topright;
position = "{1119, 1091}";
}
);
paths = (
{
closed = 1;
nodes = (
"887 -15 OFFCURVE",
"1106 189 OFFCURVE",
"1106 552 CURVE SMOOTH",
"1106 895 OFFCURVE",
"917 1113 OFFCURVE",
"600 1113 CURVE SMOOTH",
"308 1113 OFFCURVE",
"94 895 OFFCURVE",
"94 552 CURVE SMOOTH",
"94 189 OFFCURVE",
"291 -15 OFFCURVE",
"600 -15 CURVE SMOOTH"
);
},
{
closed = 1;
nodes = (
"498 242 OFFCURVE",
"408 323 OFFCURVE",
"408 552 CURVE SMOOTH",
"408 781 OFFCURVE",
"490 856 OFFCURVE",
"600 856 CURVE SMOOTH",
"704 856 OFFCURVE",
"793 781 OFFCURVE",
"793 552 CURVE SMOOTH",
"793 323 OFFCURVE",
"709 242 OFFCURVE",
"600 242 CURVE SMOOTH"
);
}
);
};
layerId = "BF6BC6F6-4B2A-4E9B-9E28-8B62B2F12FD9";
paths = (
{
closed = 1;
nodes = (
"890 -15 OFFCURVE",
"1067 131 OFFCURVE",
"1084 356 CURVE",
"784 356 LINE",
"775 274 OFFCURVE",
"717 225 OFFCURVE",
"635 225 CURVE SMOOTH",
"497 225 OFFCURVE",
"449 305 OFFCURVE",
"435 489 CURVE",
"1091 489 LINE",
"1094 532 OFFCURVE",
"1096 570 OFFCURVE",
"1096 606 CURVE SMOOTH",
"1096 928 OFFCURVE",
"941 1113 OFFCURVE",
"643 1113 CURVE SMOOTH",
"333 1113 OFFCURVE",
"128 914 OFFCURVE",
"128 544 CURVE SMOOTH",
"128 190 OFFCURVE",
"315 -15 OFFCURVE",
"643 -15 CURVE SMOOTH"
);
},
{
closed = 1;
nodes = (
"426 779 OFFCURVE",
"490 870 OFFCURVE",
"632 870 CURVE SMOOTH",
"748 870 OFFCURVE",
"794 801 OFFCURVE",
"795 661 CURVE",
"553 661 LINE SMOOTH",
"485 661 OFFCURVE",
"440 640 OFFCURVE",
"429 561 CURVE"
);
}
);
width = 1200;
}
);
unicode = 0065;
userData = {
KernOnName = e;
};
},
{
glyphname = eogonek;
lastChange = "2022-02-12 05:31:01 +0000";
layers = (
{
layerId = "0D9D1AFE-BAFC-449A-A530-9FCA9CDF2E2E";
paths = (
{
closed = 1;
nodes = (
"740 -346 OFFCURVE",
"789 -336 OFFCURVE",
"815 -324 CURVE",
"814 -214 LINE",
"782 -229 OFFCURVE",
"750 -238 OFFCURVE",
"726 -238 CURVE SMOOTH",
"678 -238 OFFCURVE",
"652 -212 OFFCURVE",
"652 -165 CURVE SMOOTH",
"652 -112 OFFCURVE",
"664 -54 OFFCURVE",
"802 35 CURVE",
"735 25 LINE",
"655 2 OFFCURVE",
"538 -64 OFFCURVE",
"538 -189 CURVE SMOOTH",
"538 -271 OFFCURVE",
"600 -346 OFFCURVE",
"702 -346 CURVE SMOOTH"
);
},
{
closed = 1;
nodes = (
"804 -15 OFFCURVE",
"978 101 OFFCURVE",
"987 310 CURVE",
"865 310 LINE",
"843 163 OFFCURVE",
"749 100 OFFCURVE",
"580 100 CURVE SMOOTH",
"357 100 OFFCURVE",
"213 269 OFFCURVE",
"214 544 CURVE SMOOTH",
"215 829 OFFCURVE",
"339 998 OFFCURVE",
"565 998 CURVE SMOOTH",
"765 998 OFFCURVE",
"884 854 OFFCURVE",
"884 625 CURVE",
"1002 517 LINE",
"1003 533 OFFCURVE",
"1007 567 OFFCURVE",
"1007 606 CURVE SMOOTH",
"1008 901 OFFCURVE",
"841 1113 OFFCURVE",
"572 1113 CURVE SMOOTH",
"295 1113 OFFCURVE",
"93 901 OFFCURVE",
"93 553 CURVE SMOOTH",
"93 186 OFFCURVE",
"289 -15 OFFCURVE",
"571 -15 CURVE SMOOTH"
);
},
{
closed = 1;
nodes = (
"1002 517 LINE",
"939 625 LINE",
"303 625 LINE SMOOTH",
"257 625 OFFCURVE",
"222 615 OFFCURVE",
"214 561 CURVE",
"179 517 LINE"
);
}
);
width = 1200;
},
{
layerId = "09AB1441-CF14-483D-884E-606841830E4D";
paths = (
{
closed = 1;
nodes = (
"776 -396 OFFCURVE",
"826 -388 OFFCURVE",
"885 -363 CURVE",
"884 -223 LINE",
"852 -239 OFFCURVE",
"814 -245 OFFCURVE",
"786 -245 CURVE SMOOTH",
"741 -245 OFFCURVE",
"713 -218 OFFCURVE",
"713 -164 CURVE SMOOTH",
"713 -66 OFFCURVE",
"767 -7 OFFCURVE",
"844 51 CURVE",
"759 41 LINE",
"626 -15 OFFCURVE",
"528 -92 OFFCURVE",
"528 -233 CURVE SMOOTH",
"528 -314 OFFCURVE",
"607 -396 OFFCURVE",
"727 -396 CURVE SMOOTH"
);
},
{
closed = 1;
nodes = (
"817 -15 OFFCURVE",
"989 101 OFFCURVE",
"1008 310 CURVE",
"790 310 LINE",
"769 241 OFFCURVE",
"700 171 OFFCURVE",
"565 171 CURVE SMOOTH",
"413 171 OFFCURVE",
"297 288 OFFCURVE",
"299 544 CURVE SMOOTH",
"301 775 OFFCURVE",
"381 920 OFFCURVE",
"572 920 CURVE SMOOTH",
"746 920 OFFCURVE",
"814 838 OFFCURVE",
"818 675 CURVE",
"1039 517 LINE",
"1040 533 OFFCURVE",
"1044 567 OFFCURVE",
"1044 606 CURVE SMOOTH",
"1044 935 OFFCURVE",
"870 1113 OFFCURVE",
"579 1113 CURVE SMOOTH",
"285 1113 OFFCURVE",
"73 904 OFFCURVE",
"73 549 CURVE SMOOTH",
"73 182 OFFCURVE",
"269 -15 OFFCURVE",
"584 -15 CURVE SMOOTH"
);
},
{
closed = 1;
nodes = (
"1039 517 LINE",
"976 676 LINE",
"405 676 LINE SMOOTH",
"359 676 OFFCURVE",
"312 666 OFFCURVE",
"304 611 CURVE",
"268 517 LINE"
);
}
);
width = 1200;
},
{
layerId = "BF6BC6F6-4B2A-4E9B-9E28-8B62B2F12FD9";
paths = (
{
closed = 1;
nodes = (
"829 -467 OFFCURVE",
"889 -452 OFFCURVE",
"940 -431 CURVE",
"939 -256 LINE",
"907 -272 OFFCURVE",
"871 -281 OFFCURVE",
"843 -281 CURVE SMOOTH",
"796 -281 OFFCURVE",
"734 -265 OFFCURVE",
"734 -198 CURVE SMOOTH",
"734 -123 OFFCURVE",
"762 -36 OFFCURVE",
"863 58 CURVE",
"771 39 LINE",
"641 -8 OFFCURVE",
"504 -108 OFFCURVE",
"504 -278 CURVE SMOOTH",
"504 -383 OFFCURVE",
"598 -467 OFFCURVE",
"746 -467 CURVE SMOOTH"
);
},
{
closed = 1;
nodes = (
"862 -15 OFFCURVE",
"1039 130 OFFCURVE",
"1057 356 CURVE",
"759 356 LINE",
"748 277 OFFCURVE",
"693 225 OFFCURVE",
"584 225 CURVE SMOOTH",
"442 225 OFFCURVE",
"368 327 OFFCURVE",
"368 561 CURVE SMOOTH",
"368 758 OFFCURVE",
"434 870 OFFCURVE",
"579 870 CURVE SMOOTH",
"706 870 OFFCURVE",
"764 798 OFFCURVE",
"767 652 CURVE",
"1066 486 LINE",
"1069 532 OFFCURVE",
"1071 569 OFFCURVE",
"1071 597 CURVE SMOOTH",
"1071 933 OFFCURVE",
"903 1113 OFFCURVE",
"592 1113 CURVE SMOOTH",
"270 1113 OFFCURVE",
"59 914 OFFCURVE",
"59 546 CURVE SMOOTH",
"59 189 OFFCURVE",
"251 -15 OFFCURVE",
"583 -15 CURVE SMOOTH"
);
},
{
closed = 1;
nodes = (
"1066 486 LINE",
"1003 661 LINE",
"498 661 LINE SMOOTH",
"421 661 OFFCURVE",
"380 633 OFFCURVE",
"371 577 CURVE SMOOTH",
"356 486 LINE"
);
}
);
width = 1200;
}
);
unicode = 0119;
},
{
glyphname = f;
lastChange = "2022-02-12 05:29:12 +0000";
layers = (
{
anchors = (
{
name = bottom;
position = "{601, 0}";
},
{
name = top;
position = "{601, 1586}";
}
);
layerId = "0D9D1AFE-BAFC-449A-A530-9FCA9CDF2E2E";
paths = (
{
closed = 1;
nodes = (
"584 0 LINE",
"584 1248 LINE SMOOTH",
"584 1482 OFFCURVE",
"715 1539 OFFCURVE",
"862 1539 CURVE SMOOTH",
"962 1539 OFFCURVE",
"1056 1520 OFFCURVE",
"1093 1507 CURVE",
"1093 1629 LINE",
"1052 1642 OFFCURVE",
"961 1658 OFFCURVE",
"844 1658 CURVE SMOOTH",
"632 1658 OFFCURVE",
"460 1534 OFFCURVE",
"460 1278 CURVE SMOOTH",
"460 1047 LINE",
"525 976 LINE",
"483 963 OFFCURVE",
"460 920 OFFCURVE",
"460 858 CURVE SMOOTH",
"460 0 LINE"
);
},
{
closed = 1;
nodes = (
"952 0 LINE",
"952 108 LINE",
"222 108 LINE",
"222 0 LINE"
);
},
{
closed = 1;
nodes = (
"947 976 LINE",
"947 1092 LINE",
"220 1092 LINE",
"220 976 LINE"
);
}
);
width = 1200;
},
{
anchors = (
{
name = bottom;
position = "{600, 0}";
},
{
name = top;
position = "{600, 1586}";
}
);
layerId = "09AB1441-CF14-483D-884E-606841830E4D";
paths = (
{
closed = 1;
nodes = (
"664 40 LINE",
"664 1273 LINE SMOOTH",
"664 1414 OFFCURVE",
"766 1458 OFFCURVE",
"892 1458 CURVE SMOOTH",
"962 1458 OFFCURVE",
"1085 1444 OFFCURVE",
"1128 1428 CURVE",
"1128 1639 LINE",
"1088 1646 OFFCURVE",
"965 1658 OFFCURVE",
"882 1658 CURVE SMOOTH",
"623 1658 OFFCURVE",
"451 1534 OFFCURVE",
"451 1268 CURVE SMOOTH",
"451 1047 LINE",
"582 894 LINE",
"470 883 OFFCURVE",
"451 820 OFFCURVE",
"451 698 CURVE SMOOTH",
"451 40 LINE"
);
},
{
closed = 1;
nodes = (
"997 0 LINE",
"997 178 LINE",
"249 178 LINE",
"249 0 LINE"
);
},
{
closed = 1;
nodes = (
"1007 894 LINE",
"1007 1092 LINE",
"210 1092 LINE",
"210 894 LINE"
);
}
);
width = 1200;
},
{
anchors = (
{
name = bottom;
position = "{601, 0}";
},
{
name = top;
position = "{601, 1586}";
}
);
layerId = "BF6BC6F6-4B2A-4E9B-9E28-8B62B2F12FD9";
paths = (
{
closed = 1;
nodes = (
"709 30 LINE",
"709 1223 LINE SMOOTH",
"709 1358 OFFCURVE",
"768 1394 OFFCURVE",
"889 1394 CURVE SMOOTH",
"976 1394 OFFCURVE",
"1040 1386 OFFCURVE",
"1082 1375 CURVE",
"1083 1642 LINE",
"1027 1652 OFFCURVE",
"971 1658 OFFCURVE",
"862 1658 CURVE SMOOTH",
"608 1658 OFFCURVE",
"400 1530 OFFCURVE",
"400 1243 CURVE SMOOTH",
"400 1047 LINE",
"503 863 LINE",
"437 852 OFFCURVE",
"400 793 OFFCURVE",
"400 711 CURVE SMOOTH",
"400 30 LINE"
);
},
{
closed = 1;
nodes = (
"1026 0 LINE",
"1026 218 LINE",
"195 218 LINE",
"195 0 LINE"
);
},
{
closed = 1;
nodes = (
"1024 863 LINE",
"1024 1092 LINE",
"166 1092 LINE",
"166 863 LINE"
);
}
);
width = 1200;
}
);
unicode = 0066;
userData = {
KernOnName = f;
};
},
{
glyphname = g;
lastChange = "2022-02-12 05:30:34 +0000";
layers = (
{
anchors = (
{
name = bottom;
position = "{493, -462}";
},
{
name = top;
position = "{493, 1091}";
}
);
layerId = "0D9D1AFE-BAFC-449A-A530-9FCA9CDF2E2E";
paths = (
{
closed = 1;
nodes = (
"872 -451 OFFCURVE",
"1118 -347 OFFCURVE",
"1118 -89 CURVE SMOOTH",
"1118 25 OFFCURVE",
"1056 136 OFFCURVE",
"808 165 CURVE SMOOTH",
"543 196 LINE SMOOTH",
"382 215 OFFCURVE",
"317 244 OFFCURVE",
"317 310 CURVE SMOOTH",
"317 371 OFFCURVE",
"356 409 OFFCURVE",
"411 428 CURVE",
"288 434 OFFCURVE",
"197 384 OFFCURVE",
"197 283 CURVE SMOOTH",
"197 215 OFFCURVE",
"230 120 OFFCURVE",
"504 87 CURVE SMOOTH",
"761 56 LINE SMOOTH",
"948 33 OFFCURVE",
"991 -7 OFFCURVE",
"992 -94 CURVE SMOOTH",
"993 -242 OFFCURVE",
"881 -340 OFFCURVE",
"621 -340 CURVE SMOOTH",
"328 -340 OFFCURVE",
"227 -227 OFFCURVE",
"227 -112 CURVE SMOOTH",
"227 43 OFFCURVE",
"303 89 OFFCURVE",
"388 122 CURVE",
"362 128 LINE",
"148 111 OFFCURVE",
"102 -6 OFFCURVE",
"102 -121 CURVE SMOOTH",
"102 -335 OFFCURVE",
"337 -451 OFFCURVE",
"618 -451 CURVE SMOOTH"
);
},
{
closed = 1;
nodes = (
"854 384 OFFCURVE",
"1004 523 OFFCURVE",
"1004 749 CURVE SMOOTH",
"1004 969 OFFCURVE",
"855 1108 OFFCURVE",
"603 1110 CURVE SMOOTH",
"354 1112 OFFCURVE",
"198 968 OFFCURVE",
"198 744 CURVE SMOOTH",
"198 525 OFFCURVE",
"348 384 OFFCURVE",
"601 384 CURVE SMOOTH"
);
},
{
closed = 1;
nodes = (
"418 496 OFFCURVE",
"313 588 OFFCURVE",
"313 745 CURVE SMOOTH",
"313 912 OFFCURVE",
"404 998 OFFCURVE",
"598 998 CURVE SMOOTH",
"785 998 OFFCURVE",
"889 906 OFFCURVE",
"889 749 CURVE SMOOTH",
"889 585 OFFCURVE",
"786 496 OFFCURVE",
"604 496 CURVE SMOOTH"
);
},
{
closed = 1;
nodes = (
"786 1134 OFFCURVE",
"809 1176 OFFCURVE",
"929 1176 CURVE SMOOTH",
"964 1176 OFFCURVE",
"1012 1172 OFFCURVE",
"1050 1167 CURVE",
"1050 1292 LINE",
"1034 1298 OFFCURVE",
"1014 1301 OFFCURVE",
"949 1301 CURVE SMOOTH",
"832 1301 OFFCURVE",
"726 1209 OFFCURVE",
"709 1081 CURVE",
"721 1071 LINE"
);
}
);
width = 1200;
},
{
anchors = (
{
name = bottom;
position = "{467, -462}";
},
{
name = top;
position = "{467, 1091}";
}
);
background = {
paths = (
{
closed = 1;
nodes = (
"880 -444 OFFCURVE",
"1029 -294 OFFCURVE",
"1029 -27 CURVE SMOOTH",
"1029 1091 LINE",
"808 1091 LINE",
"808 951 LINE",
"765 1055 OFFCURVE",
"667 1112 OFFCURVE",
"535 1112 CURVE SMOOTH",
"309 1112 OFFCURVE",
"147 882 OFFCURVE",
"147 562 CURVE SMOOTH",
"147 274 OFFCURVE",
"312 51 OFFCURVE",
"525 51 CURVE SMOOTH",
"673 51 OFFCURVE",
"780 134 OFFCURVE",
"808 269 CURVE",
"808 -26 LINE SMOOTH",
"808 -200 OFFCURVE",
"762 -255 OFFCURVE",
"616 -255 CURVE SMOOTH",
"472 -255 OFFCURVE",
"418 -198 OFFCURVE",
"419 -47 CURVE",
"202 -47 LINE",
"182 -291 OFFCURVE",
"343 -446 OFFCURVE",
"615 -445 CURVE SMOOTH"
);
},
{
closed = 1;
nodes = (
"470 231 OFFCURVE",
"380 370 OFFCURVE",
"380 577 CURVE SMOOTH",
"380 797 OFFCURVE",
"463 922 OFFCURVE",
"608 922 CURVE SMOOTH",
"703 922 OFFCURVE",
"780 884 OFFCURVE",
"808 824 CURVE",
"808 355 LINE",
"788 283 OFFCURVE",
"703 231 OFFCURVE",
"603 231 CURVE SMOOTH"
);
}
);
};
layerId = "09AB1441-CF14-483D-884E-606841830E4D";
paths = (
{
closed = 1;
nodes = (
"944 -454 OFFCURVE",
"1114 -325 OFFCURVE",
"1114 -108 CURVE SMOOTH",
"1114 24 OFFCURVE",
"1051 154 OFFCURVE",
"759 193 CURVE SMOOTH",
"501 227 LINE SMOOTH",
"401 240 OFFCURVE",
"367 266 OFFCURVE",
"367 328 CURVE SMOOTH",
"367 384 OFFCURVE",
"393 409 OFFCURVE",
"431 428 CURVE",
"363 435 OFFCURVE",
"164 397 OFFCURVE",
"164 249 CURVE SMOOTH",
"164 182 OFFCURVE",
"205 80 OFFCURVE",
"463 45 CURVE SMOOTH",
"722 10 LINE SMOOTH",
"854 -8 OFFCURVE",
"891 -36 OFFCURVE",
"891 -108 CURVE SMOOTH",
"891 -214 OFFCURVE",
"811 -267 OFFCURVE",
"620 -267 CURVE SMOOTH",
"394 -267 OFFCURVE",
"331 -189 OFFCURVE",
"331 -84 CURVE SMOOTH",
"331 -2 OFFCURVE",
"369 48 OFFCURVE",
"398 78 CURVE",
"346 83 LINE",
"243 76 OFFCURVE",
"113 4 OFFCURVE",
"113 -144 CURVE SMOOTH",
"113 -325 OFFCURVE",
"307 -454 OFFCURVE",
"625 -454 CURVE SMOOTH"
);
},
{
closed = 1;
nodes = (
"878 384 OFFCURVE",
"1044 523 OFFCURVE",
"1044 744 CURVE SMOOTH",
"1044 973 OFFCURVE",
"866 1106 OFFCURVE",
"625 1110 CURVE SMOOTH",
"372 1114 OFFCURVE",
"202 972 OFFCURVE",
"202 747 CURVE SMOOTH",
"202 525 OFFCURVE",
"368 384 OFFCURVE",
"623 384 CURVE SMOOTH"
);
},
{
closed = 1;
nodes = (
"481 558 OFFCURVE",
"412 627 OFFCURVE",
"412 750 CURVE SMOOTH",
"412 869 OFFCURVE",
"480 936 OFFCURVE",
"622 936 CURVE SMOOTH",
"766 936 OFFCURVE",
"835 867 OFFCURVE",
"835 745 CURVE SMOOTH",
"835 625 OFFCURVE",
"767 558 OFFCURVE",
"624 558 CURVE SMOOTH"
);
},
{
closed = 1;
nodes = (
"801 1123 OFFCURVE",
"887 1114 OFFCURVE",
"944 1114 CURVE SMOOTH",
"1004 1114 OFFCURVE",
"1025 1109 OFFCURVE",
"1067 1102 CURVE",
"1067 1312 LINE",
"1051 1318 OFFCURVE",
"1027 1321 OFFCURVE",
"1000 1321 CURVE SMOOTH",
"876 1321 OFFCURVE",
"749 1256 OFFCURVE",
"732 1081 CURVE",
"745 1071 LINE"
);
}
);
width = 1200;
},
{
anchors = (
{
name = bottom;
position = "{515, -462}";
},
{
name = top;
position = "{515, 1091}";
}
);
layerId = "BF6BC6F6-4B2A-4E9B-9E28-8B62B2F12FD9";
paths = (
{
closed = 1;
nodes = (
"876 -458 OFFCURVE",
"1139 -325 OFFCURVE",
"1139 -80 CURVE SMOOTH",
"1139 77 OFFCURVE",
"1071 196 OFFCURVE",
"766 234 CURVE SMOOTH",
"486 269 LINE SMOOTH",
"375 283 OFFCURVE",
"349 301 OFFCURVE",
"349 347 CURVE SMOOTH",
"349 406 OFFCURVE",
"385 424 OFFCURVE",
"422 443 CURVE",
"345 450 OFFCURVE",
"121 389 OFFCURVE",
"121 235 CURVE SMOOTH",
"121 150 OFFCURVE",
"166 53 OFFCURVE",
"435 20 CURVE SMOOTH",
"694 -12 LINE SMOOTH",
"811 -26 OFFCURVE",
"849 -46 OFFCURVE",
"849 -104 CURVE SMOOTH",
"850 -182 OFFCURVE",
"761 -217 OFFCURVE",
"598 -217 CURVE SMOOTH",
"412 -217 OFFCURVE",
"314 -165 OFFCURVE",
"314 -48 CURVE SMOOTH",
"314 -1 OFFCURVE",
"331 30 OFFCURVE",
"359 54 CURVE",
"318 49 LINE",
"171 52 OFFCURVE",
"58 -18 OFFCURVE",
"58 -144 CURVE SMOOTH",
"58 -339 OFFCURVE",
"257 -458 OFFCURVE",
"606 -458 CURVE SMOOTH"
);
},
{
closed = 1;
nodes = (
"908 384 OFFCURVE",
"1078 523 OFFCURVE",
"1078 744 CURVE SMOOTH",
"1078 970 OFFCURVE",
"905 1108 OFFCURVE",
"614 1110 CURVE SMOOTH",
"317 1112 OFFCURVE",
"146 971 OFFCURVE",
"146 749 CURVE SMOOTH",
"146 525 OFFCURVE",
"316 384 OFFCURVE",
"612 384 CURVE SMOOTH"
);
},
{
closed = 1;
nodes = (
"506 594 OFFCURVE",
"440 642 OFFCURVE",
"440 750 CURVE SMOOTH",
"440 854 OFFCURVE",
"505 900 OFFCURVE",
"611 900 CURVE SMOOTH",
"727 900 OFFCURVE",
"783 852 OFFCURVE",
"783 745 CURVE SMOOTH",
"783 640 OFFCURVE",
"728 594 OFFCURVE",
"613 594 CURVE SMOOTH"
);
},
{
closed = 1;
nodes = (
"802 1119 OFFCURVE",
"884 1111 OFFCURVE",
"914 1111 CURVE SMOOTH",
"957 1111 OFFCURVE",
"1021 1104 OFFCURVE",
"1083 1090 CURVE",
"1083 1356 LINE",
"1067 1363 OFFCURVE",
"1033 1365 OFFCURVE",
"1006 1365 CURVE SMOOTH",
"875 1365 OFFCURVE",
"743 1314 OFFCURVE",
"725 1089 CURVE",
"739 1079 LINE"
);
}
);
width = 1200;
}
);
unicode = 0067;
},
{
glyphname = h;
lastChange = "2022-02-12 05:31:01 +0000";
layers = (
{
anchors = (
{
name = bottom;
position = "{572, 0}";
},
{
name = center;
position = "{572, 793}";
},
{
name = top;
position = "{572, 1586}";
}
);
layerId = "0D9D1AFE-BAFC-449A-A530-9FCA9CDF2E2E";
paths = (
{
closed = 1;
nodes = (
"305 0 LINE",
"305 745 LINE",
"403 929 OFFCURVE",
"496 996 OFFCURVE",
"645 996 CURVE SMOOTH",
"818 996 OFFCURVE",
"867 902 OFFCURVE",
"867 739 CURVE SMOOTH",
"867 0 LINE",
"987 0 LINE",
"987 773 LINE SMOOTH",
"987 1000 OFFCURVE",
"867 1114 OFFCURVE",
"661 1114 CURVE SMOOTH",
"425 1114 OFFCURVE",
"301 948 OFFCURVE",
"278 763 CURVE",
"298 693 LINE",
"289 780 LINE",
"305 1091 LINE",
"305 1555 LINE",
"185 1555 LINE",
"185 0 LINE"
);
}
);
width = 1200;
},
{
anchors = (
{
name = bottom;
position = "{578, 0}";
},
{
name = center;
position = "{578, 793}";
},
{
name = top;
position = "{578, 1586}";
}
);
background = {
paths = (
{
closed = 1;
nodes = (
"407 0 LINE",
"407 765 LINE",
"446 849 OFFCURVE",
"532 906 OFFCURVE",
"633 906 CURVE SMOOTH",
"764 906 OFFCURVE",
"811 834 OFFCURVE",
"811 646 CURVE SMOOTH",
"811 0 LINE",
"1035 0 LINE",
"1035 723 LINE SMOOTH",
"1035 980 OFFCURVE",
"931 1114 OFFCURVE",
"725 1114 CURVE SMOOTH",
"525 1114 OFFCURVE",
"412 996 OFFCURVE",
"381 765 CURVE",
"399 682 LINE",
"373 1094 LINE",
"183 1094 LINE",
"183 0 LINE"
);
}
);
};
layerId = "09AB1441-CF14-483D-884E-606841830E4D";
paths = (
{
closed = 1;
nodes = (
"407 0 LINE",
"407 765 LINE",
"446 849 OFFCURVE",
"530 906 OFFCURVE",
"633 906 CURVE SMOOTH",
"764 906 OFFCURVE",
"812 835 OFFCURVE",
"812 646 CURVE SMOOTH",
"812 0 LINE",
"1036 0 LINE",
"1036 723 LINE SMOOTH",
"1036 980 OFFCURVE",
"931 1114 OFFCURVE",
"725 1114 CURVE SMOOTH",
"490 1114 OFFCURVE",
"401 943 OFFCURVE",
"377 763 CURVE",
"400 692 LINE",
"381 762 LINE",
"407 1091 LINE",
"407 1555 LINE",
"183 1555 LINE",
"183 0 LINE"
);
}
);
width = 1200;
},
{
anchors = (
{
name = bottom;
position = "{570, 0}";
},
{
name = center;
position = "{570, 793}";
},
{
name = top;
position = "{570, 1586}";
}
);
layerId = "BF6BC6F6-4B2A-4E9B-9E28-8B62B2F12FD9";
paths = (
{
closed = 1;
nodes = (
"426 0 LINE",
"426 721 LINE",
"465 804 OFFCURVE",
"531 860 OFFCURVE",
"604 860 CURVE SMOOTH",
"706 860 OFFCURVE",
"746 790 OFFCURVE",
"746 607 CURVE SMOOTH",
"746 0 LINE",
"1055 0 LINE",
"1055 723 LINE SMOOTH",
"1055 987 OFFCURVE",
"925 1114 OFFCURVE",
"735 1114 CURVE SMOOTH",
"510 1114 OFFCURVE",
"423 943 OFFCURVE",
"400 763 CURVE",
"410 692 LINE",
"401 780 LINE",
"417 1091 LINE",
"417 1561 LINE",
"117 1561 LINE",
"117 0 LINE"
);
}
);
width = 1200;
}
);
unicode = 0068;
userData = {
KernOnName = h;
};
},
{
glyphname = hbar;
lastChange = "2022-02-12 05:33:45 +0000";
layers = (
{
layerId = "0D9D1AFE-BAFC-449A-A530-9FCA9CDF2E2E";
paths = (
{
closed = 1;
nodes = (
"311 0 LINE",
"311 745 LINE",
"408 929 OFFCURVE",
"500 996 OFFCURVE",
"648 996 CURVE SMOOTH",
"824 996 OFFCURVE",
"868 902 OFFCURVE",
"868 739 CURVE SMOOTH",
"868 0 LINE",
"988 0 LINE",
"988 773 LINE SMOOTH",
"988 992 OFFCURVE",
"869 1114 OFFCURVE",
"664 1114 CURVE SMOOTH",
"429 1114 OFFCURVE",
"307 948 OFFCURVE",
"284 763 CURVE",
"304 693 LINE",
"295 780 LINE",
"311 1091 LINE",
"311 1555 LINE",
"191 1555 LINE",
"191 0 LINE"
);
},
{
closed = 1;
nodes = (
"646 1288 LINE",
"646 1399 LINE",
"61 1399 LINE",
"61 1288 LINE"
);
}
);
width = 1200;
},
{
layerId = "09AB1441-CF14-483D-884E-606841830E4D";
paths = (
{
closed = 1;
nodes = (
"379 0 LINE",
"379 747 LINE",
"418 826 OFFCURVE",
"503 906 OFFCURVE",
"604 906 CURVE SMOOTH",
"749 906 OFFCURVE",
"797 831 OFFCURVE",
"797 646 CURVE SMOOTH",
"797 0 LINE",
"1023 0 LINE",
"1023 723 LINE SMOOTH",
"1023 987 OFFCURVE",
"908 1114 OFFCURVE",
"700 1114 CURVE SMOOTH",
"462 1114 OFFCURVE",
"383 943 OFFCURVE",
"359 763 CURVE",
"372 692 LINE",
"363 780 LINE",
"379 1091 LINE",
"379 1555 LINE",
"155 1555 LINE",
"155 0 LINE"
);
},
{
closed = 1;
nodes = (
"659 1224 LINE",
"659 1406 LINE",
"62 1406 LINE",
"62 1224 LINE"
);
}
);
width = 1200;
},
{
layerId = "BF6BC6F6-4B2A-4E9B-9E28-8B62B2F12FD9";
paths = (
{
closed = 1;
nodes = (
"430 0 LINE",
"430 721 LINE",
"471 804 OFFCURVE",
"533 860 OFFCURVE",
"610 860 CURVE SMOOTH",
"708 860 OFFCURVE",
"749 790 OFFCURVE",
"749 607 CURVE SMOOTH",
"749 0 LINE",
"1059 0 LINE",
"1059 723 LINE SMOOTH",
"1059 987 OFFCURVE",
"927 1114 OFFCURVE",
"730 1114 CURVE SMOOTH",
"502 1114 OFFCURVE",
"429 943 OFFCURVE",
"405 763 CURVE",
"415 692 LINE",
"406 780 LINE",
"422 1091 LINE",
"422 1561 LINE",
"120 1561 LINE",
"120 0 LINE"
);
},
{
closed = 1;
nodes = (
"692 1197 LINE",
"692 1423 LINE",
"21 1423 LINE",
"21 1197 LINE"
);
}
);
width = 1200;
}
);
unicode = 0127;
userData = {
KernOnName = hbar;
};
},
{
glyphname = i;
lastChange = "2022-02-12 05:33:45 +0000";
layers = (
{
anchors = (
{
name = bottom;
position = "{644, 0}";
}
);
layerId = "0D9D1AFE-BAFC-449A-A530-9FCA9CDF2E2E";
paths = (
{
closed = 1;
nodes = (
"710 20 LINE",
"710 1091 LINE",
"590 1074 LINE",
"590 991 LINE",
"655 977 LINE",
"613 970 OFFCURVE",
"590 932 OFFCURVE",
"590 855 CURVE SMOOTH",
"590 20 LINE"
);
},
{
closed = 1;
nodes = (
"1059 0 LINE",
"1059 108 LINE",
"212 108 LINE",
"212 0 LINE"
);
},
{
closed = 1;
nodes = (
"710 977 LINE",
"710 1091 LINE",
"215 1091 LINE",
"215 977 LINE"
);
},
{
closed = 1;
nodes = (
"715 1299 OFFCURVE",
"766 1350 OFFCURVE",
"766 1422 CURVE SMOOTH",
"766 1494 OFFCURVE",
"715 1544 OFFCURVE",
"650 1544 CURVE SMOOTH",
"585 1544 OFFCURVE",
"534 1494 OFFCURVE",
"534 1422 CURVE SMOOTH",
"534 1350 OFFCURVE",
"584 1299 OFFCURVE",
"650 1299 CURVE SMOOTH"
);
}
);
width = 1200;
},
{
anchors = (
{
name = bottom;
position = "{690, 0}";
}
);
background = {
paths = (
{
closed = 1;
nodes = (
"772 1259 OFFCURVE",
"845 1323 OFFCURVE",
"845 1425 CURVE SMOOTH",
"845 1525 OFFCURVE",
"773 1589 OFFCURVE",
"689 1589 CURVE SMOOTH",
"603 1589 OFFCURVE",
"531 1525 OFFCURVE",
"531 1425 CURVE SMOOTH",
"531 1323 OFFCURVE",
"603 1259 OFFCURVE",
"689 1259 CURVE SMOOTH"
);
}
);
};
layerId = "09AB1441-CF14-483D-884E-606841830E4D";
paths = (
{
closed = 1;
nodes = (
"800 30 LINE",
"804 1091 LINE",
"572 1020 LINE",
"583 935 LINE",
"685 890 LINE",
"599 884 OFFCURVE",
"583 825 OFFCURVE",
"583 766 CURVE SMOOTH",
"583 30 LINE"
);
},
{
closed = 1;
nodes = (
"1110 0 LINE",
"1110 176 LINE",
"241 176 LINE",
"241 0 LINE"
);
},
{
closed = 1;
nodes = (
"729 890 LINE",
"804 1091 LINE",
"191 1091 LINE",
"191 890 LINE"
);
},
{
closed = 1;
nodes = (
"770 1274 OFFCURVE",
"844 1341 OFFCURVE",
"844 1441 CURVE SMOOTH",
"844 1544 OFFCURVE",
"771 1612 OFFCURVE",
"680 1612 CURVE SMOOTH",
"589 1612 OFFCURVE",
"516 1544 OFFCURVE",
"516 1441 CURVE SMOOTH",
"516 1341 OFFCURVE",
"589 1274 OFFCURVE",
"680 1274 CURVE SMOOTH"
);
}
);
width = 1200;
},
{
anchors = (
{
name = bottom;
position = "{645, 0}";
}
);
layerId = "BF6BC6F6-4B2A-4E9B-9E28-8B62B2F12FD9";
paths = (
{
closed = 1;
nodes = (
"788 30 LINE",
"790 1091 LINE",
"488 975 LINE",
"488 921 LINE",
"567 843 LINE",
"529 843 OFFCURVE",
"488 804 OFFCURVE",
"488 758 CURVE SMOOTH",
"488 30 LINE"
);
},
{
closed = 1;
nodes = (
"1100 0 LINE",
"1100 218 LINE",
"167 218 LINE",
"167 0 LINE"
);
},
{
closed = 1;
nodes = (
"745 843 LINE",
"790 1091 LINE",
"133 1091 LINE",
"133 843 LINE"
);
},
{
closed = 1;
nodes = (
"746 1280 OFFCURVE",
"837 1357 OFFCURVE",
"837 1480 CURVE SMOOTH",
"837 1606 OFFCURVE",
"749 1682 OFFCURVE",
"640 1682 CURVE SMOOTH",
"532 1682 OFFCURVE",
"443 1604 OFFCURVE",
"443 1480 CURVE SMOOTH",
"443 1357 OFFCURVE",
"531 1280 OFFCURVE",
"640 1280 CURVE SMOOTH"
);
}
);
width = 1200;
}
);
unicode = 0069;
userData = {
KernOnName = i;
};
},
{
glyphname = idotless;
lastChange = "2022-02-12 05:31:01 +0000";
layers = (
{
anchors = (
{
name = bottom;
position = "{598, 0}";
},
{
name = ogonek;
position = "{1065, 0}";
},
{
name = top;
position = "{597, 1091}";
}
);
layerId = "0D9D1AFE-BAFC-449A-A530-9FCA9CDF2E2E";
paths = (
{
closed = 1;
nodes = (
"660 0 LINE",
"659 1074 LINE",
"537 1074 LINE",
"537 0 LINE"
);
},
{
closed = 1;
nodes = (
"121 983 LINE",
"659 983 LINE",
"659 1091 LINE",
"121 1091 LINE"
);
},
{
closed = 1;
nodes = (
"125 0 LINE",
"1065 0 LINE",
"1065 98 LINE",
"125 98 LINE"
);
}
);
width = 1200;
},
{
anchors = (
{
name = bottom;
position = "{653, 0}";
},
{
name = ogonek;
position = "{1108, 0}";
},
{
name = top;
position = "{653, 1091}";
}
);
layerId = "09AB1441-CF14-483D-884E-606841830E4D";
paths = (
{
closed = 1;
nodes = (
"766 0 LINE",
"770 1091 LINE",
"534 1091 LINE",
"534 0 LINE"
);
},
{
closed = 1;
nodes = (
"151 913 LINE",
"770 913 LINE",
"770 1091 LINE",
"151 1091 LINE"
);
},
{
closed = 1;
nodes = (
"207 0 LINE",
"1108 0 LINE",
"1108 178 LINE",
"207 178 LINE"
);
}
);
width = 1200;
},
{
anchors = (
{
name = bottom;
position = "{610, 0}";
},
{
name = ogonek;
position = "{1088, 0}";
},
{
name = top;
position = "{615, 1091}";
}
);
layerId = "BF6BC6F6-4B2A-4E9B-9E28-8B62B2F12FD9";
paths = (
{
closed = 1;
nodes = (
"774 0 LINE",
"776 1092 LINE",
"448 1092 LINE",
"448 0 LINE"
);
},
{
closed = 1;
nodes = (
"115 853 LINE",
"748 853 LINE",
"748 1091 LINE",
"115 1091 LINE"
);
},
{
closed = 1;
nodes = (
"127 0 LINE",
"1088 0 LINE",
"1088 238 LINE",
"127 238 LINE"
);
}
);
width = 1200;
}
);
unicode = 0131;
},
{
glyphname = ij;
lastChange = "2022-02-12 05:29:43 +0000";
layers = (
{
anchors = (
{
name = bottom;
position = "{447, 0}";
}
);
layerId = "0D9D1AFE-BAFC-449A-A530-9FCA9CDF2E2E";
paths = (
{
closed = 1;
nodes = (
"509 0 LINE",
"509 1091 LINE",
"385 1074 LINE",
"385 0 LINE"
);
},
{
closed = 1;
nodes = (
"35 977 LINE",
"509 977 LINE",
"509 1091 LINE",
"35 1091 LINE"
);
},
{
closed = 1;
nodes = (
"47 0 LINE",
"845 0 LINE",
"845 98 LINE",
"47 98 LINE"
);
},
{
closed = 1;
nodes = (
"1089 -462 OFFCURVE",
"1126 -348 OFFCURVE",
"1126 -172 CURVE SMOOTH",
"1126 -119 OFFCURVE",
"1124 -87 OFFCURVE",
"1124 -54 CURVE SMOOTH",
"1124 1091 LINE",
"1002 1058 LINE",
"1002 -219 LINE SMOOTH",
"1002 -312 OFFCURVE",
"974 -335 OFFCURVE",
"906 -335 CURVE SMOOTH",
"823 -335 OFFCURVE",
"775 -314 OFFCURVE",
"736 -305 CURVE",
"736 -433 LINE",
"798 -448 OFFCURVE",
"844 -462 OFFCURVE",
"924 -462 CURVE SMOOTH"
);
},
{
closed = 1;
nodes = (
"670 977 LINE",
"1124 977 LINE",
"1124 1091 LINE",
"670 1091 LINE"
);
},
{
closed = 1;
nodes = (
"507 1341 OFFCURVE",
"560 1393 OFFCURVE",
"560 1464 CURVE SMOOTH",
"560 1542 OFFCURVE",
"512 1586 OFFCURVE",
"452 1586 CURVE SMOOTH",
"390 1586 OFFCURVE",
"336 1542 OFFCURVE",
"336 1464 CURVE SMOOTH",
"336 1393 OFFCURVE",
"384 1341 OFFCURVE",
"446 1341 CURVE SMOOTH"
);
},
{
closed = 1;
nodes = (
"1123 1341 OFFCURVE",
"1176 1393 OFFCURVE",
"1176 1464 CURVE SMOOTH",
"1176 1542 OFFCURVE",
"1128 1586 OFFCURVE",
"1068 1586 CURVE SMOOTH",
"1006 1586 OFFCURVE",
"952 1542 OFFCURVE",
"952 1464 CURVE SMOOTH",
"952 1393 OFFCURVE",
"1000 1341 OFFCURVE",
"1062 1341 CURVE SMOOTH"
);
}
);
width = 1200;
},
{
anchors = (
{
name = bottom;
position = "{370, 0}";
}
);
layerId = "09AB1441-CF14-483D-884E-606841830E4D";
paths = (
{
closed = 1;
nodes = (
"476 0 LINE",
"480 1092 LINE",
"259 1082 LINE",
"259 0 LINE"
);
},
{
closed = 1;
nodes = (
"-29 890 LINE",
"477 890 LINE",
"477 1091 LINE",
"-29 1091 LINE"
);
},
{
closed = 1;
nodes = (
"-18 0 LINE",
"721 0 LINE",
"721 178 LINE",
"-18 178 LINE"
);
},
{
closed = 1;
nodes = (
"1041 -462 OFFCURVE",
"1085 -301 OFFCURVE",
"1085 -152 CURVE SMOOTH",
"1085 -119 OFFCURVE",
"1084 -86 OFFCURVE",
"1084 -54 CURVE SMOOTH",
"1089 1092 LINE",
"867 1060 LINE",
"867 -139 LINE SMOOTH",
"867 -216 OFFCURVE",
"827 -243 OFFCURVE",
"781 -243 CURVE SMOOTH",
"688 -243 OFFCURVE",
"643 -231 OFFCURVE",
"604 -214 CURVE",
"604 -422 LINE",
"664 -448 OFFCURVE",
"745 -462 OFFCURVE",
"847 -462 CURVE SMOOTH"
);
},
{
closed = 1;
nodes = (
"584 891 LINE",
"1089 891 LINE",
"1089 1092 LINE",
"584 1092 LINE"
);
},
{
closed = 1;
nodes = (
"454 1259 OFFCURVE",
"527 1323 OFFCURVE",
"527 1425 CURVE SMOOTH",
"527 1525 OFFCURVE",
"455 1589 OFFCURVE",
"371 1589 CURVE SMOOTH",
"285 1589 OFFCURVE",
"213 1525 OFFCURVE",
"213 1425 CURVE SMOOTH",
"213 1323 OFFCURVE",
"285 1259 OFFCURVE",
"371 1259 CURVE SMOOTH"
);
},
{
closed = 1;
nodes = (
"1061 1259 OFFCURVE",
"1134 1323 OFFCURVE",
"1134 1425 CURVE SMOOTH",
"1134 1525 OFFCURVE",
"1062 1589 OFFCURVE",
"978 1589 CURVE SMOOTH",
"892 1589 OFFCURVE",
"820 1525 OFFCURVE",
"820 1425 CURVE SMOOTH",
"820 1323 OFFCURVE",
"892 1259 OFFCURVE",
"978 1259 CURVE SMOOTH"
);
}
);
width = 1200;
},
{
anchors = (
{
name = bottom;
position = "{328, 0}";
}
);
layerId = "BF6BC6F6-4B2A-4E9B-9E28-8B62B2F12FD9";
paths = (
{
closed = 1;
nodes = (
"487 0 LINE",
"487 1092 LINE",
"187 1051 LINE",
"187 0 LINE"
);
},
{
closed = 1;
nodes = (
"-59 843 LINE",
"446 843 LINE",
"487 1092 LINE",
"-59 1091 LINE"
);
},
{
closed = 1;
nodes = (
"-66 0 LINE",
"726 0 LINE",
"726 238 LINE",
"-66 238 LINE"
);
},
{
closed = 1;
nodes = (
"1045 -446 OFFCURVE",
"1122 -333 OFFCURVE",
"1122 -131 CURVE SMOOTH",
"1122 -106 OFFCURVE",
"1121 -70 OFFCURVE",
"1121 -39 CURVE SMOOTH",
"1123 1092 LINE",
"829 1049 LINE",
"829 -69 LINE SMOOTH",
"829 -149 OFFCURVE",
"802 -173 OFFCURVE",
"774 -173 CURVE SMOOTH",
"714 -173 OFFCURVE",
"651 -164 OFFCURVE",
"629 -155 CURVE",
"629 -421 LINE",
"714 -446 OFFCURVE",
"797 -446 OFFCURVE",
"882 -446 CURVE SMOOTH"
);
},
{
closed = 1;
nodes = (
"648 844 LINE",
"1026 844 LINE",
"1123 1092 LINE",
"648 1092 LINE"
);
},
{
closed = 1;
nodes = (
"451 1216 OFFCURVE",
"543 1299 OFFCURVE",
"543 1422 CURVE SMOOTH",
"543 1552 OFFCURVE",
"452 1634 OFFCURVE",
"339 1634 CURVE SMOOTH",
"226 1634 OFFCURVE",
"135 1552 OFFCURVE",
"135 1422 CURVE SMOOTH",
"135 1300 OFFCURVE",
"226 1216 OFFCURVE",
"339 1216 CURVE SMOOTH"
);
},
{
closed = 1;
nodes = (
"1087 1216 OFFCURVE",
"1179 1299 OFFCURVE",
"1179 1422 CURVE SMOOTH",
"1179 1552 OFFCURVE",
"1088 1634 OFFCURVE",
"975 1634 CURVE SMOOTH",
"862 1634 OFFCURVE",
"771 1552 OFFCURVE",
"771 1422 CURVE SMOOTH",
"771 1300 OFFCURVE",
"862 1216 OFFCURVE",
"975 1216 CURVE SMOOTH"
);
}
);
width = 1200;
}
);
unicode = 0133;
},
{
glyphname = ij_acutecomb;
lastChange = "2022-02-12 05:33:45 +0000";
layers = (
{
layerId = "0D9D1AFE-BAFC-449A-A530-9FCA9CDF2E2E";
paths = (
{
closed = 1;
nodes = (
"508 0 LINE",
"508 1074 LINE",
"385 1074 LINE",
"385 0 LINE"
);
},
{
closed = 1;
nodes = (
"35 983 LINE",
"508 983 LINE",
"508 1091 LINE",
"35 1091 LINE"
);
},
{
closed = 1;
nodes = (
"47 0 LINE",
"844 0 LINE",
"844 98 LINE",
"47 98 LINE"
);
},
{
closed = 1;
nodes = (
"1087 -462 OFFCURVE",
"1124 -349 OFFCURVE",
"1124 -172 CURVE SMOOTH",
"1124 -119 OFFCURVE",
"1122 -87 OFFCURVE",
"1122 -54 CURVE SMOOTH",
"1122 1091 LINE",
"1000 1091 LINE",
"1000 -219 LINE SMOOTH",
"1000 -312 OFFCURVE",
"972 -335 OFFCURVE",
"924 -335 CURVE SMOOTH",
"871 -335 OFFCURVE",
"824 -314 OFFCURVE",
"805 -305 CURVE",
"805 -433 LINE",
"847 -448 OFFCURVE",
"892 -462 OFFCURVE",
"943 -462 CURVE SMOOTH"
);
},
{
closed = 1;
nodes = (
"669 983 LINE",
"1122 983 LINE",
"1122 1091 LINE",
"669 1091 LINE"
);
},
{
closed = 1;
nodes = (
"505 1284 LINE",
"732 1593 LINE",
"568 1593 LINE",
"358 1284 LINE"
);
},
{
closed = 1;
nodes = (
"1123 1284 LINE",
"1350 1593 LINE",
"1186 1593 LINE",
"976 1284 LINE"
);
}
);
width = 1200;
},
{
layerId = "09AB1441-CF14-483D-884E-606841830E4D";
paths = (
{
closed = 1;
nodes = (
"476 0 LINE",
"480 1092 LINE",
"258 1082 LINE",
"258 0 LINE"
);
},
{
closed = 1;
nodes = (
"-31 913 LINE",
"477 913 LINE",
"477 1091 LINE",
"-31 1091 LINE"
);
},
{
closed = 1;
nodes = (
"-20 0 LINE",
"723 0 LINE",
"723 178 LINE",
"-20 178 LINE"
);
},
{
closed = 1;
nodes = (
"1043 -462 OFFCURVE",
"1088 -302 OFFCURVE",
"1088 -152 CURVE SMOOTH",
"1088 -119 OFFCURVE",
"1087 -86 OFFCURVE",
"1087 -54 CURVE SMOOTH",
"1092 1092 LINE",
"869 1092 LINE",
"869 -139 LINE SMOOTH",
"869 -216 OFFCURVE",
"829 -243 OFFCURVE",
"783 -243 CURVE SMOOTH",
"748 -243 OFFCURVE",
"712 -230 OFFCURVE",
"695 -224 CURVE",
"695 -432 LINE",
"735 -448 OFFCURVE",
"777 -462 OFFCURVE",
"849 -462 CURVE SMOOTH"
);
},
{
closed = 1;
nodes = (
"585 914 LINE",
"1092 914 LINE",
"1092 1092 LINE",
"585 1092 LINE"
);
},
{
closed = 1;
nodes = (
"483 1284 LINE",
"719 1614 LINE",
"462 1614 LINE",
"244 1284 LINE"
);
},
{
closed = 1;
nodes = (
"1091 1284 LINE",
"1327 1614 LINE",
"1070 1614 LINE",
"852 1284 LINE"
);
}
);
width = 1200;
},
{
layerId = "BF6BC6F6-4B2A-4E9B-9E28-8B62B2F12FD9";
paths = (
{
closed = 1;
nodes = (
"486 0 LINE",
"486 1092 LINE",
"185 1092 LINE",
"185 0 LINE"
);
},
{
closed = 1;
nodes = (
"-63 853 LINE",
"446 853 LINE",
"446 1091 LINE",
"-63 1091 LINE"
);
},
{
closed = 1;
nodes = (
"-70 0 LINE",
"727 0 LINE",
"727 238 LINE",
"-70 238 LINE"
);
},
{
closed = 1;
nodes = (
"1048 -446 OFFCURVE",
"1126 -333 OFFCURVE",
"1126 -131 CURVE SMOOTH",
"1126 -106 OFFCURVE",
"1125 -70 OFFCURVE",
"1125 -39 CURVE SMOOTH",
"1127 1092 LINE",
"831 1092 LINE",
"831 -69 LINE SMOOTH",
"831 -149 OFFCURVE",
"804 -173 OFFCURVE",
"776 -173 CURVE SMOOTH",
"746 -173 OFFCURVE",
"712 -164 OFFCURVE",
"690 -155 CURVE",
"690 -421 LINE",
"746 -436 OFFCURVE",
"798 -446 OFFCURVE",
"884 -446 CURVE SMOOTH"
);
},
{
closed = 1;
nodes = (
"648 854 LINE",
"1127 854 LINE",
"1127 1092 LINE",
"648 1092 LINE"
);
},
{
closed = 1;
nodes = (
"488 1284 LINE",
"734 1623 LINE",
"402 1623 LINE",
"198 1284 LINE"
);
},
{
closed = 1;
nodes = (
"1125 1284 LINE",
"1371 1623 LINE",
"1039 1623 LINE",
"835 1284 LINE"
);
}
);
width = 1200;
}
);
},
{
glyphname = j;
lastChange = "2022-02-12 05:33:45 +0000";
layers = (
{
background = {
paths = (
{
closed = 1;
nodes = (
"858 0 LINE",
"858 1191 LINE SMOOTH",
"858 1425 OFFCURVE",
"989 1482 OFFCURVE",
"1136 1482 CURVE SMOOTH",
"1236 1482 OFFCURVE",
"1330 1463 OFFCURVE",
"1367 1450 CURVE",
"1367 1572 LINE",
"1326 1585 OFFCURVE",
"1235 1601 OFFCURVE",
"1118 1601 CURVE SMOOTH",
"906 1601 OFFCURVE",
"734 1477 OFFCURVE",
"734 1221 CURVE SMOOTH",
"734 1047 LINE",
"799 976 LINE",
"757 963 OFFCURVE",
"734 920 OFFCURVE",
"734 858 CURVE SMOOTH",
"734 0 LINE"
);
},
{
closed = 1;
nodes = (
"1226 0 LINE",
"1226 108 LINE",
"496 108 LINE",
"496 0 LINE"
);
},
{
closed = 1;
nodes = (
"1221 976 LINE",
"1221 1092 LINE",
"494 1092 LINE",
"494 976 LINE"
);
}
);
};
layerId = "0D9D1AFE-BAFC-449A-A530-9FCA9CDF2E2E";
paths = (
{
closed = 1;
nodes = (
"758 -462 OFFCURVE",
"859 -339 OFFCURVE",
"859 -120 CURVE SMOOTH",
"859 1091 LINE",
"738 1091 LINE",
"738 1029 LINE",
"807 975 LINE",
"757 963 OFFCURVE",
"738 920 OFFCURVE",
"738 860 CURVE SMOOTH",
"738 -99 LINE SMOOTH",
"738 -282 OFFCURVE",
"648 -335 OFFCURVE",
"517 -335 CURVE SMOOTH",
"414 -335 OFFCURVE",
"310 -323 OFFCURVE",
"215 -284 CURVE",
"215 -412 LINE",
"307 -447 OFFCURVE",
"435 -462 OFFCURVE",
"512 -462 CURVE SMOOTH"
);
},
{
closed = 1;
nodes = (
"821 975 LINE",
"859 1091 LINE",
"348 1091 LINE",
"348 975 LINE"
);
},
{
closed = 1;
nodes = (
"861 1299 OFFCURVE",
"912 1350 OFFCURVE",
"912 1422 CURVE SMOOTH",
"912 1494 OFFCURVE",
"861 1544 OFFCURVE",
"796 1544 CURVE SMOOTH",
"731 1544 OFFCURVE",
"680 1494 OFFCURVE",
"680 1422 CURVE SMOOTH",
"680 1350 OFFCURVE",
"730 1299 OFFCURVE",
"796 1299 CURVE SMOOTH"
);
}
);
width = 1200;
},
{
background = {
paths = (
{
closed = 1;
nodes = (
"857 -462 OFFCURVE",
"917 -319 OFFCURVE",
"917 -160 CURVE SMOOTH",
"917 -119 OFFCURVE",
"913 -86 OFFCURVE",
"913 -54 CURVE SMOOTH",
"913 1092 LINE",
"719 1092 LINE",
"719 -169 LINE SMOOTH",
"719 -252 OFFCURVE",
"674 -278 OFFCURVE",
"565 -278 CURVE SMOOTH",
"425 -278 OFFCURVE",
"347 -262 OFFCURVE",
"255 -234 CURVE",
"255 -412 LINE",
"384 -448 OFFCURVE",
"461 -462 OFFCURVE",
"593 -462 CURVE SMOOTH"
);
},
{
closed = 1;
nodes = (
"273 903 LINE",
"883 903 LINE",
"913 1091 LINE",
"273 1091 LINE"
);
},
{
closed = 1;
nodes = (
"886 1287 OFFCURVE",
"951 1353 OFFCURVE",
"951 1433 CURVE SMOOTH",
"951 1522 OFFCURVE",
"887 1578 OFFCURVE",
"811 1578 CURVE SMOOTH",
"733 1578 OFFCURVE",
"669 1522 OFFCURVE",
"669 1433 CURVE SMOOTH",
"669 1353 OFFCURVE",
"733 1287 OFFCURVE",
"811 1287 CURVE SMOOTH"
);
},
{
closed = 1;
nodes = (
"894 40 LINE",
"894 1248 LINE SMOOTH",
"894 1389 OFFCURVE",
"996 1433 OFFCURVE",
"1122 1433 CURVE SMOOTH",
"1192 1433 OFFCURVE",
"1315 1419 OFFCURVE",
"1358 1403 CURVE",
"1358 1614 LINE",
"1318 1621 OFFCURVE",
"1195 1633 OFFCURVE",
"1112 1633 CURVE SMOOTH",
"853 1633 OFFCURVE",
"681 1509 OFFCURVE",
"681 1243 CURVE SMOOTH",
"681 1047 LINE",
"812 894 LINE",
"700 883 OFFCURVE",
"681 820 OFFCURVE",
"681 698 CURVE SMOOTH",
"681 40 LINE"
);
},
{
closed = 1;
nodes = (
"1227 0 LINE",
"1227 178 LINE",
"479 178 LINE",
"479 0 LINE"
);
},
{
closed = 1;
nodes = (
"1237 894 LINE",
"1237 1092 LINE",
"440 1092 LINE",
"440 894 LINE"
);
}
);
};
layerId = "09AB1441-CF14-483D-884E-606841830E4D";
paths = (
{
closed = 1;
nodes = (
"821 -462 OFFCURVE",
"926 -302 OFFCURVE",
"926 -74 CURVE SMOOTH",
"926 1092 LINE",
"680 1092 LINE",
"680 990 LINE",
"780 891 LINE",
"709 885 OFFCURVE",
"680 828 OFFCURVE",
"680 705 CURVE SMOOTH",
"680 -84 LINE SMOOTH",
"680 -216 OFFCURVE",
"629 -243 OFFCURVE",
"506 -243 CURVE SMOOTH",
"399 -243 OFFCURVE",
"305 -230 OFFCURVE",
"228 -204 CURVE",
"228 -412 LINE",
"313 -449 OFFCURVE",
"419 -462 OFFCURVE",
"531 -462 CURVE SMOOTH"
);
},
{
closed = 1;
nodes = (
"886 891 LINE",
"926 1092 LINE",
"284 1092 LINE",
"284 891 LINE"
);
},
{
closed = 1;
nodes = (
"890 1274 OFFCURVE",
"964 1341 OFFCURVE",
"964 1441 CURVE SMOOTH",
"964 1544 OFFCURVE",
"891 1612 OFFCURVE",
"800 1612 CURVE SMOOTH",
"709 1612 OFFCURVE",
"636 1544 OFFCURVE",
"636 1441 CURVE SMOOTH",
"636 1341 OFFCURVE",
"709 1274 OFFCURVE",
"800 1274 CURVE SMOOTH"
);
}
);
width = 1200;
},
{
background = {
paths = (
{
closed = 1;
nodes = (
"907 30 LINE",
"907 1201 LINE SMOOTH",
"907 1336 OFFCURVE",
"966 1372 OFFCURVE",
"1087 1372 CURVE SMOOTH",
"1174 1372 OFFCURVE",
"1238 1364 OFFCURVE",
"1280 1353 CURVE",
"1281 1620 LINE",
"1225 1630 OFFCURVE",
"1169 1636 OFFCURVE",
"1060 1636 CURVE SMOOTH",
"806 1636 OFFCURVE",
"598 1508 OFFCURVE",
"598 1221 CURVE SMOOTH",
"598 1047 LINE",
"701 863 LINE",
"635 852 OFFCURVE",
"598 793 OFFCURVE",
"598 711 CURVE SMOOTH",
"598 30 LINE"
);
},
{
closed = 1;
nodes = (
"1224 0 LINE",
"1224 218 LINE",
"393 218 LINE",
"393 0 LINE"
);
},
{
closed = 1;
nodes = (
"1222 863 LINE",
"1222 1092 LINE",
"364 1092 LINE",
"364 863 LINE"
);
}
);
};
layerId = "BF6BC6F6-4B2A-4E9B-9E28-8B62B2F12FD9";
paths = (
{
closed = 1;
nodes = (
"807 -446 OFFCURVE",
"906 -273 OFFCURVE",
"906 18 CURVE SMOOTH",
"906 1092 LINE",
"597 1021 LINE",
"597 912 LINE",
"697 844 LINE",
"635 833 OFFCURVE",
"597 774 OFFCURVE",
"597 684 CURVE SMOOTH",
"597 -7 LINE SMOOTH",
"597 -164 OFFCURVE",
"533 -188 OFFCURVE",
"410 -188 CURVE SMOOTH",
"329 -188 OFFCURVE",
"230 -168 OFFCURVE",
"181 -154 CURVE",
"181 -405 LINE",
"244 -424 OFFCURVE",
"338 -446 OFFCURVE",
"485 -446 CURVE SMOOTH"
);
},
{
closed = 1;
nodes = (
"851 844 LINE",
"906 1092 LINE",
"252 1092 LINE",
"252 844 LINE"
);
},
{
closed = 1;
nodes = (
"846 1280 OFFCURVE",
"937 1357 OFFCURVE",
"937 1480 CURVE SMOOTH",
"937 1606 OFFCURVE",
"849 1682 OFFCURVE",
"740 1682 CURVE SMOOTH",
"632 1682 OFFCURVE",
"543 1606 OFFCURVE",
"543 1480 CURVE SMOOTH",
"543 1357 OFFCURVE",
"631 1280 OFFCURVE",
"740 1280 CURVE SMOOTH"
);
}
);
width = 1200;
}
);
unicode = 006A;
userData = {
KernOnName = j;
};
},
{
glyphname = jdotless;
lastChange = "2022-02-12 05:30:42 +0000";
layers = (
{
anchors = (
{
name = bottom;
position = "{539, -462}";
},
{
name = top;
position = "{800, 1091}";
}
);
layerId = "0D9D1AFE-BAFC-449A-A530-9FCA9CDF2E2E";
paths = (
{
closed = 1;
nodes = (
"758 -462 OFFCURVE",
"859 -339 OFFCURVE",
"859 -120 CURVE SMOOTH",
"859 1091 LINE",
"738 1091 LINE",
"738 1029 LINE",
"807 975 LINE",
"757 963 OFFCURVE",
"738 920 OFFCURVE",
"738 860 CURVE SMOOTH",
"738 -99 LINE SMOOTH",
"738 -282 OFFCURVE",
"648 -335 OFFCURVE",
"517 -335 CURVE SMOOTH",
"414 -335 OFFCURVE",
"310 -323 OFFCURVE",
"215 -284 CURVE",
"215 -412 LINE",
"307 -447 OFFCURVE",
"435 -462 OFFCURVE",
"512 -462 CURVE SMOOTH"
);
},
{
closed = 1;
nodes = (
"821 975 LINE",
"859 1091 LINE",
"358 1091 LINE",
"358 975 LINE"
);
}
);
width = 1200;
},
{
anchors = (
{
name = bottom;
position = "{560, -462}";
},
{
name = top;
position = "{803, 1091}";
}
);
background = {
paths = (
{
closed = 1;
nodes = (
"920 40 LINE",
"920 1248 LINE SMOOTH",
"920 1389 OFFCURVE",
"1022 1433 OFFCURVE",
"1148 1433 CURVE SMOOTH",
"1218 1433 OFFCURVE",
"1341 1419 OFFCURVE",
"1384 1403 CURVE",
"1384 1614 LINE",
"1344 1621 OFFCURVE",
"1221 1633 OFFCURVE",
"1138 1633 CURVE SMOOTH",
"879 1633 OFFCURVE",
"707 1509 OFFCURVE",
"707 1243 CURVE SMOOTH",
"707 1047 LINE",
"838 894 LINE",
"726 883 OFFCURVE",
"707 820 OFFCURVE",
"707 698 CURVE SMOOTH",
"707 40 LINE"
);
},
{
closed = 1;
nodes = (
"1253 0 LINE",
"1253 178 LINE",
"505 178 LINE",
"505 0 LINE"
);
},
{
closed = 1;
nodes = (
"1263 894 LINE",
"1263 1092 LINE",
"466 1092 LINE",
"466 894 LINE"
);
}
);
};
layerId = "09AB1441-CF14-483D-884E-606841830E4D";
paths = (
{
closed = 1;
nodes = (
"821 -462 OFFCURVE",
"926 -302 OFFCURVE",
"926 -74 CURVE SMOOTH",
"926 1092 LINE",
"680 1092 LINE",
"680 990 LINE",
"780 891 LINE",
"709 885 OFFCURVE",
"680 828 OFFCURVE",
"680 705 CURVE SMOOTH",
"680 -74 LINE SMOOTH",
"680 -206 OFFCURVE",
"629 -233 OFFCURVE",
"506 -233 CURVE SMOOTH",
"409 -233 OFFCURVE",
"315 -220 OFFCURVE",
"238 -194 CURVE",
"238 -412 LINE",
"323 -449 OFFCURVE",
"429 -462 OFFCURVE",
"531 -462 CURVE SMOOTH"
);
},
{
closed = 1;
nodes = (
"886 891 LINE",
"926 1092 LINE",
"284 1092 LINE",
"284 891 LINE"
);
}
);
width = 1200;
},
{
anchors = (
{
name = bottom;
position = "{533, -462}";
},
{
name = top;
position = "{748, 1091}";
}
);
layerId = "BF6BC6F6-4B2A-4E9B-9E28-8B62B2F12FD9";
paths = (
{
closed = 1;
nodes = (
"807 -446 OFFCURVE",
"906 -273 OFFCURVE",
"906 18 CURVE SMOOTH",
"906 1092 LINE",
"597 1021 LINE",
"597 912 LINE",
"697 844 LINE",
"635 833 OFFCURVE",
"597 774 OFFCURVE",
"597 684 CURVE SMOOTH",
"597 -7 LINE SMOOTH",
"597 -164 OFFCURVE",
"533 -188 OFFCURVE",
"410 -188 CURVE SMOOTH",
"329 -188 OFFCURVE",
"230 -168 OFFCURVE",
"181 -154 CURVE",
"181 -405 LINE",
"244 -424 OFFCURVE",
"338 -446 OFFCURVE",
"485 -446 CURVE SMOOTH"
);
},
{
closed = 1;
nodes = (
"851 844 LINE",
"906 1092 LINE",
"252 1092 LINE",
"252 844 LINE"
);
}
);
width = 1200;
}
);
unicode = 0237;
},
{
glyphname = k;
lastChange = "2022-02-12 05:29:56 +0000";
layers = (
{
anchors = (
{
name = bottom;
position = "{624, 0}";
},
{
name = top;
position = "{574, 1586}";
}
);
background = {
paths = (
{
closed = 1;
nodes = (
"1144 0 LINE",
"719 508 LINE",
"605 625 LINE",
"396 595 LINE",
"847 0 LINE"
);
},
{
closed = 1;
nodes = (
"415 0 LINE",
"415 438 LINE",
"401 590 LINE",
"401 598 LINE",
"415 744 LINE",
"415 1555 LINE",
"189 1555 LINE",
"189 0 LINE"
);
},
{
closed = 1;
nodes = (
"719 684 LINE",
"1106 1091 LINE",
"800 1091 LINE",
"597 852 LINE",
"396 595 LINE",
"606 562 LINE"
);
}
);
};
layerId = "0D9D1AFE-BAFC-449A-A530-9FCA9CDF2E2E";
paths = (
{
closed = 1;
nodes = (
"1126 0 LINE",
"623 508 LINE",
"490 617 LINE",
"371 595 LINE",
"961 0 LINE"
);
},
{
closed = 1;
nodes = (
"381 0 LINE",
"381 438 LINE",
"376 590 LINE",
"376 598 LINE",
"381 744 LINE",
"381 1555 LINE",
"260 1555 LINE",
"260 0 LINE"
);
},
{
closed = 1;
nodes = (
"651 704 LINE",
"1072 1091 LINE",
"893 1091 LINE",
"663 872 LINE",
"371 595 LINE",
"491 566 LINE"
);
}
);
width = 1200;
},
{
anchors = (
{
name = bottom;
position = "{610, 0}";
},
{
name = top;
position = "{580, 1586}";
}
);
layerId = "09AB1441-CF14-483D-884E-606841830E4D";
paths = (
{
closed = 1;
nodes = (
"1144 0 LINE",
"719 508 LINE",
"605 625 LINE",
"396 595 LINE",
"847 0 LINE"
);
},
{
closed = 1;
nodes = (
"415 0 LINE",
"415 438 LINE",
"401 590 LINE",
"401 598 LINE",
"415 744 LINE",
"415 1555 LINE",
"189 1555 LINE",
"189 0 LINE"
);
},
{
closed = 1;
nodes = (
"719 684 LINE",
"1106 1091 LINE",
"800 1091 LINE",
"597 852 LINE",
"396 595 LINE",
"606 562 LINE"
);
}
);
width = 1200;
},
{
anchors = (
{
name = bottom;
position = "{617, 0}";
},
{
name = top;
position = "{587, 1586}";
}
);
layerId = "BF6BC6F6-4B2A-4E9B-9E28-8B62B2F12FD9";
paths = (
{
closed = 1;
nodes = (
"1175 0 LINE",
"803 508 LINE",
"674 633 LINE",
"417 595 LINE",
"794 0 LINE"
);
},
{
closed = 1;
nodes = (
"440 0 LINE",
"440 415 LINE",
"422 590 LINE",
"422 598 LINE",
"440 767 LINE",
"440 1561 LINE",
"136 1561 LINE",
"136 0 LINE"
);
},
{
closed = 1;
nodes = (
"798 672 LINE",
"1139 1091 LINE",
"753 1091 LINE",
"579 829 LINE",
"417 595 LINE",
"674 562 LINE"
);
}
);
width = 1200;
}
);
unicode = 006B;
userData = {
KernOnName = k;
};
},
{
glyphname = l;
lastChange = "2022-02-16 04:44:40 +0000";
layers = (
{
anchors = (
{
name = bottom;
position = "{729, 0}";
},
{
name = center;
position = "{600, 956}";
},
{
name = top;
position = "{600, 1912}";
},
{
name = topright;
position = "{735, 1091}";
}
);
background = {
paths = (
{
closed = 1;
nodes = (
"861 -12 OFFCURVE",
"969 15 OFFCURVE",
"1037 49 CURVE",
"1037 170 LINE",
"940 128 OFFCURVE",
"858 103 OFFCURVE",
"743 103 CURVE SMOOTH",
"616 103 OFFCURVE",
"579 153 OFFCURVE",
"579 306 CURVE SMOOTH",
"578 1091 LINE",
"90 1091 LINE",
"90 977 LINE",
"531 977 LINE",
"481 969 OFFCURVE",
"456 945 OFFCURVE",
"456 880 CURVE SMOOTH",
"456 317 LINE SMOOTH",
"456 119 OFFCURVE",
"488 -12 OFFCURVE",
"729 -12 CURVE SMOOTH"
);
},
{
closed = 1;
nodes = (
"623 1286 OFFCURVE",
"674 1337 OFFCURVE",
"674 1406 CURVE SMOOTH",
"674 1475 OFFCURVE",
"623 1525 OFFCURVE",
"558 1525 CURVE SMOOTH",
"493 1525 OFFCURVE",
"442 1475 OFFCURVE",
"442 1406 CURVE SMOOTH",
"442 1337 OFFCURVE",
"492 1286 OFFCURVE",
"558 1286 CURVE SMOOTH"
);
}
);
};
layerId = "0D9D1AFE-BAFC-449A-A530-9FCA9CDF2E2E";
paths = (
{
closed = 1;
nodes = (
"897 -12 OFFCURVE",
"1005 15 OFFCURVE",
"1073 49 CURVE",
"1073 170 LINE",
"976 128 OFFCURVE",
"894 103 OFFCURVE",
"763 103 CURVE SMOOTH",
"616 103 OFFCURVE",
"579 153 OFFCURVE",
"579 306 CURVE SMOOTH",
"579 1565 LINE",
"98 1565 LINE",
"98 1457 LINE",
"528 1457 LINE",
"483 1449 OFFCURVE",
"454 1410 OFFCURVE",
"454 1334 CURVE SMOOTH",
"454 317 LINE SMOOTH",
"454 119 OFFCURVE",
"490 -12 OFFCURVE",
"749 -12 CURVE SMOOTH"
);
}
);
width = 1200;
},
{
anchors = (
{
name = bottom;
position = "{697, 0}";
},
{
name = center;
position = "{600, 956}";
},
{
name = top;
position = "{600, 1912}";
},
{
name = topright;
position = "{745, 1091}";
}
);
layerId = "09AB1441-CF14-483D-884E-606841830E4D";
paths = (
{
closed = 1;
nodes = (
"888 -16 OFFCURVE",
"1002 4 OFFCURVE",
"1077 32 CURVE",
"1077 243 LINE",
"1016 214 OFFCURVE",
"941 193 OFFCURVE",
"824 193 CURVE SMOOTH",
"704 193 OFFCURVE",
"657 218 OFFCURVE",
"657 351 CURVE SMOOTH",
"661 1555 LINE",
"121 1555 LINE",
"121 1357 LINE",
"495 1357 LINE",
"450 1352 OFFCURVE",
"425 1318 OFFCURVE",
"425 1263 CURVE SMOOTH",
"425 297 LINE SMOOTH",
"425 47 OFFCURVE",
"593 -16 OFFCURVE",
"782 -16 CURVE SMOOTH"
);
}
);
width = 1200;
},
{
anchors = (
{
name = bottom;
position = "{711, 0}";
},
{
name = center;
position = "{600, 956}";
},
{
name = top;
position = "{600, 1912}";
},
{
name = topright;
position = "{745, 1091}";
}
);
layerId = "BF6BC6F6-4B2A-4E9B-9E28-8B62B2F12FD9";
paths = (
{
closed = 1;
nodes = (
"892 -13 OFFCURVE",
"1013 -6 OFFCURVE",
"1102 22 CURVE",
"1102 277 LINE",
"1028 255 OFFCURVE",
"933 250 OFFCURVE",
"879 250 CURVE SMOOTH",
"728 250 OFFCURVE",
"690 283 OFFCURVE",
"690 415 CURVE SMOOTH",
"692 1561 LINE",
"113 1561 LINE",
"113 1293 LINE",
"478 1293 LINE",
"441 1286 OFFCURVE",
"394 1262 OFFCURVE",
"394 1199 CURVE SMOOTH",
"394 309 LINE SMOOTH",
"394 89 OFFCURVE",
"515 -13 OFFCURVE",
"796 -13 CURVE SMOOTH"
);
}
);
width = 1200;
}
);
unicode = 006C;
},
